<svg width="158" height="44" viewBox="0 0 158 44" fill="none" xmlns="http://www.w3.org/2000/svg">
<g filter="url(#filter0_d)">
<rect x="6" y="2" width="146" height="30" rx="1" fill="#433232"/>
</g>
<rect x="6" width="146" height="30" rx="2" fill="url(#paint0_linear)"/>
<rect x="6.5" y="0.5" width="145" height="29" rx="1.5" stroke="black" stroke-opacity="0.3"/>
<g filter="url(#filter1_i)">
<path d="M35.9698 10.9258C35.9633 10.7109 35.9145 10.5482 35.8234 10.4375C35.7387 10.3203 35.6215 10.2129 35.4718 10.1152C35.3937 10.0697 35.3351 10.0273 35.296 9.98828C35.2635 9.94922 35.2472 9.9069 35.2472 9.86133C35.2472 9.76367 35.3286 9.66276 35.4913 9.55859C35.6606 9.44792 35.8201 9.39258 35.9698 9.39258C36.2042 9.39258 36.4776 9.46094 36.7901 9.59766C38.0467 9.47396 38.9776 9.33073 39.5831 9.16797C40.1886 9.00521 40.6801 8.83594 41.0577 8.66016C41.201 8.58854 41.2986 8.55273 41.3507 8.55273C41.5655 8.55273 41.9789 8.80013 42.5909 9.29492C42.9295 9.57487 43.1964 9.82227 43.3917 10.0371C43.587 10.2454 43.6847 10.4245 43.6847 10.5742C43.6847 10.6784 43.6619 10.7826 43.6163 10.8867C43.5707 10.9909 43.4991 11.1309 43.4015 11.3066C43.2322 11.6191 43.0857 11.9251 42.962 12.2246C42.8383 12.5241 42.7374 12.8952 42.6593 13.3379C42.6267 13.5137 42.5193 13.7025 42.337 13.9043C42.1547 14.0996 41.9464 14.2656 41.712 14.4023C41.4776 14.5326 41.2726 14.5977 41.0968 14.5977C40.921 14.5977 40.7908 14.5163 40.7062 14.3535C40.6215 14.1908 40.5662 13.9922 40.5401 13.7578C39.7459 13.7448 38.9191 13.8099 38.0597 13.9531L37.8644 13.9824C37.7928 14.3275 37.6756 14.6172 37.5128 14.8516C37.3566 15.0794 37.1743 15.1934 36.9659 15.1934C36.8813 15.1934 36.7674 15.1022 36.6241 14.9199C36.4809 14.7376 36.3539 14.5195 36.2433 14.2656C36.1326 14.0052 36.0773 13.7676 36.0773 13.5527C36.0773 13.3053 36.048 12.5469 35.9894 11.2773L35.9698 10.9258ZM33.6456 20.0273C33.6326 20.3919 33.5122 20.8118 33.2843 21.2871C33.0564 21.7624 32.7928 22.1693 32.4933 22.5078C32.1938 22.8529 31.9399 23.0254 31.7316 23.0254C31.6144 23.0254 31.5102 22.9635 31.4191 22.8398C31.3279 22.7161 31.2075 22.5176 31.0577 22.2441C30.8559 21.8665 30.6638 21.5671 30.4816 21.3457C30.3058 21.1178 30.0812 20.9714 29.8077 20.9062C29.7101 20.8867 29.6612 20.8314 29.6612 20.7402C29.6612 20.7012 29.6743 20.6654 29.7003 20.6328C29.7329 20.5938 29.7719 20.5742 29.8175 20.5742C29.837 20.5742 29.9249 20.5872 30.0812 20.6133C30.1137 20.6198 30.1984 20.6361 30.3351 20.6621C30.4783 20.6816 30.6118 20.6914 30.7355 20.6914C31.2042 20.6914 31.4549 20.4961 31.4874 20.1055C31.5135 19.8385 31.533 18.9759 31.546 17.5176C30.908 18.5397 30.3448 19.3796 29.8566 20.0371C29.3748 20.6947 29.0265 21.0234 28.8116 21.0234C28.6163 21.0234 28.4568 20.8965 28.3331 20.6426C28.2094 20.3822 28.1215 20.0892 28.0694 19.7637C28.0174 19.4316 27.9946 19.1745 28.0011 18.9922C28.0076 18.888 28.0434 18.8034 28.1085 18.7383C28.1801 18.6732 28.3201 18.5755 28.5284 18.4453C28.9451 18.1849 29.378 17.8822 29.8273 17.5371C30.283 17.1921 30.8526 16.694 31.5362 16.043C31.5362 15.4049 31.533 14.9297 31.5265 14.6172C31.3442 14.7018 31.1684 14.806 30.9991 14.9297C30.8624 15.0143 30.755 15.0762 30.6769 15.1152C30.6053 15.1478 30.5239 15.1641 30.4327 15.1641C30.322 15.1641 30.117 15.0697 29.8175 14.8809C29.518 14.6921 29.2446 14.4902 28.9972 14.2754C28.7498 14.054 28.6261 13.8945 28.6261 13.7969C28.6326 13.7253 28.6651 13.6667 28.7237 13.6211C28.7823 13.569 28.867 13.543 28.9776 13.543C29.2446 13.543 29.6092 13.4714 30.0714 13.3281C30.5401 13.1849 31.0187 13.0124 31.5069 12.8105L31.4776 11.1211C31.4711 10.8151 31.4223 10.6133 31.3312 10.5156C31.2465 10.4115 31.1359 10.3398 30.9991 10.3008C30.934 10.2812 30.8852 10.2617 30.8526 10.2422C30.8266 10.2227 30.8136 10.1868 30.8136 10.1348C30.8136 10.0436 30.8494 9.93945 30.921 9.82227C30.9991 9.70508 31.0903 9.60417 31.1944 9.51953C31.3051 9.4349 31.4093 9.39258 31.5069 9.39258C31.6892 9.39258 31.9562 9.48698 32.3077 9.67578C32.6658 9.86458 32.9848 10.0762 33.2648 10.3105C33.5512 10.5449 33.6944 10.724 33.6944 10.8477C33.6879 10.9518 33.6651 11.1081 33.6261 11.3164C33.6196 11.362 33.6098 11.4173 33.5968 11.4824C33.5838 11.541 33.5707 11.6126 33.5577 11.6973C33.6619 11.6452 33.7628 11.6191 33.8605 11.6191C33.9842 11.6191 34.1664 11.6647 34.4073 11.7559C34.6482 11.847 34.8631 11.9544 35.0519 12.0781C35.2407 12.2018 35.3351 12.3092 35.3351 12.4004C35.3286 12.5046 35.2928 12.651 35.2276 12.8398C35.1625 13.0221 35.0779 13.1849 34.9737 13.3281C34.8761 13.4714 34.7719 13.543 34.6612 13.543C34.4529 13.543 34.2836 13.5527 34.1534 13.5723C34.0232 13.5918 33.8149 13.6504 33.5284 13.748C33.5349 14.2428 33.5447 14.7116 33.5577 15.1543C33.5707 15.5905 33.5805 15.9779 33.587 16.3164C33.6326 18.3997 33.6521 19.6367 33.6456 20.0273ZM40.7452 10.3105C40.7452 10.2064 40.7289 10.138 40.6964 10.1055C40.6638 10.0729 40.5922 10.0566 40.4816 10.0566C40.3123 10.0566 39.9933 10.0957 39.5245 10.1738C39.0623 10.2454 38.4763 10.3659 37.7667 10.5352C37.7602 10.5547 37.7439 10.6003 37.7179 10.6719C37.6984 10.737 37.6886 10.8118 37.6886 10.8965C37.6886 10.9551 37.6984 11.0592 37.7179 11.209L37.7472 11.4629L39.212 11.1211C39.3943 11.082 39.6026 11.0104 39.837 10.9062C39.9803 10.8411 40.0779 10.8086 40.13 10.8086C40.1951 10.8086 40.2797 10.8281 40.3839 10.8672C40.4881 10.8997 40.5922 10.9453 40.6964 11.0039L40.7257 10.6523L40.7452 10.3105ZM37.9425 13.0645C38.255 12.9863 38.6619 12.918 39.1632 12.8594C39.671 12.8008 40.1365 12.7552 40.5597 12.7227C40.5727 12.5078 40.5922 12.2734 40.6183 12.0195L40.3448 12.0098C40.1495 11.9967 40.003 11.9902 39.9054 11.9902C39.339 11.9902 38.6554 12.0977 37.8546 12.3125L37.9425 13.0645ZM46.5558 20.6523C46.5818 20.6458 46.6241 20.6426 46.6827 20.6426C46.8129 20.6426 46.9204 20.6784 47.005 20.75C47.0896 20.8151 47.1319 20.8932 47.1319 20.9844C47.1319 21.0495 47.1059 21.1081 47.0538 21.1602C47.0082 21.2122 46.9399 21.2513 46.8487 21.2773C45.9503 21.5638 45.2407 21.8405 44.7198 22.1074C44.199 22.3743 43.701 22.6641 43.2257 22.9766C42.9783 23.1328 42.7928 23.2402 42.6691 23.2988C42.5519 23.3639 42.4282 23.3965 42.298 23.3965C41.9138 23.3965 41.4191 23.3118 40.8136 23.1426C40.2081 22.9733 39.5278 22.6738 38.7726 22.2441C38.0239 21.821 37.2882 21.2578 36.5655 20.5547C36.0122 21.349 35.3839 22.0423 34.6808 22.6348C33.9776 23.2272 33.3038 23.5755 32.6593 23.6797L32.464 23.6992C32.3924 23.6992 32.337 23.6862 32.298 23.6602C32.2589 23.6406 32.2394 23.6146 32.2394 23.582C32.2394 23.5104 32.3012 23.4258 32.4249 23.3281C33.1801 22.7487 33.8149 22.0163 34.3292 21.1309C34.8435 20.2454 35.2276 19.4121 35.4816 18.6309C35.7355 17.8431 35.8787 17.2832 35.9112 16.9512C35.9178 16.8926 35.921 16.821 35.921 16.7363C35.895 16.7493 35.8624 16.7624 35.8234 16.7754C35.7843 16.7819 35.7452 16.7949 35.7062 16.8145C35.5109 16.8796 35.3872 16.9121 35.3351 16.9121C35.2114 16.9121 35.0421 16.847 34.8273 16.7168C34.6189 16.5866 34.4138 16.4336 34.212 16.2578C34.0167 16.0755 33.8832 15.9258 33.8116 15.8086C33.7726 15.75 33.753 15.6914 33.753 15.6328C33.753 15.5417 33.7856 15.4635 33.8507 15.3984C33.9158 15.3268 33.9809 15.2943 34.046 15.3008C34.3064 15.3268 34.6222 15.3398 34.9933 15.3398C35.3383 15.3398 35.6769 15.3301 36.0089 15.3105C36.3409 15.291 36.5916 15.2682 36.7609 15.2422C37.1059 15.1836 37.7895 15.0859 38.8116 14.9492C40.1332 14.7669 41.1521 14.6172 41.8683 14.5C42.0375 14.474 42.2101 14.4251 42.3859 14.3535C42.5616 14.2819 42.7667 14.1875 43.0011 14.0703C43.3136 13.9076 43.5187 13.8262 43.6163 13.8262C43.7726 13.8262 44.0395 13.9336 44.4171 14.1484C44.7947 14.3633 45.1398 14.6042 45.4523 14.8711C45.7648 15.1315 45.921 15.3333 45.921 15.4766C45.921 15.5938 45.8592 15.724 45.7355 15.8672C45.6183 16.0104 45.4783 16.1341 45.3155 16.2383C45.1593 16.3424 45.0291 16.3945 44.9249 16.3945C44.8598 16.3945 44.7198 16.362 44.505 16.2969C44.1339 16.1927 43.7433 16.1048 43.3331 16.0332C42.9295 15.9616 42.4314 15.9258 41.839 15.9258C41.5525 15.9258 41.1749 15.9323 40.7062 15.9453C40.7062 16.5508 40.7094 17.0423 40.7159 17.4199L40.9308 17.3809C41.1521 17.3418 41.3409 17.293 41.4972 17.2344C41.6534 17.1758 41.8162 17.1074 41.9855 17.0293C42.0766 16.9837 42.1645 16.9479 42.2491 16.9219C42.3338 16.8893 42.4119 16.873 42.4835 16.873C42.5942 16.873 42.77 16.9414 43.0109 17.0781C43.2517 17.2148 43.4666 17.3711 43.6554 17.5469C43.8507 17.7227 43.9484 17.8724 43.9484 17.9961C43.9484 18.1198 43.9093 18.237 43.8312 18.3477C43.753 18.4518 43.6586 18.5365 43.548 18.6016C43.4373 18.6667 43.3396 18.6992 43.255 18.6992C43.1248 18.6992 42.975 18.6764 42.8058 18.6309C42.5714 18.5658 42.3142 18.5332 42.0343 18.5332C41.8845 18.5332 41.7674 18.5365 41.6827 18.543C41.3898 18.569 41.0707 18.6113 40.7257 18.6699L40.7355 20.0957C40.7355 20.2715 40.7192 20.4082 40.6866 20.5059C41.8194 20.6947 43.0239 20.7891 44.2999 20.7891C44.7947 20.7891 45.2439 20.776 45.6476 20.75C46.0512 20.7174 46.3539 20.6849 46.5558 20.6523ZM36.6925 16.4824C36.9659 16.7103 37.2003 16.9642 37.3956 17.2441C37.5974 17.5241 37.6984 17.752 37.6984 17.9277C37.6984 18.3314 37.5388 18.8457 37.2198 19.4707C37.6039 19.666 38.0401 19.8418 38.5284 19.998L38.5577 19.1875C38.6098 18.0417 38.6359 17.0553 38.6359 16.2285C38.6359 16.1895 38.6293 16.1504 38.6163 16.1113C37.9653 16.1895 37.324 16.3132 36.6925 16.4824Z" fill="white"/>
<path d="M52.6581 12.6445C52.4107 12.6315 52.1959 12.5436 52.0136 12.3809C51.8378 12.2181 51.6425 11.9805 51.4276 11.668L51.2519 11.4336C51.1868 11.349 51.1542 11.2546 51.1542 11.1504C51.1542 11.0723 51.177 11.0104 51.2226 10.9648C51.2747 10.9128 51.3463 10.89 51.4374 10.8965C51.8606 10.9225 52.3749 10.9355 52.9804 10.9355C54.1718 10.9355 55.5097 10.8802 56.9941 10.7695C56.9485 10.1966 56.8931 9.79948 56.828 9.57812C56.7955 9.46094 56.7467 9.3763 56.6816 9.32422C56.6165 9.27214 56.5383 9.22982 56.4472 9.19727C56.3691 9.16471 56.3105 9.13216 56.2714 9.09961C56.2388 9.06706 56.2226 9.01497 56.2226 8.94336C56.2226 8.85872 56.3365 8.76432 56.5644 8.66016C56.7922 8.55599 57.0461 8.46484 57.3261 8.38672C57.6125 8.30859 57.8111 8.26953 57.9218 8.26953C58.026 8.26953 58.231 8.32487 58.537 8.43555C58.8495 8.53971 59.1295 8.67318 59.3769 8.83594C59.6308 8.9987 59.7577 9.17122 59.7577 9.35352C59.7577 9.54232 59.7349 9.77344 59.6894 10.0469C59.6438 10.3138 59.6178 10.4733 59.6112 10.5254C60.2493 10.4603 60.8645 10.3822 61.4569 10.291C61.8801 10.2259 62.2219 10.1478 62.4823 10.0566C62.7493 9.95898 63.0325 9.84505 63.3319 9.71484C63.4687 9.64974 63.5793 9.60091 63.664 9.56836C63.7486 9.53581 63.83 9.51953 63.9081 9.51953C63.9928 9.51953 64.1783 9.60417 64.4648 9.77344C64.7577 9.94271 65.0539 10.1478 65.3534 10.3887C65.8157 10.7598 66.1282 11.0299 66.2909 11.1992C66.4537 11.362 66.5351 11.515 66.5351 11.6582C66.5351 11.834 66.47 12.013 66.3398 12.1953C66.2095 12.3776 66.0533 12.5306 65.871 12.6543C65.6952 12.778 65.5455 12.8431 65.4218 12.8496C65.3241 12.8496 65.2167 12.8301 65.0995 12.791C64.9888 12.7454 64.8196 12.6706 64.5917 12.5664C64.1555 12.3646 63.7388 12.2018 63.3417 12.0781C62.9446 11.9479 62.4693 11.873 61.9159 11.8535C61.6555 11.8405 61.317 11.834 60.9003 11.834C60.1581 11.834 59.3931 11.8535 58.6054 11.8926C57.8241 11.9251 57.1536 11.9837 56.5937 12.0684L55.7245 12.2051C55.4316 12.2507 54.8717 12.3353 54.0448 12.459C53.2245 12.5827 52.7623 12.6445 52.6581 12.6445ZM59.7577 12.3516C60.3827 12.332 61.0924 12.4395 61.8866 12.6738C62.6809 12.9017 63.3547 13.2077 63.9081 13.5918C64.468 13.9759 64.748 14.373 64.748 14.7832C64.748 14.9525 64.6698 15.1673 64.5136 15.4277C64.3573 15.6816 64.1523 15.8997 63.8983 16.082C63.651 16.2643 63.3873 16.3522 63.1073 16.3457C62.9836 16.3392 62.8567 16.2676 62.7265 16.1309C62.6028 15.9941 62.4172 15.7533 62.1698 15.4082C61.7857 14.8678 61.4016 14.3926 61.0175 13.9824C60.6399 13.5658 60.1809 13.2044 59.6405 12.8984C59.5624 12.8529 59.5006 12.8008 59.455 12.7422C59.4159 12.6836 59.3964 12.6283 59.3964 12.5762C59.3964 12.5111 59.4257 12.459 59.4843 12.4199C59.5429 12.3809 59.634 12.3581 59.7577 12.3516ZM51.3202 16.8047C51.177 16.8047 51.0696 16.7884 50.998 16.7559C50.9263 16.7168 50.8905 16.6712 50.8905 16.6191C50.8905 16.5671 50.9198 16.5117 50.9784 16.4531C51.037 16.3945 51.1054 16.3522 51.1835 16.3262C51.815 16.1113 52.4498 15.7891 53.0878 15.3594C53.7323 14.9297 54.2629 14.4772 54.6796 14.002C55.0963 13.5267 55.3046 13.1133 55.3046 12.7617C55.3046 12.638 55.3697 12.5436 55.4999 12.4785C55.6301 12.4069 55.7473 12.3711 55.8515 12.3711C55.9426 12.3711 56.1347 12.4362 56.4276 12.5664C56.7206 12.6901 56.9843 12.8431 57.2187 13.0254C57.4595 13.2077 57.58 13.39 57.58 13.5723C57.58 13.9173 57.2284 14.3503 56.5253 14.8711C55.8222 15.3919 54.9758 15.8444 53.9862 16.2285C53.0032 16.6126 52.1145 16.8047 51.3202 16.8047ZM67.6483 21.209C67.7655 21.2155 67.8664 21.2578 67.9511 21.3359C68.0357 21.4141 68.078 21.4954 68.078 21.5801C68.078 21.6452 68.0455 21.7005 67.9804 21.7461C67.9218 21.7917 67.8339 21.8145 67.7167 21.8145C66.9615 21.821 66.2779 21.9349 65.6659 22.1562C65.0605 22.3776 64.4355 22.6673 63.7909 23.0254C63.7454 23.0449 63.6412 23.097 63.4784 23.1816C63.3222 23.2728 63.192 23.3346 63.0878 23.3672C62.9901 23.4062 62.912 23.4258 62.8534 23.4258C62.6451 23.4258 62.3098 23.25 61.8476 22.8984C61.3853 22.5469 60.8547 22.0716 60.2558 21.4727C59.6633 20.8672 59.0741 20.2031 58.4882 19.4805C57.5377 20.4505 56.4211 21.2871 55.1386 21.9902C53.856 22.6868 52.3912 23.1426 50.7441 23.3574C50.7115 23.3639 50.6627 23.3672 50.5976 23.3672C50.4999 23.3672 50.4218 23.3509 50.3632 23.3184C50.3046 23.2923 50.2753 23.2565 50.2753 23.2109C50.2753 23.1458 50.3306 23.084 50.4413 23.0254C51.9517 22.2702 53.2896 21.4499 54.455 20.5645C55.6204 19.679 56.5676 18.8001 57.2968 17.9277C57.0038 17.498 56.8183 17.2214 56.7401 17.0977C56.7076 17.0391 56.6197 17.0098 56.4765 17.0098C56.3723 17.0098 56.2388 17.0293 56.0761 17.0684C55.9133 17.1009 55.7603 17.1367 55.6171 17.1758C55.565 17.1888 55.4999 17.2051 55.4218 17.2246C55.3437 17.2441 55.2916 17.2539 55.2655 17.2539C55.1939 17.2539 55.1158 17.2083 55.0312 17.1172C54.953 17.0195 54.8912 16.9089 54.8456 16.7852C54.8 16.6615 54.7838 16.5605 54.7968 16.4824C54.8228 16.3457 55.0605 16.222 55.5097 16.1113C55.9589 15.9941 56.3625 15.916 56.7206 15.877C56.9941 15.8509 57.3912 16.1178 57.912 16.6777C57.9381 16.7168 57.9967 16.7754 58.0878 16.8535C58.5175 16.1764 58.7323 15.6035 58.7323 15.1348C58.7323 15.0371 58.7095 14.946 58.664 14.8613C58.6249 14.7767 58.5728 14.6855 58.5077 14.5879C58.4426 14.5033 58.4101 14.4414 58.4101 14.4023C58.4101 14.3112 58.5045 14.2005 58.6933 14.0703C58.8821 13.9336 59.0351 13.8652 59.1523 13.8652C59.1978 13.8652 59.2825 13.9108 59.4062 14.002C59.5299 14.0931 59.6568 14.194 59.787 14.3047C60.0149 14.487 60.1483 14.5911 60.1874 14.6172C60.4934 14.832 60.7082 15.0078 60.8319 15.1445C60.9556 15.2747 61.0175 15.431 61.0175 15.6133C61.0175 15.6914 60.9622 15.8574 60.8515 16.1113C60.7473 16.3652 60.5878 16.6745 60.373 17.0391C60.1581 17.4036 59.901 17.7845 59.6015 18.1816C60.578 18.9889 61.4504 19.5977 62.2187 20.0078C62.7786 20.3073 63.6282 20.5645 64.7675 20.7793C65.9133 20.9941 66.8736 21.1374 67.6483 21.209Z" fill="white"/>
<path d="M86.4753 14.0996C86.612 14.0996 86.8594 14.2201 87.2175 14.4609C87.5756 14.7018 87.9109 14.9622 88.2234 15.2422C88.5359 15.5156 88.6921 15.6979 88.6921 15.7891C88.6921 15.8607 88.601 15.9714 88.4187 16.1211C88.2429 16.2643 88.0476 16.3978 87.8327 16.5215C87.6179 16.6387 87.4616 16.6973 87.364 16.6973C87.3054 16.6973 87.2305 16.6842 87.1394 16.6582C87.0547 16.6322 86.9636 16.5996 86.8659 16.5605C86.5469 16.4434 86.2377 16.3522 85.9382 16.2871C85.6387 16.222 85.2872 16.1992 84.8835 16.2188C84.278 16.2383 83.5651 16.2806 82.7448 16.3457L82.4226 16.3652C82.4226 16.7168 82.4616 17.5371 82.5398 18.8262C82.6179 20.0501 82.6569 20.7988 82.6569 21.0723C82.6569 21.3262 82.5332 21.6842 82.2859 22.1465C82.0385 22.6087 81.7553 23.0189 81.4362 23.377C81.1172 23.735 80.8568 23.9141 80.655 23.9141C80.5508 23.9141 80.4629 23.8522 80.3913 23.7285C80.3197 23.6113 80.222 23.403 80.0984 23.1035C79.9747 22.7845 79.8542 22.5078 79.737 22.2734C79.6263 22.0456 79.4701 21.8372 79.2683 21.6484C79.073 21.4531 78.8321 21.3229 78.5456 21.2578C78.487 21.2448 78.4382 21.2188 78.3991 21.1797C78.3601 21.1406 78.3405 21.1016 78.3405 21.0625C78.3405 21.0169 78.3633 20.9811 78.4089 20.9551C78.4545 20.9225 78.5261 20.9062 78.6237 20.9062C78.6498 20.9062 78.7377 20.9193 78.8874 20.9453C79.0372 20.9714 79.1967 20.9844 79.3659 20.9844C79.8542 20.9844 80.1309 20.8314 80.196 20.5254C80.2872 20.1348 80.3327 19.2038 80.3327 17.7324C80.3327 17.2051 80.3295 16.8177 80.323 16.5703C79.1836 16.7135 78.2396 16.8698 77.4909 17.0391C77.6993 17.332 77.8881 17.6771 78.0573 18.0742C78.2266 18.4648 78.3112 18.8717 78.3112 19.2949C78.3112 19.6855 78.2266 20.0306 78.0573 20.3301C77.8881 20.623 77.6928 20.8509 77.4714 21.0137C77.25 21.1764 77.0678 21.2578 76.9245 21.2578C76.7618 21.2578 76.6185 21.1276 76.4948 20.8672C76.3776 20.6003 76.3191 20.291 76.3191 19.9395C76.3191 19.7832 76.4265 19.4251 76.6413 18.8652C76.7911 18.4486 76.905 18.1035 76.9831 17.8301C77.0678 17.5501 77.1036 17.319 77.0905 17.1367L76.8171 17.1953C76.6218 17.2474 76.4883 17.2734 76.4167 17.2734C76.2995 17.2734 76.1498 17.2148 75.9675 17.0977C75.7852 16.9805 75.5964 16.8372 75.4011 16.668C75.5183 19.4674 75.5769 21.069 75.5769 21.4727C75.5769 21.7201 75.4857 22.0358 75.3034 22.4199C75.1211 22.8105 74.9128 23.1556 74.6784 23.4551C74.4441 23.7611 74.2618 23.9141 74.1316 23.9141C74.0013 23.9141 73.8744 23.8132 73.7507 23.6113C73.6335 23.4095 73.5391 23.1361 73.4675 22.791C73.3959 22.446 73.3601 22.0684 73.3601 21.6582L73.3698 21.0332C73.4219 19.2949 73.448 17.1107 73.448 14.4805C72.4193 15.4766 71.3842 16.3001 70.3425 16.9512C70.2579 17.0098 70.1765 17.0391 70.0984 17.0391C69.9877 17.0391 69.9323 16.987 69.9323 16.8828C69.9323 16.7982 69.9779 16.7005 70.0691 16.5898C71.1498 15.2943 71.9734 14.1875 72.5398 13.2695C73.1127 12.3516 73.4838 11.6452 73.653 11.1504C73.8288 10.6556 73.9167 10.2878 73.9167 10.0469C73.9167 9.92969 73.8614 9.80924 73.7507 9.68555C73.7181 9.64648 73.6856 9.60742 73.653 9.56836C73.627 9.52279 73.614 9.47721 73.614 9.43164C73.614 9.37956 73.6856 9.30794 73.8288 9.2168C73.972 9.11914 74.1283 9.03125 74.2976 8.95312C74.4734 8.875 74.5938 8.83594 74.6589 8.83594C74.7631 8.83594 74.9519 8.95964 75.2253 9.20703C75.4987 9.44792 75.7494 9.71484 75.9773 10.0078C76.2116 10.2943 76.3288 10.4961 76.3288 10.6133C76.3288 10.7826 76.2344 11.0332 76.0456 11.3652C75.8568 11.6908 75.5964 12.0651 75.2644 12.4883C75.2709 13.0026 75.2969 13.8555 75.3425 15.0469L75.3718 15.9355C75.6387 15.929 76.2995 15.89 77.3542 15.8184C78.1941 15.7598 79.1674 15.6523 80.2741 15.4961L80.2155 14.9004C80.1635 14.5293 80.0788 14.2396 79.9616 14.0312C79.9161 14.0508 79.8672 14.0703 79.8151 14.0898C79.7631 14.1029 79.7077 14.1191 79.6491 14.1387C79.558 14.36 79.4148 14.5781 79.2194 14.793C79.0306 15.0078 78.8679 15.1152 78.7312 15.1152C78.6205 15.1152 78.4838 15.0046 78.321 14.7832C78.1648 14.5618 78.0248 14.3079 77.9011 14.0215C77.7839 13.735 77.722 13.5137 77.7155 13.3574C77.67 12.5892 77.5951 12.0195 77.4909 11.6484C77.3868 11.2708 77.2696 10.9648 77.1394 10.7305C77.0873 10.6393 77.0612 10.571 77.0612 10.5254C77.0612 10.4408 77.0938 10.3659 77.1589 10.3008C77.2305 10.2357 77.3184 10.2031 77.4226 10.2031C77.4942 10.2031 77.6895 10.2812 78.0085 10.4375C78.334 10.5938 78.64 10.7663 78.9265 10.9551C79.2194 11.1439 79.3887 11.2969 79.4343 11.4141C79.5124 11.6029 79.5808 12.0618 79.6394 12.791C80.1797 12.6999 80.8731 12.5501 81.7194 12.3418C81.9343 12.2897 82.1296 12.2311 82.3054 12.166C82.3379 12.0488 82.4226 11.7949 82.5593 11.4043C82.7025 10.9811 82.7774 10.75 82.7839 10.7109C82.7969 10.6458 82.8034 10.6035 82.8034 10.584C82.8034 10.5319 82.7872 10.4993 82.7546 10.4863C82.7286 10.4733 82.6765 10.4668 82.5984 10.4668C81.9864 10.4928 81.5046 10.5352 81.153 10.5938C80.808 10.6523 80.5085 10.7174 80.2546 10.7891C80.0853 10.8346 79.9714 10.8574 79.9128 10.8574C79.75 10.8574 79.5059 10.75 79.1804 10.5352C78.8549 10.3203 78.6042 10.125 78.4284 9.94922C78.3763 9.89714 78.3503 9.8418 78.3503 9.7832C78.3503 9.71159 78.3894 9.67578 78.4675 9.67578C79.0795 9.67578 79.6654 9.61393 80.2253 9.49023C80.7852 9.36003 81.3256 9.21029 81.8464 9.04102C82.1459 8.93685 82.3835 8.83594 82.5593 8.73828C82.7351 8.64062 82.9043 8.5332 83.0671 8.41602C83.1517 8.35091 83.2201 8.30534 83.2722 8.2793C83.3243 8.24674 83.3796 8.23047 83.4382 8.23047C83.5033 8.23047 83.5977 8.28581 83.7214 8.39648C83.8451 8.50716 84.0144 8.67643 84.2292 8.9043C84.6003 9.27539 84.7859 9.46094 84.7859 9.46094C84.9226 9.59115 85.1049 9.75716 85.3327 9.95898C85.6908 10.291 85.9414 10.5352 86.0847 10.6914C86.2344 10.8411 86.3093 10.9583 86.3093 11.043C86.3093 11.1341 86.267 11.2415 86.1823 11.3652C86.0977 11.4824 85.948 11.6712 85.7331 11.9316C85.323 12.4134 85.0007 12.8366 84.7663 13.2012C84.6361 13.403 84.4668 13.569 84.2585 13.6992C84.0567 13.8294 83.8679 13.8945 83.6921 13.8945C83.6075 13.8945 83.4707 13.8522 83.2819 13.7676C83.0931 13.6764 82.9141 13.5658 82.7448 13.4355C82.4584 13.4551 82.0938 13.5039 81.6511 13.582C82.1784 13.875 82.4421 14.1061 82.4421 14.2754C82.4421 14.6204 82.4388 14.9102 82.4323 15.1445C82.9597 15.0469 83.5066 14.9427 84.073 14.832C84.6849 14.7083 85.2937 14.5228 85.8991 14.2754C86.0228 14.2233 86.1335 14.181 86.2312 14.1484C86.3288 14.1159 86.4102 14.0996 86.4753 14.0996ZM84.2194 16.9121C84.4734 17.0228 84.8412 17.2116 85.323 17.4785C85.8047 17.7454 86.2605 18.0677 86.6901 18.4453C87.1263 18.8229 87.3444 19.1908 87.3444 19.5488C87.3444 19.9264 87.25 20.278 87.0612 20.6035C86.8724 20.9225 86.6381 21.1797 86.3581 21.375C86.0847 21.5638 85.8308 21.6582 85.5964 21.6582C85.4597 21.6582 85.336 21.502 85.2253 21.1895C85.1211 20.8704 84.9844 20.3691 84.8151 19.6855C84.6589 19.0345 84.5189 18.5137 84.3952 18.123C84.2715 17.7324 84.1316 17.4362 83.9753 17.2344C83.9037 17.1432 83.8679 17.0651 83.8679 17C83.8679 16.9219 83.9265 16.8828 84.0437 16.8828C84.1023 16.8828 84.1609 16.8926 84.2194 16.9121Z" fill="white"/>
<path d="M107.763 18.9141C107.939 18.9141 108.271 19.0573 108.759 19.3438C109.248 19.6237 109.69 19.9395 110.087 20.291C110.491 20.6361 110.693 20.9095 110.693 21.1113C110.693 21.248 110.625 21.4108 110.488 21.5996C110.358 21.7819 110.201 21.9382 110.019 22.0684C109.843 22.2051 109.694 22.2734 109.57 22.2734C109.511 22.2734 109.391 22.2441 109.209 22.1855C109.026 22.127 108.896 22.0846 108.818 22.0586C108.225 21.8633 107.675 21.7005 107.167 21.5703C106.666 21.4401 106.181 21.3717 105.712 21.3652C105.504 21.3587 105.205 21.3555 104.814 21.3555C103.089 21.3555 101.754 21.4466 100.81 21.6289C99.8726 21.8047 99.1011 22.0098 98.4956 22.2441C98.3003 22.3158 98.1766 22.3516 98.1245 22.3516C97.9357 22.3451 97.6981 22.2441 97.4116 22.0488C97.1252 21.8535 96.9006 21.6322 96.7378 21.3848C96.6857 21.3066 96.6597 21.2253 96.6597 21.1406C96.6597 21.0365 96.6955 20.9421 96.7671 20.8574C96.8452 20.7728 96.9494 20.6784 97.0796 20.5742C97.1577 20.5156 97.2163 20.4668 97.2554 20.4277C97.2944 20.3822 97.314 20.3431 97.314 20.3105C97.314 20.2389 97.327 20.2031 97.353 20.2031C97.3791 20.2031 97.4344 20.2454 97.5191 20.3301C97.6232 20.4212 97.6851 20.4701 97.7046 20.4766C97.8023 20.5091 97.9911 20.5254 98.271 20.5254C98.4793 20.5254 98.6454 20.5221 98.7691 20.5156C98.8537 19.7018 98.9025 18.8652 98.9155 18.0059C98.0431 18.8783 97.3433 19.6302 96.8159 20.2617C96.2951 20.8867 95.7873 21.5215 95.2925 22.166C94.9605 22.5957 94.7228 22.8789 94.5796 23.0156C94.4429 23.1523 94.2899 23.2207 94.1206 23.2207L94.023 23.2109C93.9253 23.1979 93.8309 23.1393 93.7398 23.0352C93.6551 22.931 93.551 22.7812 93.4273 22.5859C93.3361 22.4297 93.2417 22.2897 93.1441 22.166C92.9162 21.8861 92.7664 21.6908 92.6948 21.5801C92.6297 21.4629 92.6069 21.3262 92.6265 21.1699C92.633 21.0788 92.6525 21.0169 92.6851 20.9844C92.7241 20.9518 92.8153 20.9062 92.9585 20.8477C93.2124 20.7435 93.3784 20.6719 93.4566 20.6328C93.4761 20.6263 93.5737 20.571 93.7495 20.4668C93.8081 20.4277 93.9611 20.3366 94.2085 20.1934C94.3582 19.8288 94.4722 19.2721 94.5503 18.5234C94.6284 17.7747 94.6675 16.9902 94.6675 16.1699C94.6675 15.8184 94.6642 15.5612 94.6577 15.3984C94.4038 15.4505 94.2052 15.5026 94.062 15.5547C93.9188 15.6068 93.7853 15.6654 93.6616 15.7305C93.577 15.776 93.5054 15.8086 93.4468 15.8281C93.3882 15.8477 93.3133 15.8574 93.2222 15.8574C93.0073 15.8574 92.8316 15.8086 92.6948 15.7109C92.5646 15.6133 92.4181 15.4668 92.2554 15.2715C92.1577 15.1543 92.1121 15.099 92.1187 15.1055C91.9819 14.9362 91.8485 14.7539 91.7183 14.5586C91.5946 14.3633 91.5327 14.2135 91.5327 14.1094C91.5327 14.0052 91.6434 13.9531 91.8648 13.9531L92.2749 13.9727C92.4832 13.9922 92.6818 14.002 92.8706 14.002C93.5868 14.002 94.1369 13.9922 94.521 13.9727C94.9116 13.9466 95.2111 13.9043 95.4194 13.8457C95.6343 13.7871 95.8231 13.6992 95.9858 13.582C96.1616 13.582 96.3374 13.6439 96.5132 13.7676C96.689 13.8848 96.8322 14.0312 96.9429 14.207C97.0601 14.3763 97.1187 14.5228 97.1187 14.6465C97.1187 14.7897 97.021 14.9134 96.8257 15.0176C96.6174 15.2975 96.4774 15.7142 96.4058 16.2676C96.3407 16.821 96.3081 17.5046 96.3081 18.3184V18.9141L98.9253 17.3223V16.9512C98.9253 16.3652 98.909 15.916 98.8765 15.6035C98.8439 15.2845 98.7853 15.0632 98.7007 14.9395C98.6161 14.8158 98.5086 14.7214 98.3784 14.6562C98.3133 14.6172 98.2645 14.5814 98.2319 14.5488C98.2059 14.5163 98.1961 14.4577 98.2026 14.373C98.2026 14.2819 98.3036 14.1842 98.5054 14.0801C98.7137 13.9759 98.9448 13.8913 99.1987 13.8262C99.4592 13.7546 99.6512 13.722 99.7749 13.7285C99.8856 13.7285 100.022 13.8034 100.185 13.9531C100.348 14.1029 100.491 14.2689 100.615 14.4512C100.738 14.627 100.797 14.7441 100.791 14.8027C100.791 14.8027 100.784 15.1185 100.771 15.75C100.751 17.5273 100.716 19.0508 100.664 20.3203V20.3496C100.891 20.3301 101.204 20.2943 101.601 20.2422C101.731 20.2227 101.904 20.1999 102.119 20.1738L102.109 20.1348V19.6562L102.099 16.2383L102.109 14.5391C102.115 14.3112 102.119 14.0345 102.119 13.709C102.119 13.3509 102.096 13.0677 102.05 12.8594C102.011 12.6445 101.969 12.4785 101.923 12.3613C101.878 12.2376 101.848 12.153 101.835 12.1074C101.595 12.1595 101.22 12.2572 100.712 12.4004C100.576 12.4395 100.452 12.4753 100.341 12.5078C100.237 12.5339 100.166 12.5436 100.126 12.5371C100.022 12.5371 99.8726 12.4329 99.6773 12.2246C99.4885 12.0163 99.3127 11.7884 99.1499 11.541C98.9871 11.2936 98.9058 11.1439 98.9058 11.0918C98.8927 10.877 98.9644 10.7728 99.1206 10.7793C99.3224 10.7793 99.7684 10.7598 100.459 10.7207C100.914 10.6947 101.178 10.6816 101.25 10.6816C101.835 10.6621 102.34 10.6165 102.763 10.5449C103.186 10.4733 103.632 10.3757 104.101 10.252L104.521 10.1445C104.781 10.0859 105.136 9.94271 105.585 9.71484C105.703 9.65625 105.813 9.60417 105.917 9.55859C106.022 9.50651 106.1 9.48047 106.152 9.48047C106.236 9.48698 106.481 9.61393 106.884 9.86133C107.288 10.1022 107.659 10.3594 107.998 10.6328C108.343 10.8997 108.515 11.0951 108.515 11.2188C108.515 11.3945 108.466 11.5443 108.369 11.668C108.271 11.7917 108.154 11.8828 108.017 11.9414C107.887 12 107.776 12.0293 107.685 12.0293C107.607 12.0293 107.496 12.0163 107.353 11.9902C107.216 11.9642 107.115 11.9447 107.05 11.9316C106.712 11.86 106.396 11.8047 106.103 11.7656C105.817 11.7201 105.494 11.6973 105.136 11.6973C105.039 11.6973 104.866 11.7038 104.619 11.7168C104.287 11.7428 104.033 11.7656 103.857 11.7852C104.3 12.0781 104.521 12.3353 104.521 12.5566C104.521 12.6673 104.505 12.8691 104.472 13.1621C104.466 13.2402 104.446 13.4746 104.414 13.8652C104.381 14.2559 104.358 14.6953 104.345 15.1836C104.847 15.099 105.253 14.9785 105.566 14.8223C105.657 14.7832 105.745 14.7311 105.83 14.666C105.914 14.5944 105.966 14.5521 105.986 14.5391C106.09 14.4544 106.175 14.3926 106.24 14.3535C106.305 14.3145 106.37 14.2949 106.435 14.2949C106.546 14.2949 106.751 14.3828 107.05 14.5586C107.35 14.7279 107.62 14.9199 107.861 15.1348C108.108 15.3496 108.232 15.5221 108.232 15.6523C108.232 15.9323 108.19 16.1406 108.105 16.2773C108.027 16.4141 107.945 16.4824 107.861 16.4824C107.288 16.4824 106.614 16.4499 105.839 16.3848C105.546 16.3717 105.175 16.4076 104.726 16.4922L104.316 16.5508L104.326 19.8613L105.234 19.7344C105.553 19.6758 105.817 19.6367 106.025 19.6172C106.188 19.5977 106.347 19.5521 106.503 19.4805C106.666 19.4089 106.852 19.3145 107.06 19.1973C107.249 19.0996 107.392 19.028 107.49 18.9824C107.587 18.9368 107.679 18.9141 107.763 18.9141ZM93.8667 10.0469C93.8211 10.0143 93.756 9.97526 93.6714 9.92969C93.5933 9.8776 93.5282 9.83203 93.4761 9.79297C93.424 9.7474 93.398 9.70508 93.398 9.66602C93.398 9.60091 93.4598 9.56836 93.5835 9.56836C94.1955 9.56836 94.7586 9.63997 95.273 9.7832C95.7873 9.92643 96.1942 10.1315 96.4937 10.3984C96.7996 10.6589 96.9526 10.9681 96.9526 11.3262C96.9526 11.4499 96.9038 11.6289 96.8062 11.8633C96.7085 12.0977 96.5653 12.306 96.3765 12.4883C96.1877 12.6706 95.9631 12.7585 95.7026 12.752C95.4813 12.752 95.3055 12.6999 95.1753 12.5957C95.0451 12.485 94.9442 12.3516 94.8726 12.1953C94.801 12.0326 94.7261 11.8079 94.648 11.5215C94.5503 11.1699 94.4461 10.877 94.3355 10.6426C94.2313 10.4082 94.075 10.2096 93.8667 10.0469Z" fill="white"/>
<path d="M127.489 14.5977C127.684 14.5977 127.98 14.7051 128.377 14.9199C128.774 15.1283 129.132 15.3659 129.451 15.6328C129.777 15.8997 129.94 16.1081 129.94 16.2578C129.94 16.3229 129.93 16.3815 129.91 16.4336C129.891 16.4857 129.855 16.5605 129.803 16.6582C129.79 16.6842 129.744 16.7786 129.666 16.9414C129.588 17.1042 129.5 17.3353 129.403 17.6348C129.24 18.1296 129.123 18.5137 129.051 18.7871C128.979 19.054 128.898 19.4251 128.807 19.9004C128.716 20.3496 128.488 20.7272 128.123 21.0332C127.759 21.3327 127.375 21.5573 126.971 21.707C126.567 21.8503 126.278 21.9219 126.102 21.9219C125.972 21.9219 125.874 21.8763 125.809 21.7852C125.744 21.694 125.662 21.5312 125.565 21.2969C125.409 20.9062 125.22 20.5579 124.998 20.252C124.777 19.9395 124.438 19.6497 123.983 19.3828C123.924 19.3438 123.895 19.2982 123.895 19.2461C123.895 19.194 123.914 19.1484 123.953 19.1094C123.992 19.0703 124.041 19.0508 124.1 19.0508C124.132 19.0508 124.168 19.0605 124.207 19.0801C124.266 19.1061 124.461 19.1484 124.793 19.207C125.132 19.2656 125.405 19.2917 125.614 19.2852C125.952 19.2786 126.226 19.0247 126.434 18.5234C126.649 18.0221 126.798 17.4102 126.883 16.6875C126.89 16.6615 126.893 16.6224 126.893 16.5703C126.893 16.4922 126.867 16.4336 126.815 16.3945C126.769 16.3555 126.672 16.3359 126.522 16.3359C126.437 16.3359 126.369 16.3392 126.317 16.3457C125.946 16.3717 125.119 16.4596 123.836 16.6094C122.729 16.7396 122.056 16.8177 121.815 16.8438L121.932 21.9023C121.932 22.0326 121.86 22.2832 121.717 22.6543C121.574 23.0319 121.401 23.3704 121.2 23.6699C121.004 23.9694 120.815 24.1191 120.633 24.1191C120.496 24.1191 120.334 23.9954 120.145 23.748C119.963 23.5072 119.803 23.2272 119.666 22.9082C119.53 22.5957 119.461 22.3613 119.461 22.2051L119.471 21.4629C119.497 20.1087 119.52 18.6471 119.539 17.0781C118.739 17.1758 117.892 17.3027 117 17.459C116.701 17.5111 116.424 17.5566 116.17 17.5957C115.923 17.6283 115.711 17.6445 115.535 17.6445C115.399 17.6445 115.194 17.5371 114.92 17.3223C114.653 17.1009 114.39 16.8568 114.129 16.5898C113.875 16.3229 113.739 16.1667 113.719 16.1211C113.706 16.082 113.719 16.0299 113.758 15.9648C113.804 15.8932 113.859 15.8346 113.924 15.7891C113.996 15.737 114.054 15.7142 114.1 15.7207C114.927 15.8444 115.545 15.9062 115.955 15.9062C116.593 15.9193 117.791 15.8704 119.549 15.7598V13.2012L118.963 13.2988C118.553 13.3639 118.319 13.3965 118.26 13.3965C118.156 13.3965 117.99 13.3216 117.762 13.1719C117.534 13.0156 117.316 12.8431 117.108 12.6543C116.899 12.459 116.776 12.3223 116.737 12.2441C116.73 12.2311 116.727 12.2116 116.727 12.1855C116.727 12.14 116.74 12.1009 116.766 12.0684C116.798 12.0293 116.838 12.013 116.883 12.0195C117.013 12.0195 117.117 12.0228 117.196 12.0293L117.664 12.0391L117.948 12.0293C118.312 12.0098 118.839 11.9479 119.53 11.8438C119.497 10.3919 119.435 9.61068 119.344 9.5C119.246 9.38281 119.132 9.26888 119.002 9.1582C118.898 9.06706 118.826 8.99219 118.787 8.93359C118.748 8.86849 118.729 8.7806 118.729 8.66992C118.729 8.54622 118.797 8.42578 118.934 8.30859C119.071 8.1849 119.227 8.08398 119.403 8.00586C119.578 7.92773 119.705 7.88867 119.784 7.88867C119.855 7.88867 120.076 7.99935 120.448 8.2207C120.819 8.43555 121.16 8.66341 121.473 8.9043C121.792 9.13867 121.951 9.30794 121.951 9.41211C121.951 9.49674 121.935 9.59115 121.903 9.69531C121.87 9.79948 121.834 9.90365 121.795 10.0078C121.763 10.099 121.73 10.1901 121.698 10.2812C121.672 10.3724 121.659 10.4473 121.659 10.5059L121.678 11.502L123.016 11.2578C123.328 11.1927 123.735 11.056 124.237 10.8477C124.289 10.8281 124.357 10.8021 124.442 10.7695C124.526 10.737 124.582 10.7207 124.608 10.7207C124.764 10.7207 125.018 10.8281 125.369 11.043C125.728 11.2513 126.05 11.4889 126.336 11.7559C126.623 12.0163 126.766 12.2214 126.766 12.3711C126.766 12.4622 126.746 12.5436 126.707 12.6152C126.675 12.6868 126.613 12.7878 126.522 12.918C126.431 13.0482 126.356 13.1621 126.297 13.2598C126.245 13.3509 126.206 13.4583 126.18 13.582L125.946 14.4316C125.894 14.6009 125.815 14.8743 125.711 15.252C126.043 15.1868 126.31 15.112 126.512 15.0273C126.72 14.9427 126.919 14.8483 127.108 14.7441C127.179 14.7051 127.248 14.6725 127.313 14.6465C127.378 14.6139 127.437 14.5977 127.489 14.5977ZM125.819 9.2168C125.448 9.06055 125.262 8.93034 125.262 8.82617C125.262 8.77409 125.304 8.73177 125.389 8.69922C125.48 8.66667 125.578 8.64388 125.682 8.63086C125.845 8.60482 126.047 8.5918 126.287 8.5918C126.964 8.5918 127.612 8.71224 128.231 8.95312C128.849 9.1875 129.266 9.53906 129.481 10.0078C129.539 10.1445 129.569 10.2812 129.569 10.418C129.569 10.6654 129.491 10.9128 129.334 11.1602C129.185 11.4076 128.996 11.6094 128.768 11.7656C128.54 11.9219 128.325 12 128.123 12C127.98 12 127.866 11.9382 127.782 11.8145C127.703 11.6908 127.606 11.4824 127.489 11.1895C127.365 10.8835 127.244 10.623 127.127 10.4082C127.01 10.1868 126.844 9.96875 126.629 9.75391C126.414 9.53255 126.144 9.35352 125.819 9.2168ZM121.727 13.4941L121.785 15.623L122.918 15.5352L123.485 15.4961C123.726 14.6758 123.908 13.9173 124.032 13.2207C124.045 13.1296 124.051 13.0677 124.051 13.0352C124.051 12.918 124.012 12.8301 123.934 12.7715C123.856 12.7129 123.709 12.6836 123.494 12.6836C123.384 12.6836 123.25 12.6934 123.094 12.7129L121.717 12.8789L121.727 13.4941Z" fill="white"/>
</g>
<defs>
<filter id="filter0_d" x="0" y="2" width="158" height="42" filterUnits="userSpaceOnUse" color-interpolation-filters="sRGB">
<feFlood flood-opacity="0" result="BackgroundImageFix"/>
<feColorMatrix in="SourceAlpha" type="matrix" values="0 0 0 0 0 0 0 0 0 0 0 0 0 0 0 0 0 0 127 0"/>
<feOffset dy="6"/>
<feGaussianBlur stdDeviation="3"/>
<feColorMatrix type="matrix" values="0 0 0 0 0 0 0 0 0 0 0 0 0 0 0 0 0 0 0.25 0"/>
<feBlend mode="normal" in2="BackgroundImageFix" result="effect1_dropShadow"/>
<feBlend mode="normal" in="SourceGraphic" in2="effect1_dropShadow" result="shape"/>
</filter>
<filter id="filter1_i" x="28" y="7.88867" width="101.94" height="16.2305" filterUnits="userSpaceOnUse" color-interpolation-filters="sRGB">
<feFlood flood-opacity="0" result="BackgroundImageFix"/>
<feBlend mode="normal" in="SourceGraphic" in2="BackgroundImageFix" result="shape"/>
<feColorMatrix in="SourceAlpha" type="matrix" values="0 0 0 0 0 0 0 0 0 0 0 0 0 0 0 0 0 0 127 0" result="hardAlpha"/>
<feOffset/>
<feGaussianBlur stdDeviation="0.3"/>
<feComposite in2="hardAlpha" operator="arithmetic" k2="-1" k3="1"/>
<feColorMatrix type="matrix" values="0 0 0 0 0.333333 0 0 0 0 0.0736111 0 0 0 0 0.0736111 0 0 0 0.6 0"/>
<feBlend mode="normal" in2="shape" result="effect1_innerShadow"/>
</filter>
<linearGradient id="paint0_linear" x1="79" y1="0" x2="79" y2="30" gradientUnits="userSpaceOnUse">
<stop stop-color="#685149"/>
<stop offset="1" stop-color="#998373"/>
</linearGradient>
</defs>
</svg>
