<svg height="108" viewBox="0 0 438 108" width="438" xmlns="http://www.w3.org/2000/svg" xmlns:xlink="http://www.w3.org/1999/xlink"><linearGradient id="a" x1="50%" x2="50%" y1="0%" y2="100%"><stop offset="0" stop-color="#685149"/><stop offset="1" stop-color="#998373"/></linearGradient><g fill="none" fill-rule="evenodd"><rect fill="#433232" fill-rule="nonzero" height="102" rx="1" width="438" y="6"/><rect fill="url(#a)" fill-rule="nonzero" height="90" rx="2" width="438"/><rect height="87" rx="1.5" stroke="#000" stroke-opacity=".3" width="435" x="1.5" y="1.5"/><g fill="#fff" fill-rule="nonzero" transform="translate(66 21)"><path d="m23.9094 11.7774c-.0195-.6447-.1659-1.1328-.4392-1.4649-.2541-.3516-.6057-.6738-1.0548-.9669-.2343-.1365-.4101-.2637-.5274-.38076-.0975-.11718-.1464-.24414-.1464-.38085 0-.29298.2442-.59571.7323-.90822.5079-.33201.9864-.49803 1.4355-.49803.7032 0 1.5234.20508 2.4609.61524 3.7698-.3711 6.5625-.80079 8.379-1.28907s3.291-.99609 4.4238-1.52343c.4299-.21486.7227-.32229.879-.32229.6444 0 1.8846.7422 3.7206 2.22657 1.0158.83985 1.8165 1.58205 2.4024 2.22654.5859.6249.879 1.1622.879 1.6113 0 .3126-.0684.6252-.2052.9375-.1368.3126-.3516.7326-.6444 1.2597-.5079.9375-.9474 1.8555-1.3185 2.754s-.6738 2.0118-.9081 3.3399c-.0978.5274-.42 1.0938-.9669 1.6992-.5469.5859-1.1718 1.0839-1.875 1.494-.7032.3909-1.3182.5862-1.8456.5862s-.918-.2442-1.1718-.7326c-.2541-.4881-.42-1.0839-.4983-1.7871-2.3826-.039-4.863.1563-7.4412.5859l-.5859.0879c-.2148 1.0353-.5664 1.9044-1.0548 2.6076-.4686.6834-1.0155 1.0254-1.6407 1.0254-.2538 0-.5955-.2736-1.0254-.8205-.4296-.5469-.8106-1.2012-1.1424-1.9629-.3321-.7812-.498-1.494-.498-2.1387 0-.7422-.0879-3.0174-.2637-6.8262zm-6.9726 27.3045c-.039 1.0938-.4002 2.3535-1.0839 3.7794s-1.4745 2.6466-2.373 3.6621c-.8985 1.0353-1.6602 1.5528-2.2851 1.5528-.3516 0-.6642-.1857-.9375-.5568-.2736-.3711-.6348-.9666-1.0842-1.7871-.6054-1.1328-1.1817-2.031-1.7283-2.6952-.5274-.6837-1.2012-1.1229-2.0217-1.3185-.2928-.0585-.4395-.2244-.4395-.498 0-.117.0393-.2244.1173-.3222.0978-.117.2148-.1758.3516-.1758.0585 0 .3222.039.7911.1173.0975.0195.3516.0684.7617.1464.4296.0585.8301.0879 1.2012.0879 1.4061 0 2.1582-.5859 2.2557-1.7577.0783-.801.1368-3.3888.1758-7.7637-1.914 3.0663-3.6036 5.586-5.0682 7.5585-1.4454 1.9728-2.4903 2.9589-3.135 2.9589-.5859 0-1.0644-.3807-1.4355-1.1424-.3711-.7812-.6348-1.6602-.7911-2.6367-.156-.9963-.2244-1.7676-.2049-2.3145.0195-.3126.1269-.5664.3222-.7617.2148-.1953.6348-.4884 1.2597-.879 1.2501-.7812 2.5488-1.6893 3.8967-2.7246 1.3671-1.035 3.0759-2.5293 5.1267-4.4823 0-1.9143-.0096-3.3399-.0291-4.2774-.5469.2538-1.0743.5664-1.5822.9375-.4101.2538-.7323.4395-.9666.5565-.2148.0978-.459.1467-.7326.1467-.3321 0-.9471-.2832-1.8456-.8496s-1.7187-1.1721-2.4609-1.8165c-.7422-.6642-1.1133-1.1427-1.1133-1.4355.0195-.2148.117-.3906.2928-.5274.1758-.1563.4299-.2343.7617-.2343.801 0 1.8948-.2148 3.2814-.6447 1.4061-.4296 2.8419-.9471 4.3065-1.5528l-.0879-5.0682c-.0195-.918-.1659-1.5234-.4392-1.8165-.2541-.3123-.5859-.5274-.9963-.6444-.1953-.0588-.3417-.1173-.4395-.1758-.078-.0585-.117-.1662-.117-.3222 0-.2736.1074-.58605.3222-.93759.2343-.35157.5079-.6543.8202-.90822.3321-.25389.6447-.38085.9375-.38085.5469 0 1.3479.2832 2.4024.8496 1.0743.5664 2.0313 1.20126 2.8713 1.90416.8592.7032 1.2888 1.2405 1.2888 1.6116-.0195.3123-.0879.7812-.2049 1.4061-.0195.1368-.0489.3027-.0879.498-.039.1758-.0783.3906-.1173.6447.3126-.1563.6153-.2346.9084-.2346.3711 0 .918.1368 1.6404.4104.7227.2733 1.3674.5955 1.9338.9666s.8496.6933.8496.9669c-.0195.3126-.1269.7518-.3225 1.3182-.1953.5469-.4491 1.0353-.7617 1.4649-.2928.4299-.6054.6447-.9375.6447-.6249 0-1.1328.0291-1.5234.0879-.3906.0585-1.0155.2343-1.875.5271.0195 1.4844.0489 2.8908.0879 4.2189.039 1.3086.0684 2.4708.0879 3.4863.1368 6.2499.1953 9.9609.1758 11.1327zm21.2988-29.1504c0-.3123-.0489-.5175-.1464-.615-.0978-.0978-.3126-.1467-.6444-.1467-.5079 0-1.4649.1173-2.8713.3516-1.3866.2148-3.1446.5763-5.2734 1.0842-.0195.0585-.0684.1953-.1464.4101-.0585.1953-.0879.4197-.0879.6738 0 .1758.0294.4881.0879.9375l.0879.7617 4.3944-1.0254c.5469-.1173 1.1718-.3321 1.875-.6447.4299-.1953.7227-.2928.879-.2928.1953 0 .4491.0585.7617.1758.3126.0975.6249.2343.9375.4101l.0879-1.0548zm-8.4081 8.262c.9375-.2346 2.1582-.4395 3.6621-.6153 1.5234-.1758 2.9199-.3126 4.1895-.4101.039-.6447.0975-1.3479.1758-2.1096l-.8205-.0291c-.5859-.0393-1.0254-.0588-1.3182-.0588-1.6992 0-3.75.3225-6.1524.9669zm25.8399 22.7634c.078-.0195.2049-.0291.3807-.0291.3906 0 .7131.1074.9669.3222.2538.1953.3807.4296.3807.7032 0 .1953-.078.3711-.2343.5274-.1368.156-.3417.2733-.6153.3513-2.6952.8595-4.824 1.6896-6.3867 2.4903-1.5624.8007-3.0564 1.6701-4.4823 2.6076-.7422.4686-1.2987.7908-1.6698.9666-.3516.1953-.7227.2931-1.1133.2931-1.1526 0-2.6367-.2541-4.4532-.7617-1.8165-.5079-3.8574-1.4064-6.123-2.6955-2.2461-1.2693-4.4532-2.9589-6.6213-5.0682-1.6599 2.3829-3.5448 4.4628-5.6541 6.2403-2.1096 1.7772-4.131 2.8221-6.0645 3.1347l-.5859.0585c-.2148 0-.381-.039-.498-.117-.1173-.0588-.1758-.1368-.1758-.2346 0-.2148.1854-.4686.5565-.7617 2.2656-1.7382 4.17-3.9354 5.7129-6.5916 1.5429-2.6565 2.6952-5.1564 3.4572-7.5.7617-2.3634 1.1913-4.0431 1.2888-5.0391.0198-.1758.0294-.3906.0294-.6447-.078.039-.1758.0783-.2928.1173-.1173.0195-.2346.0585-.3516.1173-.5859.1953-.957.2928-1.1133.2928-.3711 0-.879-.1953-1.5234-.5859-.6252-.3906-1.2405-.8496-1.8459-1.377-.5859-.5469-.9864-.996-1.2012-1.3476-.117-.1758-.1758-.3516-.1758-.5274 0-.2733.0978-.5079.2931-.7032.1953-.2148.3906-.3123.5859-.2928.7812.078 1.7286.117 2.8419.117 1.035 0 2.0508-.0291 3.0468-.0879.996-.0585 1.7481-.1269 2.256-.2049 1.035-.1758 3.0858-.4689 6.1521-.879 3.9648-.5469 7.0215-.996 9.1701-1.3476.5076-.078 1.0254-.2247 1.5528-.4395.5271-.2148 1.1424-.498 1.8456-.8496.9375-.4881 1.5528-.7323 1.8456-.7323.4689 0 1.2696.3222 2.4024.9666 1.1328.6447 2.1681 1.3674 3.1056 2.1681.9375.7812 1.4061 1.3866 1.4061 1.8165 0 .3516-.1854.7422-.5565 1.1718-.3516.4296-.7716.8007-1.26 1.1133-.4686.3123-.8592.4686-1.1718.4686-.1953 0-.6153-.0975-1.2597-.2928-1.1133-.3126-2.2851-.5763-3.5157-.7911-1.2108-.2148-2.7051-.3222-4.4823-.3222-.8595 0-1.9923.0195-3.3984.0585 0 1.8165.0096 3.291.0291 4.4238l.6447-.117c.6639-.1173 1.2303-.2637 1.6992-.4395.4686-.1758.957-.381 1.4649-.6153.2733-.1368.537-.2442.7908-.3222.2541-.0978.4884-.1467.7032-.1467.3321 0 .8595.2052 1.5822.6153.7224.4101 1.3671.879 1.9335 1.4064.5859.5274.879.9765.879 1.3476s-.1173.7227-.3516 1.0548c-.2346.3123-.5178.5664-.8496.7617-.3321.1953-.6252.2928-.879.2928-.3906 0-.84-.0684-1.3476-.2049-.7032-.1953-1.4748-.2931-2.3145-.2931-.4494 0-.8007.0099-1.0548.0294-.8787.078-1.836.2049-2.871.3807l.0294 4.2774c0 .5274-.0489.9375-.1467 1.2306 3.3984.5664 7.0119.8496 10.8399.8496 1.4844 0 2.832-.0393 4.0431-.1173 1.2108-.0978 2.1192-.1953 2.7246-.2931zm-29.5899-12.5097c.8202.6837 1.5234 1.4454 2.1093 2.2851.6054.84.9084 1.5237.9084 2.0508 0 1.2111-.4788 2.754-1.4358 4.629 1.1523.5859 2.4609 1.1133 3.9258 1.5819l.0879-2.4315c.1563-3.4374.2346-6.3966.2346-8.877 0-.117-.0198-.2343-.0588-.3516-1.953.2346-3.8769.6057-5.7714 1.1133z"/><path d="m73.9743 16.9335c-.7422-.039-1.3866-.3027-1.9335-.7908-.5274-.4884-1.1133-1.2012-1.758-2.1387l-.5271-.7032c-.1953-.2538-.2931-.537-.2931-.8496 0-.2343.0684-.42.2052-.5568.1563-.156.3711-.2244.6444-.2049 1.2696.078 2.8125.117 4.629.117 3.5742 0 7.5879-.1659 12.0411-.498-.1368-1.7187-.303-2.91006-.4983-3.57414-.0975-.35154-.2439-.60546-.4392-.7617s-.4299-.2832-.7032-.38085c-.2343-.09768-.4101-.19533-.5274-.29298-.0978-.09765-.1464-.25392-.1464-.46875 0-.25392.3417-.53712 1.0254-.8496.6834-.31251 1.4451-.58596 2.2851-.82032.8592-.23439 1.455-.35157 1.7871-.35157.3126 0 .9276.16602 1.8456.49806.9375.31248 1.7775.71289 2.5197 1.20117.7617.48828 1.1424 1.00584 1.1424 1.55274 0 .5664-.0684 1.25976-.2049 2.08014-.1368.8007-.2148 1.2792-.2346 1.4355 1.9143-.1953 3.7599-.4296 5.5371-.7032 1.2696-.1953 2.295-.4296 3.0762-.7032.801-.29286 1.6506-.63465 2.5488-1.02528.4104-.1953.7422-.34179.9963-.43944.2538-.09765.498-.14649.7323-.14649.2541 0 .8106.25392 1.6701.76173.8787.50781 1.7673 1.12308 2.6658 1.84578 1.3869 1.1133 2.3244 1.9236 2.8125 2.4315.4884.4884.7326.9474.7326 1.377 0 .5274-.1953 1.0644-.5859 1.6113-.3909.5469-.8595 1.0059-1.4064 1.377-.5274.3711-.9765.5664-1.3476.5859-.2931 0-.6153-.0585-.9669-.1758-.3321-.1368-.8397-.3612-1.5234-.6738-1.3086-.6054-2.5587-1.0938-3.75-1.4649-1.1913-.3906-2.6172-.6153-4.2774-.6738-.7812-.039-1.7967-.0585-3.0468-.0585-2.2266 0-4.5216.0585-6.8847.1758-2.3439.0975-4.3554.2733-6.0351.5274l-2.6076.4101c-.8787.1368-2.5584.3906-5.0391.7617-2.4609.3711-3.8475.5565-4.1601.5565zm21.2988-.8787c1.875-.0588 4.0041.2637 6.3867.9666 2.3829.6837 4.4043 1.6017 6.0645 2.754 1.6797 1.1523 2.5197 2.3436 2.5197 3.5742 0 .5079-.2346 1.1523-.7032 1.9335-.4689.7617-1.0839 1.416-1.8459 1.9629-.7419.5469-1.533.8106-2.373.7911-.3711-.0195-.7518-.2343-1.1424-.6444-.3711-.4104-.9279-1.1328-1.6701-2.1681-1.1523-1.6212-2.3046-3.0468-3.4569-4.2774-1.1328-1.2498-2.5098-2.334-4.131-3.252-.2343-.1365-.4197-.2928-.5565-.4686-.1173-.1758-.1758-.3417-.1758-.498 0-.1953.0879-.3516.2637-.4689.1758-.117.4491-.1854.8202-.2049zm-25.3125 13.3593c-.4296 0-.7518-.0489-.9666-.1464-.2151-.1173-.3225-.2541-.3225-.4104 0-.156.0879-.3222.2637-.498s.381-.3027.6153-.3807c1.8945-.6447 3.7989-1.6113 5.7129-2.9004 1.9335-1.2891 3.5253-2.6466 4.7754-4.0722 1.2501-1.4259 1.875-2.6661 1.875-3.7209 0-.3711.1953-.6543.5859-.8496.3906-.2148.7422-.3222 1.0548-.3222.2733 0 .8496.1953 1.7283.5859.879.3711 1.6701.8301 2.3733 1.377.7224.5469 1.0839 1.0938 1.0839 1.6407 0 1.035-1.0548 2.334-3.1641 3.8964s-4.6485 2.9199-7.6173 4.0722c-2.949 1.1523-5.6151 1.7286-7.998 1.7286zm48.9843 13.2129c.3516.0195.6543.1464.9084.3807.2538.2346.3807.4785.3807.7326 0 .1953-.0975.3612-.2928.498-.1758.1368-.4395.2052-.7911.2052-2.2656.0195-4.3164.3612-6.1524 1.0251-1.8162.6642-3.6912 1.5333-5.625 2.6076-.1365.0585-.4491.2148-.9375.4686-.4686.2736-.8592.459-1.1718.5568-.2931.117-.5274.1758-.7032.1758-.6249 0-1.6308-.5274-3.0174-1.5822-1.3869-1.0545-2.9787-2.4804-4.7754-4.2771-1.7775-1.8165-3.5451-3.8088-5.3028-5.9766-2.8515 2.91-6.2013 5.4198-10.0488 7.5291-3.8478 2.0898-8.2422 3.4572-13.1835 4.1016-.0978.0195-.2442.0294-.4395.0294-.2931 0-.5274-.0489-.7032-.1464-.1758-.0783-.2637-.1857-.2637-.3225 0-.1953.1659-.3807.498-.5565 4.5312-2.2656 8.5449-4.7265 12.0411-7.3827 3.4962-2.6565 6.3378-5.2932 8.5254-7.9104-.879-1.2891-1.4355-2.1189-1.6701-2.49-.0975-.1758-.3612-.2637-.7908-.2637-.3126 0-.7131.0585-1.2012.1758-.4884.0975-.9474.2049-1.377.3222-.1563.039-.3516.0879-.5859.1464s-.3906.0879-.4689.0879c-.2148 0-.4491-.1368-.7029-.4101-.2346-.2931-.42-.6249-.5568-.996s-.1854-.6741-.1464-.9084c.078-.4101.7911-.7812 2.1387-1.1133 1.3476-.3516 2.5584-.5859 3.6327-.7029.8205-.0783 2.0118.7224 3.5742 2.4021.0783.1173.2541.2931.5274.5274 1.2891-2.0313 1.9335-3.75 1.9335-5.1561 0-.2931-.0684-.5664-.2049-.8205-.1173-.2538-.2736-.5274-.4689-.8202-.1953-.2538-.2928-.4395-.2928-.5568 0-.2733.2832-.6054.8496-.996.5664-.4101 1.0254-.6153 1.377-.6153.1365 0 .3906.1368.7617.4104.3711.2733.7518.576 1.1424.9081.6837.5469 1.0839.8592 1.2012.9375.918.6444 1.5624 1.1718 1.9335 1.5819.3711.3906.5568.8595.5568 1.4064 0 .2343-.1659.7323-.498 1.494-.3126.7617-.7911 1.6896-1.4355 2.7834-.6447 1.0935-1.416 2.2362-2.3145 3.4275 2.9295 2.4219 5.5467 4.2483 7.8516 5.4786 1.6797.8985 4.2285 1.6701 7.6464 2.3145 3.4374.6444 6.3183 1.0743 8.6424 1.2891z"/><path d="m175.4259 21.2988c.4101 0 1.1523.3615 2.2266 1.0839 1.0743.7227 2.0802 1.5039 3.0177 2.3439.9375.8202 1.4061 1.3671 1.4061 1.6407 0 .2148-.2733.5469-.8202.996-.5274.4296-1.1133.8301-1.758 1.2012-.6444.3516-1.1133.5274-1.4061.5274-.1758 0-.4005-.0393-.6738-.1173-.2541-.078-.5274-.1758-.8205-.2931-.957-.3513-1.8846-.6249-2.7831-.8202s-1.953-.2637-3.1641-.2049c-1.8165.0585-3.9552.1854-6.4161.3807l-.9666.0585c0 1.0548.117 3.5157.3516 7.383.2343 3.6717.3513 5.9178.3513 6.7383 0 .7617-.3711 1.8357-1.113 3.2226-.7422 1.3866-1.5918 2.6172-2.5491 3.6915-.957 1.074-1.7382 1.6113-2.3436 1.6113-.3126 0-.5763-.1857-.7911-.5568-.2148-.3516-.5079-.9765-.8787-1.875-.3711-.957-.7326-1.7871-1.0842-2.4903-.3321-.6834-.8007-1.3086-1.4061-1.875-.5859-.5859-1.3086-.9765-2.1681-1.1718-.1758-.039-.3222-.117-.4395-.2343-.117-.1173-.1758-.2343-.1758-.3516 0-.1368.0684-.2442.2052-.3222.1368-.0978.3516-.1467.6444-.1467.0783 0 .342.0393.7911.1173.4494.0783.9279.1173 1.4355.1173 1.4649 0 2.295-.459 2.4903-1.377.2736-1.1718.4101-3.9648.4101-8.379 0-1.5819-.0096-2.7441-.0291-3.4863-3.4182.4296-6.2502.8985-8.4963 1.4064.6252.8787 1.1916 1.914 1.6992 3.1053.5079 1.1718.7617 2.3925.7617 3.6621 0 1.1718-.2538 2.2071-.7617 3.1056-.5076.8787-1.0935 1.5624-1.7577 2.0508-.6642.4881-1.2108.7323-1.6407.7323-.4881 0-.918-.3906-1.2891-1.1718-.3516-.8007-.5271-1.7286-.5271-2.7831 0-.4689.3222-1.5432.9666-3.2229.4494-1.2498.7911-2.2851 1.0254-3.1053.2541-.84.3615-1.5333.3222-2.0802l-.8202.1758c-.5859.1563-.9864.2343-1.2012.2343-.3516 0-.8007-.1758-1.3476-.5271-.5469-.3516-1.1133-.7815-1.6992-1.2891.3516 8.3982.5274 13.203.5274 14.4141 0 .7422-.2736 1.6893-.8205 2.8416-.5469 1.1718-1.1718 2.2071-1.875 3.1056-.7029.918-1.2498 1.377-1.6404 1.377-.3909 0-.7716-.3027-1.1427-.9084-.3516-.6054-.6348-1.4256-.8496-2.4609-.2148-1.035-.3222-2.1678-.3222-3.3984l.0291-1.875c.1563-5.2149.2346-11.7675.2346-19.6581-3.0861 2.9883-6.1914 5.4588-9.3165 7.4121-.2538.1758-.498.2637-.7323.2637-.3321 0-.4983-.1563-.4983-.4689 0-.2538.1368-.5469.4104-.879 3.2421-3.8865 5.7129-7.2069 7.4121-9.9609 1.7187-2.7537 2.832-4.8729 3.3396-6.3573.5274-1.4844.7911-2.5878.7911-3.3105 0-.35163-.1659-.71298-.498-1.08405-.0978-.11721-.1953-.23439-.2931-.35157-.078-.13671-.117-.27345-.117-.41016 0-.15624.2148-.3711.6444-.64452.4296-.29298.8985-.55665 1.4064-.79104.5274-.23436.8886-.35154 1.0839-.35154.3126 0 .879.3711 1.6992 1.11327.8202.72267 1.5723 1.52343 2.256 2.40231.7029.8595 1.0545 1.4649 1.0545 1.8165 0 .5079-.2832 1.2597-.8496 2.2557-.5664.9768-1.3476 2.0997-2.3436 3.3693.0195 1.5429.0975 4.1016.2343 7.6758l.0879 2.6658c.8007-.0195 2.7831-.1365 5.9472-.3513 2.5197-.1758 5.4396-.4983 8.7597-.9669l-.1758-1.7871c-.156-1.1133-.4101-1.9824-.7617-2.6076-.1365.0588-.2832.1173-.4395.1758-.156.0393-.3222.0879-.498.1467-.2733.6639-.7029 1.3182-1.2891 1.9629-.5664.6444-1.0545.9666-1.4646.9666-.3321 0-.7422-.3318-1.2306-.996-.4686-.6642-.8886-1.4259-1.2597-2.2851-.3516-.8595-.5373-1.5234-.5568-1.9923-.1365-2.3046-.3612-4.0137-.6738-5.127-.3123-1.1328-.6639-2.0508-1.0545-2.7537-.1563-.2736-.2346-.4785-.2346-.6153 0-.2538.0978-.4785.2931-.6738.2148-.1953.4785-.2931.7911-.2931.2148 0 .8007.2343 1.7577.7032.9765.4689 1.8945.9864 2.754 1.5528.8787.5664 1.3866 1.0254 1.5234 1.377.2343.5664.4395 1.9431.6153 4.1307 1.6209-.2733 3.7011-.7227 6.24-1.3476.6447-.1563 1.2306-.3321 1.758-.5274.0975-.3516.3516-1.1133.7617-2.2851.4296-1.2696.6543-1.9629.6738-2.0802.039-.1953.0585-.3222.0585-.3807 0-.1563-.0486-.2541-.1464-.2931-.078-.039-.2343-.0585-.4686-.0585-1.836.078-3.2814.2052-4.3362.381-1.035.1755-1.9335.3708-2.6952.5859-.5079.1365-.8496.2049-1.0254.2049-.4884 0-1.2207-.3222-2.1972-.9666-.9765-.6447-1.7286-1.2306-2.256-1.75794-.1563-.15625-.2343-.32226-.2343-.49806 0-.21483.1173-.32226.3516-.32226 1.836 0 3.5937-.18555 5.2734-.55665 1.6797-.3906 3.3009-.83982 4.8633-1.34763.8985-.31251 1.6113-.61524 2.1387-.90822s1.035-.61524 1.5234-.96678c.2538-.19533.459-.33204.6153-.41016.1563-.09768.3222-.14649.498-.14649.1953 0 .4785.16602.8496.49803.3711.33204.879.83985 1.5234 1.52346 1.1133 1.11327 1.6701 1.66992 1.6701 1.66992.4101.39063.957.88866 1.6404 1.49412 1.0743.99606 1.8261 1.72866 2.256 2.19726.4491.4491.6738.8007.6738 1.0548 0 .2733-.1269.5955-.381.9666-.2538.3516-.7029.918-1.3476 1.6992-1.2303 1.4454-2.1972 2.715-2.9004 3.8088-.3906.6054-.8985 1.1034-1.5234 1.494-.6054.3906-1.1718.5859-1.6992.5859-.2538 0-.6642-.1269-1.2306-.3807-.5664-.2736-1.1034-.6054-1.6113-.9963-.8592.0588-1.953.2052-3.2811.4395 1.5819.879 2.373 1.5723 2.373 2.0802 0 1.035-.0099 1.9044-.0294 2.6073 1.5822-.2928 3.2229-.6054 4.9221-.9375 1.8357-.3711 3.6621-.9276 5.4783-1.6698.3711-.1563.7032-.2832.9963-.381.2928-.0975.537-.1464.7323-.1464zm-6.7677 8.4375c.762.3321 1.8654.8985 3.3108 1.6992 1.4451.8007 2.8125 1.7676 4.1013 2.9004 1.3086 1.1328 1.9629 2.2365 1.9629 3.3105 0 1.1328-.2832 2.1876-.8496 3.1641-.5664.957-1.2693 1.7286-2.1093 2.3145-.8202.5664-1.5819.8496-2.2851.8496-.4101 0-.7812-.4686-1.1133-1.4061-.3126-.9573-.7227-2.4612-1.2306-4.512-.4686-1.953-.8886-3.5154-1.2597-4.6875-.3711-1.1718-.7908-2.0604-1.2597-2.6658-.2148-.2736-.3222-.5079-.3222-.7032 0-.2343.1758-.3516.5274-.3516.1758 0 .3516.0294.5271.0879z"/><path d="m239.289 35.7423c.528 0 1.524.4296 2.988 1.2891 1.467.8397 2.793 1.7871 3.984 2.8416 1.212 1.0353 1.818 1.8555 1.818 2.4609 0 .4101-.204.8985-.615 1.4649-.39.5469-.861 1.0158-1.407 1.4064-.528.4101-.975.615-1.347.615-.177 0-.537-.0879-1.083-.2637-.549-.1755-.939-.3027-1.173-.3807-1.779-.5859-3.429-1.0743-4.953-1.4649-1.503-.3906-2.958-.5958-4.365-.6153-.624-.0195-1.521-.0291-2.694-.0291-5.175 0-9.18.2733-12.012.8202-2.8122.5274-5.1267 1.1427-6.9432 1.8456-.5859.2151-.957.3225-1.1133.3225-.5664-.0195-1.2792-.3225-2.1387-.9084-.8592-.5859-1.533-1.2498-2.0214-1.992-.1563-.2346-.2343-.4785-.2343-.7326 0-.3123.1074-.5955.3222-.8496.2343-.2538.5469-.537.9375-.8496.2343-.1758.4101-.3222.5274-.4395.117-.1365.1758-.2538.1758-.3516 0-.2148.039-.3222.117-.3222.0783 0 .2442.1269.4983.381.3123.2733.498.42.5565.4395.2931.0975.8595.1464 1.6992.1464.6249 0 1.1232-.0099 1.4943-.0294.2538-2.4414.4002-4.9512.4392-7.5291-2.6172 2.6172-4.7166 4.8729-6.2988 6.7674-1.5624 1.875-3.0858 3.7794-4.5702 5.7129-.996 1.2891-1.7091 2.1387-2.1387 2.5488-.4101.4101-.8691.6153-1.377.6153l-.2928-.0294c-.2931-.039-.5763-.2148-.8496-.5271-.2541-.3126-.5667-.762-.9375-1.3479-.2736-.4686-.5568-.8886-.8496-1.2597-.6837-.8397-1.1331-1.4256-1.3479-1.7577-.1953-.3516-.2637-.7617-.2049-1.2306.0195-.2733.078-.459.1758-.5565.117-.0978.3906-.2346.8202-.4101.7617-.3126 1.2597-.5274 1.4943-.6447.0585-.0195.3513-.1854.8787-.498.1758-.1173.6348-.3906 1.377-.8202.4491-1.0938.7911-2.7639 1.0254-5.01s.3516-4.5996.3516-7.0605c0-1.0545-.0099-1.8261-.0294-2.3145-.7617.1563-1.3575.3126-1.7871.4689s-.8301.3321-1.2012.5274c-.2538.1365-.4686.2343-.6444.2928-.1758.0588-.4005.0879-.6738.0879-.6447 0-1.1718-.1464-1.5822-.4395-.3906-.2928-.8301-.7323-1.3182-1.3182-.2931-.3516-.4296-.5175-.4101-.498-.4104-.5079-.8106-1.0548-1.2012-1.6407-.3711-.5859-.5568-1.0353-.5568-1.3476 0-.3126.3321-.4689.9963-.4689l1.2303.0588c.6249.0585 1.2207.0879 1.7871.0879 2.1486 0 3.7989-.0294 4.9512-.0879 1.1718-.0783 2.0703-.2052 2.6952-.381.6447-.1758 1.2111-.4395 1.6992-.7911.5274 0 1.0548.1857 1.5822.5568.5274.3516.957.7908 1.2891 1.3182.3516.5079.5274.9474.5274 1.3185 0 .4296-.2931.8007-.879 1.1133-.6249.8397-1.0449 2.0898-1.2597 3.75-.1953 1.6602-.2931 3.711-.2931 6.1524v1.7871l7.8516-4.7754v-1.1133c0-1.758-.0489-3.1056-.1464-4.0431-.0978-.957-.2736-1.6209-.5274-1.992s-.5763-.6543-.9669-.8499c-.1953-.117-.3417-.2244-.4395-.3222-.078-.0975-.1074-.2733-.0879-.5274 0-.2733.303-.5664.9084-.8787.6249-.3126 1.3182-.5664 2.0799-.7617.7815-.2148 1.3575-.3126 1.7286-.2931.3321 0 .7413.2247 1.2303.6738.489.4494.918.9474 1.29 1.4943.369.5274.546.8787.528 1.0545 0 0-.021.9474-.06 2.8419-.06 5.3319-.165 9.9024-.321 13.7109v.0879c.681-.0585 1.62-.1659 2.811-.3222.39-.0585.909-.1269 1.554-.2052l-.03-.117v-1.4358l-.03-10.2537.03-5.0976c.018-.6837.03-1.5138.03-2.4903 0-1.0743-.069-1.9239-.207-2.5488-.117-.6447-.243-1.1427-.381-1.4943-.135-.3711-.225-.6249-.264-.7617-.72.1563-1.845.4494-3.369.879-.408.1173-.78.2247-1.113.3222-.312.0783-.525.1074-.645.0879-.312 0-.7602-.3126-1.3461-.9375-.5667-.6249-1.0938-1.3086-1.5822-2.0508-.4881-.7422-.7323-1.1913-.7323-1.3476-.0393-.6444.1758-.957.6444-.9375.6054 0 1.9434-.0585 4.0152-.1758 1.365-.078 2.157-.1173 2.373-.1173 1.755-.0585 3.27-.1953 4.539-.4101s2.607-.5076 4.014-.8787l1.26-.3225c.78-.1758 1.845-.60537 3.192-1.28898.354-.17577.684-.33201.996-.46875.315-.15624.549-.23436.705-.23436.252.01953.987.40038 2.196 1.14258 1.212.72261 2.325 1.49421 3.342 2.31441 1.035.8007 1.551 1.3869 1.551 1.758 0 .5271-.147.9765-.438 1.3476-.294.3711-.645.6444-1.056.8202-.39.1758-.723.2637-.996.2637-.234 0-.567-.039-.996-.1173-.411-.078-.714-.1365-.909-.1758-1.014-.2148-1.962-.3807-2.841-.498-.858-.1365-1.827-.2049-2.901-.2049-.291 0-.81.0195-1.551.0585-.996.078-1.758.1464-2.286.2052 1.329.8787 1.992 1.6503 1.992 2.3142 0 .3321-.048.9375-.147 1.8165-.018.2343-.078.9375-.174 2.1093-.099 1.1721-.168 2.4903-.207 3.9552 1.506-.2538 2.724-.6153 3.663-1.0839.273-.1173.537-.2736.792-.4689.252-.2148.408-.3417.468-.3807.312-.2541.567-.4395.762-.5568.195-.117.39-.1758.585-.1758.333 0 .948.2637 1.845.7911.9.5079 1.71 1.0839 2.433 1.7286.741.6444 1.113 1.1619 1.113 1.5525 0 .84-.126 1.4649-.381 1.875-.234.4104-.48.6153-.732.6153-1.719 0-3.741-.0975-6.066-.2928-.879-.0393-1.992.0684-3.339.3222l-1.23.1758.03 9.9315 2.724-.3807c.957-.1758 1.749-.2931 2.373-.3516.489-.0585.966-.1953 1.434-.4101.489-.2148 1.047-.498 1.671-.8496.567-.2931.996-.5079 1.29-.6447.291-.1368.567-.2049.819-.2049zm-41.6889-26.6016c-.1368-.0978-.3321-.21492-.5859-.35163-.2343-.15627-.4296-.29298-.5859-.41016-.1563-.13671-.2343-.26367-.2343-.38085 0-.19533.1854-.29298.5565-.29298 1.836 0 3.5253.21483 5.0685.64452 1.5429.42969 2.7636 1.0449 3.6621 1.8456.918.7815 1.3767 1.7091 1.3767 2.7834 0 .3711-.1464.9081-.4392 1.6113-.2931.7032-.7227 1.3281-1.2891 1.875s-1.2402.8106-2.0217.7911c-.6639 0-1.1913-.1563-1.5819-.4689-.3906-.3321-.6933-.7323-.9081-1.2012-.2151-.4881-.4395-1.1622-.6738-2.0214-.2931-1.0548-.6057-1.9335-.9375-2.6367-.3126-.7032-.7815-1.299-1.4064-1.7871z"/><path d="m298.467 22.7931c.585 0 1.473.3222 2.664.9666 1.191.6252 2.265 1.338 3.222 2.1387.978.8007 1.467 1.4259 1.467 1.875 0 .1953-.03.3711-.09.5274-.057.1563-.165.3807-.321.6738-.039.078-.177.3612-.411.8496s-.498 1.1817-.789 2.0802c-.489 1.4844-.84 2.6367-1.056 3.4569-.216.8007-.459 1.914-.732 3.3399-.273 1.3476-.957 2.4804-2.052 3.3984-1.092.8985-2.244 1.5723-3.456 2.0214-1.212.4299-2.079.6447-2.607.6447-.39 0-.684-.1368-.879-.4101-.195-.2736-.441-.762-.732-1.4649-.468-1.1721-1.035-2.217-1.701-3.1347-.663-.9375-1.68-1.8069-3.045-2.6076-.177-.117-.264-.2538-.264-.4101s.057-.2931.174-.4101c.117-.1173.264-.1758.441-.1758.096 0 .204.0291.321.0879.177.078.762.2049 1.758.3807 1.017.1758 1.836.2541 2.463.2346 1.014-.0198 1.836-.7815 2.46-2.2854.645-1.5039 1.092-3.3396 1.347-5.5077.021-.078.03-.1953.03-.3516 0-.2343-.078-.4101-.234-.5274-.138-.117-.429-.1758-.879-.1758-.255 0-.459.0099-.615.0294-1.113.078-3.594.3417-7.443.7911-3.321.3906-5.34.6249-6.063.7032l.351 15.1755c0 .3909-.216 1.1427-.645 2.256-.429 1.1328-.948 2.1483-1.551 3.0468-.588.8985-1.155 1.3476-1.701 1.3476-.411 0-.897-.3711-1.464-1.1133-.546-.7224-1.026-1.5624-1.437-2.5194-.408-.9375-.615-1.6407-.615-2.1093l.03-2.2266c.078-4.0626.147-8.4474.204-13.1544-2.4.2931-4.941.6738-7.617 1.1427-.897.1563-1.728.2928-2.49.4101-.741.0978-1.377.1464-1.905.1464-.408 0-1.023-.3222-1.845-.9666-.801-.6642-1.59-1.3965-2.373-2.1975-.762-.8007-1.17-1.2693-1.23-1.4061-.039-.1173 0-.2736.117-.4689.138-.2148.303-.3906.498-.5271.216-.1563.39-.2247.528-.2052 2.481.3711 4.335.5565 5.565.5565 1.914.0393 5.508-.1074 10.782-.4392v-7.6758l-1.758.2928c-1.23.1953-1.932.2931-2.109.2931-.312 0-.81-.2247-1.494-.6738-.684-.4689-1.338-.9864-1.962-1.5528-.627-.5859-.996-.996-1.113-1.2306-.021-.039-.03-.0975-.03-.1758 0-.1365.039-.2538.117-.3513.096-.1173.216-.1662.351-.1467.39 0 .702.0099.939.0294l1.404.0294.852-.0294c1.092-.0585 2.676-.2442 4.746-.5565-.099-4.3557-.285-6.69936-.558-7.0314-.294-.35157-.636-.69336-1.026-1.0254-.312-.27342-.528-.49803-.645-.67383-.117-.1953-.174-.45897-.174-.79101 0-.3711.204-.73242.615-1.08399.411-.37107.879-.67383 1.407-.90819.525-.23439.906-.35157 1.143-.35157.213 0 .876.33204 1.992.99609 1.113.64455 2.136 1.32813 3.075 2.0508.957.70311 1.434 1.21092 1.434 1.52343 0 .25389-.048.53712-.144.8496-.099.31251-.207.62502-.324.93747-.096.2736-.195.5469-.291.8202-.078.2736-.117.4983-.117.6741l.057 2.9883 4.014-.7326c.936-.1953 2.157-.6054 3.663-1.2303.156-.0588.36-.1368.615-.2346.252-.0975.42-.1464.498-.1464.468 0 1.23.3222 2.283.9669 1.077.6249 2.043 1.3377 2.901 2.1387.861.7812 1.29 1.3965 1.29 1.8456 0 .2733-.06.5175-.177.7323-.096.2148-.282.5178-.555.9084s-.498.7323-.675 1.0254c-.156.2733-.273.5955-.351.9666l-.702 2.5488c-.156.5079-.393 1.3281-.705 2.4612.996-.1956 1.797-.42 2.403-.6741.624-.2538 1.221-.537 1.788-.8496.213-.117.42-.2148.615-.2928.195-.0978.372-.1464.528-.1464zm-5.01-16.1427c-1.113-.46875-1.671-.85938-1.671-1.17189 0-.15624.126-.2832.381-.38085.273-.09765.567-.16602.879-.20508.489-.07812 1.095-.11718 1.815-.11718 2.034 0 3.975.36132 5.832 1.08396 1.854.70314 3.105 1.75782 3.75 3.16404.174.4101.264.8202.264 1.2306 0 .7422-.234 1.4844-.705 2.2266-.447.7422-1.014 1.3476-1.698 1.8162-.684.4689-1.329.7032-1.935.7032-.429 0-.771-.1854-1.023-.5565-.237-.3711-.528-.9963-.879-1.875-.372-.918-.735-1.6995-1.086-2.3439-.351-.6642-.849-1.31835-1.494-1.96287-.645-.66408-1.455-1.20117-2.43-1.61133zm-12.276 12.8319.174 6.3867 3.399-.2634 1.701-.1173c.723-2.4609 1.269-4.7364 1.641-6.8262.039-.2733.057-.459.057-.5565 0-.3516-.117-.6153-.351-.7911s-.675-.2637-1.32-.2637c-.33 0-.732.0294-1.2.0879l-4.131.498z"/></g></g></svg>