<svg width="375" height="210" viewBox="0 0 375 210" fill="none" xmlns="http://www.w3.org/2000/svg">
<g filter="url(#filter0_dd)">
<path d="M0 112.56H375V207.507C375 208.612 374.105 209.507 373 209.507H1.99999C0.89542 209.507 0 208.612 0 207.507V112.56Z" fill="url(#paint0_linear)"/>
<path d="M68.4808 40.9449C69.3092 40.9449 69.9808 41.6164 69.9808 42.4449V72.3199C69.9808 73.7006 71.1001 74.8199 72.4808 74.8199H298.913C300.294 74.8199 301.413 73.7006 301.413 72.3199V42.4449C301.413 41.6164 302.085 40.9449 302.913 40.9449H354.156C355.581 40.9449 356.823 41.9148 357.169 43.2974L374.36 112.06H0.640389L17.8311 43.2974C18.1768 41.9148 19.419 40.9449 20.8441 40.9449H68.4808Z" fill="#FB584F" stroke="url(#paint1_linear)"/>
</g>
<path d="M16.5 112.56H357.245V184.507H273.059V196.507C273.059 198.164 271.716 199.507 270.059 199.507H186.873H102.686C101.029 199.507 99.6863 198.164 99.6863 196.507V184.507H16.5V112.56Z" fill="#4E3A3A"/>
<g filter="url(#filter1_i)">
<path d="M20.2261 117.56C20.2261 117.008 20.6738 116.56 21.2261 116.56H351.976C352.528 116.56 352.976 117.008 352.976 117.56V179.51C352.976 180.062 352.528 180.51 351.976 180.51H270.789C270.236 180.51 269.789 180.958 269.789 181.51V194.51C269.789 195.062 269.341 195.51 268.789 195.51H186.601H105.007C104.455 195.51 104.007 195.062 104.007 194.51V181.51C104.007 180.958 103.56 180.51 103.007 180.51H21.2261C20.6738 180.51 20.2261 180.062 20.2261 179.51V117.56Z" fill="#EDECDA"/>
</g>
<g filter="url(#filter2_d)">
<path d="M39.6636 47.4593H110.822C111.427 47.4593 111.995 47.7256 112.401 48.1737C116.267 52.4341 138.33 74.3054 183.894 74.3054C229.458 74.3054 251.522 52.4341 255.387 48.1737C255.794 47.7256 256.362 47.4593 256.967 47.4593H328.125V94.5314H39.6636V47.4593Z" fill="#674843"/>
</g>
<path d="M40 49.5002H110.998C111.629 49.5002 112.217 49.789 112.623 50.2712C116.489 54.8605 138.517 78.3802 184 78.3802C229.483 78.3802 251.511 54.8605 255.377 50.2712C255.783 49.789 256.371 49.5002 257.002 49.5002H328V87.5002H40V49.5002Z" fill="url(#paint2_linear)"/>
<path d="M124.683 13.3596L162.613 72.568" stroke="black" stroke-opacity="0.1" stroke-width="3"/>
<path fill-rule="evenodd" clip-rule="evenodd" d="M123.044 13.5049C123.08 12.6772 123.78 12.0351 124.607 12.0706L141.596 12.8007C143.42 12.8791 145.015 14.0513 145.635 15.7681L167.733 76.96C168.015 77.7391 167.611 78.5989 166.832 78.8803C166.053 79.1616 165.193 78.7581 164.912 77.9789L142.814 16.7871C142.607 16.2148 142.075 15.8241 141.467 15.7979L124.479 15.0679C123.651 15.0323 123.009 14.3325 123.044 13.5049Z" fill="#675048" stroke="url(#paint3_linear)" stroke-linecap="round" stroke-linejoin="round"/>
<g filter="url(#filter3_d)">
<rect x="52.2837" y="129.983" width="32.4519" height="10.8173" rx="1" fill="#433232"/>
</g>
<rect x="52.2837" y="128.18" width="32.4519" height="10.8173" rx="1" fill="url(#paint4_linear)"/>
<rect x="52.7837" y="128.68" width="31.4519" height="9.81731" rx="0.5" stroke="black" stroke-opacity="0.3"/>
<g filter="url(#filter4_d)">
<rect x="91.947" y="129.983" width="32.4519" height="10.8173" rx="1" fill="#433232"/>
</g>
<rect x="91.947" y="128.18" width="32.4519" height="10.8173" rx="1" fill="url(#paint5_linear)"/>
<rect x="92.447" y="128.68" width="31.4519" height="9.81731" rx="0.5" stroke="black" stroke-opacity="0.3"/>
<g filter="url(#filter5_d)">
<rect x="132" y="129.983" width="32.4519" height="10.8173" rx="1" fill="#433232"/>
</g>
<rect x="132" y="128.18" width="32.4519" height="10.8173" rx="1" fill="url(#paint6_linear)"/>
<rect x="132.5" y="128.68" width="31.4519" height="9.81731" rx="0.5" stroke="black" stroke-opacity="0.3"/>
<g filter="url(#filter6_d)">
<rect x="172.053" y="129.983" width="32.4519" height="10.8173" rx="1" fill="#433232"/>
</g>
<rect x="172.053" y="128.18" width="32.4519" height="10.8173" rx="1" fill="url(#paint7_linear)"/>
<rect x="172.553" y="128.68" width="31.4519" height="9.81731" rx="0.5" stroke="black" stroke-opacity="0.3"/>
<g filter="url(#filter7_d)">
<rect x="212.106" y="129.983" width="32.4519" height="10.8173" rx="1" fill="#433232"/>
</g>
<rect x="212.106" y="128.18" width="32.4519" height="10.8173" rx="1" fill="url(#paint8_linear)"/>
<rect x="212.606" y="128.68" width="31.4519" height="9.81731" rx="0.5" stroke="black" stroke-opacity="0.3"/>
<g filter="url(#filter8_d)">
<rect x="252.159" y="129.983" width="32.4519" height="10.8173" rx="1" fill="#433232"/>
</g>
<rect x="252.159" y="128.18" width="32.4519" height="10.8173" rx="1" fill="url(#paint9_linear)"/>
<rect x="252.659" y="128.68" width="31.4519" height="9.81731" rx="0.5" stroke="black" stroke-opacity="0.3"/>
<g filter="url(#filter9_d)">
<rect x="292.212" y="129.983" width="32.4519" height="10.8173" rx="1" fill="#433232"/>
</g>
<rect x="292.212" y="128.18" width="32.4519" height="10.8173" rx="1" fill="url(#paint10_linear)"/>
<rect x="292.712" y="128.68" width="31.4519" height="9.81731" rx="0.5" stroke="black" stroke-opacity="0.3"/>
<g filter="url(#filter10_d)">
<rect x="31" y="152.983" width="32.4519" height="10.8173" rx="1" fill="#433232"/>
</g>
<rect x="31" y="151.18" width="32.4519" height="10.8173" rx="1" fill="url(#paint11_linear)"/>
<rect x="31.5" y="151.68" width="31.4519" height="9.81731" rx="0.5" stroke="black" stroke-opacity="0.3"/>
<g filter="url(#filter11_d)">
<rect x="70.6633" y="152.983" width="32.4519" height="10.8173" rx="1" fill="#433232"/>
</g>
<rect x="70.6633" y="151.18" width="32.4519" height="10.8173" rx="1" fill="url(#paint12_linear)"/>
<rect x="71.1633" y="151.68" width="31.4519" height="9.81731" rx="0.5" stroke="black" stroke-opacity="0.3"/>
<g filter="url(#filter12_d)">
<rect x="270.928" y="152.983" width="32.4519" height="10.8173" rx="1" fill="#433232"/>
</g>
<rect x="270.928" y="151.18" width="32.4519" height="10.8173" rx="1" fill="url(#paint13_linear)"/>
<rect x="271.428" y="151.68" width="31.4519" height="9.81731" rx="0.5" stroke="black" stroke-opacity="0.3"/>
<g filter="url(#filter13_d)">
<rect x="310.716" y="152.983" width="32.4519" height="10.8173" rx="1" fill="#433232"/>
</g>
<rect x="310.716" y="151.18" width="32.4519" height="10.8173" rx="1" fill="url(#paint14_linear)"/>
<rect x="311.216" y="151.68" width="31.4519" height="9.81731" rx="0.5" stroke="black" stroke-opacity="0.3"/>
<rect x="68" y="49.5002" width="11" height="34" fill="black" fill-opacity="0.2"/>
<rect x="68" y="49.5002" width="5" height="34" fill="black" fill-opacity="0.1"/>
<rect x="292" y="49.5002" width="11" height="34" fill="black" fill-opacity="0.2"/>
<rect x="298" y="49.5002" width="5" height="34" fill="black" fill-opacity="0.1"/>
<g filter="url(#filter14_f)">
<rect x="50" y="72.5002" width="271" height="5" fill="black" fill-opacity="0.3"/>
</g>
<g filter="url(#filter15_d)">
<path d="M241.375 87.3198H126.414C126.414 74.3757 156.015 61.8823 183.894 61.8823C211.774 61.8823 241.375 74.3757 241.375 87.3198Z" fill="#674843"/>
</g>
<path d="M234.375 87.3199H133.414C133.414 74.3757 156.015 63.8824 183.894 63.8824C211.774 63.8824 234.375 74.3757 234.375 87.3199Z" fill="url(#paint15_linear)"/>
<path d="M68.4808 40.9449C69.3092 40.9449 69.9808 41.6164 69.9808 42.4449V72.3199C69.9808 73.7006 71.1001 74.8199 72.4808 74.8199H298.913C300.294 74.8199 301.413 73.7006 301.413 72.3199V42.4449C301.413 41.6164 302.085 40.9449 302.913 40.9449H354.156C355.581 40.9449 356.823 41.9148 357.169 43.2974L374.36 112.06H0.640389L17.8311 43.2974C18.1768 41.9148 19.419 40.9449 20.8441 40.9449H68.4808Z" fill="#FB584F" stroke="url(#paint16_linear)"/>
<path d="M23.0161 88.5314H350.181L356.971 112.56H16.2261L23.0161 88.5314Z" fill="url(#paint17_linear)"/>
<rect x="33" y="97.5001" width="40" height="8" rx="1" fill="#ECE0CF"/>
<rect x="33" y="96.5001" width="40" height="8" rx="1" fill="#EDECDA"/>
<rect x="357" y="112.5" width="18" height="1" fill="url(#paint18_linear)"/>
<rect x="17" y="112.5" width="340" height="1" fill="black"/>
<rect opacity="0.2" x="16" y="111.5" width="341" height="1" fill="url(#paint19_linear)"/>
<rect y="112.5" width="16" height="1" fill="url(#paint20_linear)"/>
<rect opacity="0.2" x="16" y="86.5001" width="341" height="1" fill="url(#paint21_linear)"/>
<rect opacity="0.6" x="126" y="86.5001" width="121" height="1" fill="url(#paint22_linear)"/>
<rect x="173" y="86.5001" width="11" height="1" fill="url(#paint23_linear)"/>
<rect opacity="0.2" x="16" y="208.5" width="341" height="1" fill="url(#paint24_linear)"/>
<rect opacity="0.6" x="126" y="208.5" width="121" height="1" fill="url(#paint25_linear)"/>
<rect x="173" y="208.5" width="11" height="1" fill="url(#paint26_linear)"/>
<path d="M365.477 74.9666L2.81201 113.06H0L17.346 43.676C17.7473 42.0708 19.1896 40.9447 20.8441 40.9447H68.4808C69.5853 40.9447 70.4808 41.8401 70.4808 42.9447V72.8197C70.4808 73.9243 71.3762 74.8197 72.4808 74.8197H298.913C300.018 74.8197 300.913 73.9243 300.913 72.8197V42.9447C300.913 41.8401 301.809 40.9447 302.913 40.9447H354.156C355.81 40.9447 357.253 42.0708 357.654 43.676L365.477 74.9666Z" fill="url(#paint27_linear)"/>
<path d="M18 105L16 113V185" stroke="url(#paint28_linear)" stroke-opacity="0.6"/>
<path d="M355 105L357.5 113V185" stroke="url(#paint29_linear)" stroke-opacity="0.6"/>
<path d="M55 41.5H20.8127C19.4499 41.5 18.2583 42.4186 17.9114 43.7365L16 51" stroke="url(#paint30_linear)"/>
<defs>
<filter id="filter0_dd" x="-40" y="20.4449" width="455" height="249.062" filterUnits="userSpaceOnUse" color-interpolation-filters="sRGB">
<feFlood flood-opacity="0" result="BackgroundImageFix"/>
<feColorMatrix in="SourceAlpha" type="matrix" values="0 0 0 0 0 0 0 0 0 0 0 0 0 0 0 0 0 0 127 0"/>
<feOffset dy="4"/>
<feGaussianBlur stdDeviation="2"/>
<feColorMatrix type="matrix" values="0 0 0 0 0 0 0 0 0 0 0 0 0 0 0 0 0 0 0.25 0"/>
<feBlend mode="normal" in2="BackgroundImageFix" result="effect1_dropShadow"/>
<feColorMatrix in="SourceAlpha" type="matrix" values="0 0 0 0 0 0 0 0 0 0 0 0 0 0 0 0 0 0 127 0"/>
<feOffset dy="20"/>
<feGaussianBlur stdDeviation="20"/>
<feColorMatrix type="matrix" values="0 0 0 0 0.425 0 0 0 0 0.336954 0 0 0 0 0.0247917 0 0 0 0.15 0"/>
<feBlend mode="multiply" in2="effect1_dropShadow" result="effect2_dropShadow"/>
<feBlend mode="normal" in="SourceGraphic" in2="effect2_dropShadow" result="shape"/>
</filter>
<filter id="filter1_i" x="20.2261" y="116.56" width="332.75" height="78.95" filterUnits="userSpaceOnUse" color-interpolation-filters="sRGB">
<feFlood flood-opacity="0" result="BackgroundImageFix"/>
<feBlend mode="normal" in="SourceGraphic" in2="BackgroundImageFix" result="shape"/>
<feColorMatrix in="SourceAlpha" type="matrix" values="0 0 0 0 0 0 0 0 0 0 0 0 0 0 0 0 0 0 127 0" result="hardAlpha"/>
<feOffset/>
<feGaussianBlur stdDeviation="6"/>
<feComposite in2="hardAlpha" operator="arithmetic" k2="-1" k3="1"/>
<feColorMatrix type="matrix" values="0 0 0 0 0.891667 0 0 0 0 0.200625 0 0 0 0 0.200625 0 0 0 0.25 0"/>
<feBlend mode="normal" in2="shape" result="effect1_innerShadow"/>
</filter>
<filter id="filter2_d" x="27.6636" y="35.4593" width="312.462" height="71.0721" filterUnits="userSpaceOnUse" color-interpolation-filters="sRGB">
<feFlood flood-opacity="0" result="BackgroundImageFix"/>
<feColorMatrix in="SourceAlpha" type="matrix" values="0 0 0 0 0 0 0 0 0 0 0 0 0 0 0 0 0 0 127 0"/>
<feOffset/>
<feGaussianBlur stdDeviation="6"/>
<feColorMatrix type="matrix" values="0 0 0 0 0 0 0 0 0 0 0 0 0 0 0 0 0 0 0.25 0"/>
<feBlend mode="normal" in2="BackgroundImageFix" result="effect1_dropShadow"/>
<feBlend mode="normal" in="SourceGraphic" in2="effect1_dropShadow" result="shape"/>
</filter>
<filter id="filter3_d" x="50.2837" y="129.983" width="36.4519" height="14.8173" filterUnits="userSpaceOnUse" color-interpolation-filters="sRGB">
<feFlood flood-opacity="0" result="BackgroundImageFix"/>
<feColorMatrix in="SourceAlpha" type="matrix" values="0 0 0 0 0 0 0 0 0 0 0 0 0 0 0 0 0 0 127 0"/>
<feOffset dy="2"/>
<feGaussianBlur stdDeviation="1"/>
<feColorMatrix type="matrix" values="0 0 0 0 0 0 0 0 0 0 0 0 0 0 0 0 0 0 0.25 0"/>
<feBlend mode="normal" in2="BackgroundImageFix" result="effect1_dropShadow"/>
<feBlend mode="normal" in="SourceGraphic" in2="effect1_dropShadow" result="shape"/>
</filter>
<filter id="filter4_d" x="89.947" y="129.983" width="36.4519" height="14.8173" filterUnits="userSpaceOnUse" color-interpolation-filters="sRGB">
<feFlood flood-opacity="0" result="BackgroundImageFix"/>
<feColorMatrix in="SourceAlpha" type="matrix" values="0 0 0 0 0 0 0 0 0 0 0 0 0 0 0 0 0 0 127 0"/>
<feOffset dy="2"/>
<feGaussianBlur stdDeviation="1"/>
<feColorMatrix type="matrix" values="0 0 0 0 0 0 0 0 0 0 0 0 0 0 0 0 0 0 0.25 0"/>
<feBlend mode="normal" in2="BackgroundImageFix" result="effect1_dropShadow"/>
<feBlend mode="normal" in="SourceGraphic" in2="effect1_dropShadow" result="shape"/>
</filter>
<filter id="filter5_d" x="130" y="129.983" width="36.4519" height="14.8173" filterUnits="userSpaceOnUse" color-interpolation-filters="sRGB">
<feFlood flood-opacity="0" result="BackgroundImageFix"/>
<feColorMatrix in="SourceAlpha" type="matrix" values="0 0 0 0 0 0 0 0 0 0 0 0 0 0 0 0 0 0 127 0"/>
<feOffset dy="2"/>
<feGaussianBlur stdDeviation="1"/>
<feColorMatrix type="matrix" values="0 0 0 0 0 0 0 0 0 0 0 0 0 0 0 0 0 0 0.25 0"/>
<feBlend mode="normal" in2="BackgroundImageFix" result="effect1_dropShadow"/>
<feBlend mode="normal" in="SourceGraphic" in2="effect1_dropShadow" result="shape"/>
</filter>
<filter id="filter6_d" x="170.053" y="129.983" width="36.4519" height="14.8173" filterUnits="userSpaceOnUse" color-interpolation-filters="sRGB">
<feFlood flood-opacity="0" result="BackgroundImageFix"/>
<feColorMatrix in="SourceAlpha" type="matrix" values="0 0 0 0 0 0 0 0 0 0 0 0 0 0 0 0 0 0 127 0"/>
<feOffset dy="2"/>
<feGaussianBlur stdDeviation="1"/>
<feColorMatrix type="matrix" values="0 0 0 0 0 0 0 0 0 0 0 0 0 0 0 0 0 0 0.25 0"/>
<feBlend mode="normal" in2="BackgroundImageFix" result="effect1_dropShadow"/>
<feBlend mode="normal" in="SourceGraphic" in2="effect1_dropShadow" result="shape"/>
</filter>
<filter id="filter7_d" x="210.106" y="129.983" width="36.4519" height="14.8173" filterUnits="userSpaceOnUse" color-interpolation-filters="sRGB">
<feFlood flood-opacity="0" result="BackgroundImageFix"/>
<feColorMatrix in="SourceAlpha" type="matrix" values="0 0 0 0 0 0 0 0 0 0 0 0 0 0 0 0 0 0 127 0"/>
<feOffset dy="2"/>
<feGaussianBlur stdDeviation="1"/>
<feColorMatrix type="matrix" values="0 0 0 0 0 0 0 0 0 0 0 0 0 0 0 0 0 0 0.25 0"/>
<feBlend mode="normal" in2="BackgroundImageFix" result="effect1_dropShadow"/>
<feBlend mode="normal" in="SourceGraphic" in2="effect1_dropShadow" result="shape"/>
</filter>
<filter id="filter8_d" x="250.159" y="129.983" width="36.4519" height="14.8173" filterUnits="userSpaceOnUse" color-interpolation-filters="sRGB">
<feFlood flood-opacity="0" result="BackgroundImageFix"/>
<feColorMatrix in="SourceAlpha" type="matrix" values="0 0 0 0 0 0 0 0 0 0 0 0 0 0 0 0 0 0 127 0"/>
<feOffset dy="2"/>
<feGaussianBlur stdDeviation="1"/>
<feColorMatrix type="matrix" values="0 0 0 0 0 0 0 0 0 0 0 0 0 0 0 0 0 0 0.25 0"/>
<feBlend mode="normal" in2="BackgroundImageFix" result="effect1_dropShadow"/>
<feBlend mode="normal" in="SourceGraphic" in2="effect1_dropShadow" result="shape"/>
</filter>
<filter id="filter9_d" x="290.212" y="129.983" width="36.4519" height="14.8173" filterUnits="userSpaceOnUse" color-interpolation-filters="sRGB">
<feFlood flood-opacity="0" result="BackgroundImageFix"/>
<feColorMatrix in="SourceAlpha" type="matrix" values="0 0 0 0 0 0 0 0 0 0 0 0 0 0 0 0 0 0 127 0"/>
<feOffset dy="2"/>
<feGaussianBlur stdDeviation="1"/>
<feColorMatrix type="matrix" values="0 0 0 0 0 0 0 0 0 0 0 0 0 0 0 0 0 0 0.25 0"/>
<feBlend mode="normal" in2="BackgroundImageFix" result="effect1_dropShadow"/>
<feBlend mode="normal" in="SourceGraphic" in2="effect1_dropShadow" result="shape"/>
</filter>
<filter id="filter10_d" x="29" y="152.983" width="36.4519" height="14.8173" filterUnits="userSpaceOnUse" color-interpolation-filters="sRGB">
<feFlood flood-opacity="0" result="BackgroundImageFix"/>
<feColorMatrix in="SourceAlpha" type="matrix" values="0 0 0 0 0 0 0 0 0 0 0 0 0 0 0 0 0 0 127 0"/>
<feOffset dy="2"/>
<feGaussianBlur stdDeviation="1"/>
<feColorMatrix type="matrix" values="0 0 0 0 0 0 0 0 0 0 0 0 0 0 0 0 0 0 0.25 0"/>
<feBlend mode="normal" in2="BackgroundImageFix" result="effect1_dropShadow"/>
<feBlend mode="normal" in="SourceGraphic" in2="effect1_dropShadow" result="shape"/>
</filter>
<filter id="filter11_d" x="68.6633" y="152.983" width="36.4519" height="14.8173" filterUnits="userSpaceOnUse" color-interpolation-filters="sRGB">
<feFlood flood-opacity="0" result="BackgroundImageFix"/>
<feColorMatrix in="SourceAlpha" type="matrix" values="0 0 0 0 0 0 0 0 0 0 0 0 0 0 0 0 0 0 127 0"/>
<feOffset dy="2"/>
<feGaussianBlur stdDeviation="1"/>
<feColorMatrix type="matrix" values="0 0 0 0 0 0 0 0 0 0 0 0 0 0 0 0 0 0 0.25 0"/>
<feBlend mode="normal" in2="BackgroundImageFix" result="effect1_dropShadow"/>
<feBlend mode="normal" in="SourceGraphic" in2="effect1_dropShadow" result="shape"/>
</filter>
<filter id="filter12_d" x="268.928" y="152.983" width="36.4519" height="14.8173" filterUnits="userSpaceOnUse" color-interpolation-filters="sRGB">
<feFlood flood-opacity="0" result="BackgroundImageFix"/>
<feColorMatrix in="SourceAlpha" type="matrix" values="0 0 0 0 0 0 0 0 0 0 0 0 0 0 0 0 0 0 127 0"/>
<feOffset dy="2"/>
<feGaussianBlur stdDeviation="1"/>
<feColorMatrix type="matrix" values="0 0 0 0 0 0 0 0 0 0 0 0 0 0 0 0 0 0 0.25 0"/>
<feBlend mode="normal" in2="BackgroundImageFix" result="effect1_dropShadow"/>
<feBlend mode="normal" in="SourceGraphic" in2="effect1_dropShadow" result="shape"/>
</filter>
<filter id="filter13_d" x="308.716" y="152.983" width="36.4519" height="14.8173" filterUnits="userSpaceOnUse" color-interpolation-filters="sRGB">
<feFlood flood-opacity="0" result="BackgroundImageFix"/>
<feColorMatrix in="SourceAlpha" type="matrix" values="0 0 0 0 0 0 0 0 0 0 0 0 0 0 0 0 0 0 127 0"/>
<feOffset dy="2"/>
<feGaussianBlur stdDeviation="1"/>
<feColorMatrix type="matrix" values="0 0 0 0 0 0 0 0 0 0 0 0 0 0 0 0 0 0 0.25 0"/>
<feBlend mode="normal" in2="BackgroundImageFix" result="effect1_dropShadow"/>
<feBlend mode="normal" in="SourceGraphic" in2="effect1_dropShadow" result="shape"/>
</filter>
<filter id="filter14_f" x="44" y="66.5002" width="283" height="17" filterUnits="userSpaceOnUse" color-interpolation-filters="sRGB">
<feFlood flood-opacity="0" result="BackgroundImageFix"/>
<feBlend mode="normal" in="SourceGraphic" in2="BackgroundImageFix" result="shape"/>
<feGaussianBlur stdDeviation="3" result="effect1_foregroundBlur"/>
</filter>
<filter id="filter15_d" x="122.414" y="57.8823" width="122.962" height="33.4375" filterUnits="userSpaceOnUse" color-interpolation-filters="sRGB">
<feFlood flood-opacity="0" result="BackgroundImageFix"/>
<feColorMatrix in="SourceAlpha" type="matrix" values="0 0 0 0 0 0 0 0 0 0 0 0 0 0 0 0 0 0 127 0"/>
<feOffset/>
<feGaussianBlur stdDeviation="2"/>
<feColorMatrix type="matrix" values="0 0 0 0 0 0 0 0 0 0 0 0 0 0 0 0 0 0 0.25 0"/>
<feBlend mode="multiply" in2="BackgroundImageFix" result="effect1_dropShadow"/>
<feBlend mode="normal" in="SourceGraphic" in2="effect1_dropShadow" result="shape"/>
</filter>
<linearGradient id="paint0_linear" x1="187.5" y1="112.56" x2="187.5" y2="204.507" gradientUnits="userSpaceOnUse">
<stop stop-color="#FB464A"/>
<stop offset="1" stop-color="#D92410"/>
</linearGradient>
<linearGradient id="paint1_linear" x1="187.5" y1="40.4449" x2="187.5" y2="112.56" gradientUnits="userSpaceOnUse">
<stop stop-color="#FF2518"/>
<stop offset="0.489321" stop-color="#8F1F19" stop-opacity="0.56"/>
<stop offset="1" stop-color="#FF2518" stop-opacity="0"/>
</linearGradient>
<linearGradient id="paint2_linear" x1="184" y1="49.5002" x2="184" y2="87.5002" gradientUnits="userSpaceOnUse">
<stop stop-color="#998373"/>
<stop offset="1" stop-color="#998373" stop-opacity="0"/>
</linearGradient>
<linearGradient id="paint3_linear" x1="123.432" y1="14.3261" x2="164.986" y2="68.1388" gradientUnits="userSpaceOnUse">
<stop stop-color="#A0A0A0"/>
<stop offset="1" stop-color="#3C3C3C"/>
</linearGradient>
<linearGradient id="paint4_linear" x1="68.5097" y1="128.18" x2="68.5097" y2="138.998" gradientUnits="userSpaceOnUse">
<stop stop-color="#685149"/>
<stop offset="1" stop-color="#998373"/>
</linearGradient>
<linearGradient id="paint5_linear" x1="108.173" y1="128.18" x2="108.173" y2="138.998" gradientUnits="userSpaceOnUse">
<stop stop-color="#685149"/>
<stop offset="1" stop-color="#998373"/>
</linearGradient>
<linearGradient id="paint6_linear" x1="148.226" y1="128.18" x2="148.226" y2="138.998" gradientUnits="userSpaceOnUse">
<stop stop-color="#685149"/>
<stop offset="1" stop-color="#998373"/>
</linearGradient>
<linearGradient id="paint7_linear" x1="188.279" y1="128.18" x2="188.279" y2="138.998" gradientUnits="userSpaceOnUse">
<stop stop-color="#685149"/>
<stop offset="1" stop-color="#998373"/>
</linearGradient>
<linearGradient id="paint8_linear" x1="228.332" y1="128.18" x2="228.332" y2="138.998" gradientUnits="userSpaceOnUse">
<stop stop-color="#685149"/>
<stop offset="1" stop-color="#998373"/>
</linearGradient>
<linearGradient id="paint9_linear" x1="268.385" y1="128.18" x2="268.385" y2="138.998" gradientUnits="userSpaceOnUse">
<stop stop-color="#685149"/>
<stop offset="1" stop-color="#998373"/>
</linearGradient>
<linearGradient id="paint10_linear" x1="308.438" y1="128.18" x2="308.438" y2="138.998" gradientUnits="userSpaceOnUse">
<stop stop-color="#685149"/>
<stop offset="1" stop-color="#998373"/>
</linearGradient>
<linearGradient id="paint11_linear" x1="47.226" y1="151.18" x2="47.226" y2="161.998" gradientUnits="userSpaceOnUse">
<stop stop-color="#685149"/>
<stop offset="1" stop-color="#998373"/>
</linearGradient>
<linearGradient id="paint12_linear" x1="86.8893" y1="151.18" x2="86.8893" y2="161.998" gradientUnits="userSpaceOnUse">
<stop stop-color="#685149"/>
<stop offset="1" stop-color="#998373"/>
</linearGradient>
<linearGradient id="paint13_linear" x1="287.154" y1="151.18" x2="287.154" y2="161.998" gradientUnits="userSpaceOnUse">
<stop stop-color="#685149"/>
<stop offset="1" stop-color="#998373"/>
</linearGradient>
<linearGradient id="paint14_linear" x1="326.942" y1="151.18" x2="326.942" y2="161.998" gradientUnits="userSpaceOnUse">
<stop stop-color="#685149"/>
<stop offset="1" stop-color="#998373"/>
</linearGradient>
<linearGradient id="paint15_linear" x1="183.894" y1="63.8824" x2="183.894" y2="87.3199" gradientUnits="userSpaceOnUse">
<stop stop-color="#998373"/>
<stop offset="1" stop-color="#998373" stop-opacity="0"/>
</linearGradient>
<linearGradient id="paint16_linear" x1="187.5" y1="40.4449" x2="187.5" y2="112.56" gradientUnits="userSpaceOnUse">
<stop stop-color="#FF2518"/>
<stop offset="0.489321" stop-color="#8F1F19" stop-opacity="0.56"/>
<stop offset="1" stop-color="#FF2518" stop-opacity="0"/>
</linearGradient>
<linearGradient id="paint17_linear" x1="186.599" y1="91.5314" x2="186.599" y2="99.5001" gradientUnits="userSpaceOnUse">
<stop stop-color="#694846"/>
<stop offset="1" stop-color="#4E3A3A"/>
</linearGradient>
<linearGradient id="paint18_linear" x1="357" y1="113.5" x2="375" y2="113.5" gradientUnits="userSpaceOnUse">
<stop stop-color="white" stop-opacity="0.2"/>
<stop offset="0.421875" stop-color="white"/>
<stop offset="1" stop-color="white" stop-opacity="0"/>
</linearGradient>
<linearGradient id="paint19_linear" x1="16" y1="112.5" x2="357" y2="112.5" gradientUnits="userSpaceOnUse">
<stop stop-color="white" stop-opacity="0.2"/>
<stop offset="0.421875" stop-color="white"/>
<stop offset="1" stop-color="white" stop-opacity="0"/>
</linearGradient>
<linearGradient id="paint20_linear" x1="0" y1="113.5" x2="16" y2="113.5" gradientUnits="userSpaceOnUse">
<stop stop-color="white" stop-opacity="0.2"/>
<stop offset="0.421875" stop-color="white"/>
<stop offset="1" stop-color="white" stop-opacity="0"/>
</linearGradient>
<linearGradient id="paint21_linear" x1="16" y1="87.5001" x2="357" y2="87.5001" gradientUnits="userSpaceOnUse">
<stop stop-color="white" stop-opacity="0.2"/>
<stop offset="0.421875" stop-color="white"/>
<stop offset="1" stop-color="white" stop-opacity="0"/>
</linearGradient>
<linearGradient id="paint22_linear" x1="126" y1="87.5001" x2="247" y2="87.5001" gradientUnits="userSpaceOnUse">
<stop stop-color="white" stop-opacity="0.2"/>
<stop offset="0.421875" stop-color="white"/>
<stop offset="1" stop-color="white" stop-opacity="0"/>
</linearGradient>
<linearGradient id="paint23_linear" x1="173" y1="87.5001" x2="184" y2="87.5001" gradientUnits="userSpaceOnUse">
<stop stop-color="white" stop-opacity="0"/>
<stop offset="0.348958" stop-color="white"/>
<stop offset="0.65625" stop-color="white"/>
<stop offset="1" stop-color="white" stop-opacity="0"/>
</linearGradient>
<linearGradient id="paint24_linear" x1="16" y1="209.5" x2="357" y2="209.5" gradientUnits="userSpaceOnUse">
<stop stop-color="white" stop-opacity="0.2"/>
<stop offset="0.421875" stop-color="white"/>
<stop offset="1" stop-color="white" stop-opacity="0"/>
</linearGradient>
<linearGradient id="paint25_linear" x1="126" y1="209.5" x2="247" y2="209.5" gradientUnits="userSpaceOnUse">
<stop stop-color="white" stop-opacity="0.2"/>
<stop offset="0.421875" stop-color="white"/>
<stop offset="1" stop-color="white" stop-opacity="0"/>
</linearGradient>
<linearGradient id="paint26_linear" x1="173" y1="209.5" x2="184" y2="209.5" gradientUnits="userSpaceOnUse">
<stop stop-color="white" stop-opacity="0"/>
<stop offset="0.348958" stop-color="white"/>
<stop offset="0.65625" stop-color="white"/>
<stop offset="1" stop-color="white" stop-opacity="0"/>
</linearGradient>
<linearGradient id="paint27_linear" x1="359" y1="41" x2="5.50001" y2="102.5" gradientUnits="userSpaceOnUse">
<stop stop-color="white" stop-opacity="0.2"/>
<stop offset="1" stop-color="white" stop-opacity="0"/>
</linearGradient>
<linearGradient id="paint28_linear" x1="16.0144" y1="205" x2="16.0007" y2="105" gradientUnits="userSpaceOnUse">
<stop stop-color="white" stop-opacity="0.2"/>
<stop offset="0.421875" stop-color="white"/>
<stop offset="1" stop-color="white" stop-opacity="0"/>
</linearGradient>
<linearGradient id="paint29_linear" x1="357.99" y1="205" x2="357.976" y2="105" gradientUnits="userSpaceOnUse">
<stop stop-color="white" stop-opacity="0.2"/>
<stop offset="0.421875" stop-color="white"/>
<stop offset="1" stop-color="white" stop-opacity="0"/>
</linearGradient>
<linearGradient id="paint30_linear" x1="18.5587" y1="41.4481" x2="20.9053" y2="49.0293" gradientUnits="userSpaceOnUse">
<stop stop-color="white"/>
<stop offset="1" stop-color="white" stop-opacity="0"/>
</linearGradient>
</defs>
</svg>
