<svg width="280" height="38" viewBox="0 0 280 38" fill="none" xmlns="http://www.w3.org/2000/svg">
<path d="M12.5503 12.992C12.5503 12.4155 12.3995 11.711 12.0978 10.8783C11.8121 10.0296 11.3278 9.28503 10.6451 8.64452C9.97833 7.98799 9.11306 7.65973 8.04934 7.65973C6.87449 7.65973 5.89015 7.94796 5.09633 8.52442C4.31838 9.08487 3.74683 9.73339 3.38168 10.47C3.01652 11.1906 2.83394 11.783 2.83394 12.2474C2.83394 12.5196 2.68311 12.7758 2.38146 13.016C2.07981 13.2402 1.80991 13.3523 1.57176 13.3523C1.33362 13.3523 1.11929 13.2482 0.92877 13.04C0.75413 12.8319 0.666809 12.5596 0.666809 12.2234C0.666809 11.3747 0.857326 10.2458 1.23836 8.83667C1.63527 7.42754 2.44497 6.10649 3.66745 4.8735C4.88994 3.6245 6.6284 3 8.88285 3C11.2326 3 13.1139 3.42434 14.5269 4.27302C15.9399 5.1217 16.9322 6.15452 17.5037 7.3715C18.0912 8.58847 18.3849 9.80544 18.3849 11.0224C18.3849 12.5436 17.9086 14.0969 16.956 15.6821C16.0034 17.2674 14.9159 18.7086 13.6934 20.0056C12.4709 21.2866 10.9706 22.7438 9.19244 24.3771C8.16048 25.3219 7.41429 26.0264 6.95387 26.4908C6.50933 26.9552 6.28706 27.2994 6.28706 27.5236C6.28706 27.7478 6.43789 27.9079 6.73954 28.004C7.04119 28.0841 7.49367 28.1241 8.09697 28.1241C8.6844 28.1241 9.38296 28.1001 10.1927 28.052C10.4784 28.052 10.9388 28.036 11.5739 28.004C12.9234 27.956 13.9077 27.8279 14.5269 27.6197C15.162 27.4115 15.5986 27.0432 15.8367 26.5148C16.0749 25.9704 16.1939 25.1217 16.1939 23.9688C16.1939 23.7926 16.2257 23.6645 16.2892 23.5845C16.3686 23.4884 16.4638 23.4404 16.575 23.4404C16.6861 23.4404 16.7734 23.4884 16.8369 23.5845C16.9163 23.6645 16.956 23.7846 16.956 23.9448C16.956 24.8094 17.0116 25.49 17.1227 25.9864C17.2338 26.4828 17.3688 26.8511 17.5276 27.0913C17.6863 27.3155 17.9086 27.5556 18.1944 27.8118C18.4008 27.988 18.5754 28.1561 18.7183 28.3163C18.8612 28.4764 18.9882 28.6765 19.0993 28.9167C19.3216 29.3971 19.4327 29.9255 19.4327 30.502C19.4327 31.1585 19.2898 31.727 19.0041 32.2074C18.7183 32.6878 18.3134 32.9279 17.7895 32.9279C17.6943 32.9279 17.3529 32.8879 16.7655 32.8078C14.6063 32.4716 12.7805 32.3034 11.2881 32.3034C9.90688 32.3034 8.55739 32.3515 7.23964 32.4476C5.9219 32.5597 4.52478 32.6878 3.04827 32.8319L2.09569 32.9279C1.88929 32.9279 1.61939 32.8479 1.28599 32.6878C0.952585 32.5436 0.650933 32.3275 0.381034 32.0392C0.127011 31.751 0 31.4067 0 31.0064C0 30.3659 0.388972 29.6613 1.16692 28.8927L2.81013 27.3074C4.81055 25.4019 6.4617 23.7526 7.76357 22.3595C9.06543 20.9504 10.1847 19.4291 11.1214 17.7958C12.074 16.1465 12.5503 14.5452 12.5503 12.992Z" fill="#C52E19"/>
<path d="M32.8023 33C31.0876 33 29.5555 32.6717 28.206 32.0152C26.8724 31.3587 25.7611 30.0536 24.872 28.1001C23.9829 26.1305 23.5384 23.3363 23.5384 19.7174C23.5384 16.0024 23.975 12.9199 24.8482 10.47C25.7373 8.004 26.9042 6.19456 28.3489 5.04163C29.8096 3.8727 31.421 3.28823 33.1833 3.28823C34.501 3.28823 35.7791 3.48038 37.0174 3.86469C38.2558 4.249 39.4704 5.43395 40.6611 7.41954C41.8518 9.38911 42.4472 12.4796 42.4472 16.691C42.4472 22.984 41.5184 27.2754 39.6609 29.5653C37.8192 31.8551 35.533 33 32.8023 33ZM33.35 30.7182C34.2708 30.7182 35.0091 30.3579 35.5648 29.6373C36.1363 28.9167 36.557 27.6918 36.8269 25.9624C37.0968 24.233 37.2318 21.8471 37.2318 18.8046C37.2318 14.257 36.8111 10.9584 35.9696 8.90873C35.1282 6.85909 34.0247 5.83427 32.6594 5.83427C31.8973 5.83427 31.2384 6.1225 30.6828 6.69896C30.143 7.27542 29.6984 8.41233 29.3491 10.1097C29.0157 11.807 28.849 14.241 28.849 17.4115C28.849 22.1994 29.238 25.6181 30.0159 27.6677C30.8098 29.7014 31.9211 30.7182 33.35 30.7182Z" fill="#C52E19"/>
<path d="M59.1031 12.992C59.1031 12.4155 58.9523 11.711 58.6507 10.8783C58.3649 10.0296 57.8806 9.28503 57.198 8.64452C56.5311 7.98799 55.6659 7.65973 54.6022 7.65973C53.4273 7.65973 52.443 7.94796 51.6492 8.52442C50.8712 9.08487 50.2997 9.73339 49.9345 10.47C49.5693 11.1906 49.3868 11.783 49.3868 12.2474C49.3868 12.5196 49.2359 12.7758 48.9343 13.016C48.6326 13.2402 48.3627 13.3523 48.1246 13.3523C47.8864 13.3523 47.6721 13.2482 47.4816 13.04C47.307 12.8319 47.2196 12.5596 47.2196 12.2234C47.2196 11.3747 47.4101 10.2458 47.7912 8.83667C48.1881 7.42754 48.9978 6.10649 50.2203 4.8735C51.4428 3.6245 53.1812 3 55.4357 3C57.7854 3 59.6667 3.42434 61.0797 4.27302C62.4927 5.1217 63.485 6.15452 64.0566 7.3715C64.644 8.58847 64.9377 9.80544 64.9377 11.0224C64.9377 12.5436 64.4614 14.0969 63.5088 15.6821C62.5562 17.2674 61.4687 18.7086 60.2462 20.0056C59.0237 21.2866 57.5234 22.7438 55.7453 24.3771C54.7133 25.3219 53.9671 26.0264 53.5067 26.4908C53.0622 26.9552 52.8399 27.2994 52.8399 27.5236C52.8399 27.7478 52.9907 27.9079 53.2924 28.004C53.594 28.0841 54.0465 28.1241 54.6498 28.1241C55.2372 28.1241 55.9358 28.1001 56.7455 28.052C57.0313 28.052 57.4917 28.036 58.1267 28.004C59.4762 27.956 60.4606 27.8279 61.0797 27.6197C61.7148 27.4115 62.1514 27.0432 62.3895 26.5148C62.6277 25.9704 62.7468 25.1217 62.7468 23.9688C62.7468 23.7926 62.7785 23.6645 62.842 23.5845C62.9214 23.4884 63.0167 23.4404 63.1278 23.4404C63.2389 23.4404 63.3263 23.4884 63.3898 23.5845C63.4691 23.6645 63.5088 23.7846 63.5088 23.9448C63.5088 24.8094 63.5644 25.49 63.6755 25.9864C63.7867 26.4828 63.9216 26.8511 64.0804 27.0913C64.2392 27.3155 64.4614 27.5556 64.7472 27.8118C64.9536 27.988 65.1282 28.1561 65.2711 28.3163C65.414 28.4764 65.541 28.6765 65.6521 28.9167C65.8744 29.3971 65.9855 29.9255 65.9855 30.502C65.9855 31.1585 65.8427 31.727 65.5569 32.2074C65.2711 32.6878 64.8663 32.9279 64.3423 32.9279C64.2471 32.9279 63.9057 32.8879 63.3183 32.8078C61.1591 32.4716 59.3333 32.3034 57.841 32.3034C56.4597 32.3034 55.1102 32.3515 53.7925 32.4476C52.4747 32.5597 51.0776 32.6878 49.6011 32.8319L48.6485 32.9279C48.4421 32.9279 48.1722 32.8479 47.8388 32.6878C47.5054 32.5436 47.2038 32.3275 46.9339 32.0392C46.6798 31.751 46.5528 31.4067 46.5528 31.0064C46.5528 30.3659 46.9418 29.6613 47.7197 28.8927L49.3629 27.3074C51.3634 25.4019 53.0145 23.7526 54.3164 22.3595C55.6183 20.9504 56.7375 19.4291 57.6743 17.7958C58.6268 16.1465 59.1031 14.5452 59.1031 12.992Z" fill="#C52E19"/>
<path d="M79.3551 33C77.6404 33 76.1084 32.6717 74.7589 32.0152C73.4252 31.3587 72.3139 30.0536 71.4248 28.1001C70.5357 26.1305 70.0912 23.3363 70.0912 19.7174C70.0912 16.0024 70.5278 12.9199 71.401 10.47C72.2901 8.004 73.457 6.19456 74.9017 5.04163C76.3624 3.8727 77.9738 3.28823 79.7361 3.28823C81.0538 3.28823 82.3319 3.48038 83.5703 3.86469C84.8086 4.249 86.0232 5.43395 87.2139 7.41954C88.4046 9.38911 89 12.4796 89 16.691C89 22.984 88.0712 27.2754 86.2137 29.5653C84.372 31.8551 82.0858 33 79.3551 33ZM79.9028 30.7182C80.8236 30.7182 81.5619 30.3579 82.1176 29.6373C82.6891 28.9167 83.1099 27.6918 83.3798 25.9624C83.6497 24.233 83.7846 21.8471 83.7846 18.8046C83.7846 14.257 83.3639 10.9584 82.5224 8.90873C81.681 6.85909 80.5776 5.83427 79.2122 5.83427C78.4501 5.83427 77.7912 6.1225 77.2356 6.69896C76.6958 7.27542 76.2512 8.41233 75.902 10.1097C75.5686 11.807 75.4018 14.241 75.4018 17.4115C75.4018 22.1994 75.7908 25.6181 76.5688 27.6677C77.3626 29.7014 78.4739 30.7182 79.9028 30.7182Z" fill="#C52E19"/>
<path d="M138.427 23.4356C138.442 23.6643 138.253 23.992 137.861 24.4188C137.483 24.8456 137.038 25.2343 136.525 25.5848C136.012 25.9354 135.581 26.1183 135.234 26.1336C135.204 26.1336 135.008 26.0726 134.645 25.9507C131.204 24.7922 127.996 24.213 125.022 24.213C124.72 24.213 124.267 24.2282 123.663 24.2587C122.697 24.3045 121.739 24.373 120.788 24.4645C121.029 28.4886 121.135 30.8664 121.105 31.5981C121.074 32.2992 120.818 33.0842 120.335 33.9531C119.867 34.8371 119.338 35.6069 118.75 36.2623C118.176 36.9178 117.783 37.2455 117.572 37.2455C117.376 37.2455 117.081 36.9025 116.689 36.2166C116.312 35.5459 115.964 34.7914 115.647 33.9531C115.345 33.13 115.195 32.5203 115.195 32.1239L115.24 30.5921C115.315 29.144 115.376 27.2996 115.421 25.059C110.983 25.6382 105.994 26.5451 100.453 27.7798C100.121 27.8408 99.7892 27.9093 99.4571 27.9856C99.125 28.0618 98.9288 28.0999 98.8684 28.0999C98.4457 28.1151 98.1287 28.0618 97.9174 27.9398C97.706 27.8179 97.4192 27.5588 97.0569 27.1625L96.604 26.7052C96.2417 26.3394 95.7285 25.9278 95.0643 25.4705C94.6869 25.1809 94.4151 24.9675 94.2491 24.8303C94.083 24.6779 94 24.5483 94 24.4416C94 24.1673 94.1283 23.9539 94.3849 23.8014C94.6567 23.6338 94.9208 23.5652 95.1775 23.5957C95.6756 23.6566 96.3927 23.6871 97.3286 23.6871C99.2307 23.6871 101.359 23.5728 103.714 23.3442L106.069 23.0927C106.084 22.9402 106.092 22.7268 106.092 22.4525C106.092 21.6903 106.016 21.1187 105.865 20.7377C105.729 20.3414 105.571 20.0365 105.39 19.8231C105.224 19.5945 105.141 19.4497 105.141 19.3887C105.141 19.2667 105.231 19.1296 105.412 18.9771C105.594 18.8095 105.797 18.6723 106.024 18.5656C106.25 18.4589 106.401 18.4132 106.477 18.4284C106.748 18.4589 107.103 18.5351 107.541 18.657C107.994 18.7637 108.401 18.8781 108.764 19L110.213 19.4344L110.711 19.5716C110.847 19.6173 110.968 19.7545 111.073 19.9832C111.194 20.2118 111.255 20.4709 111.255 20.7605C111.255 20.852 111.239 20.9892 111.209 21.1721C111.134 21.4769 110.938 21.9571 110.62 22.6125L115.444 22.0638C115.444 20.006 115.406 18.2226 115.33 16.7136C114.077 16.927 113.081 17.1328 112.341 17.3309C111.602 17.5138 110.749 17.7425 109.783 18.0168C109.541 18.0778 109.066 17.9559 108.356 17.651C107.647 17.3462 106.937 16.9956 106.228 16.5993C105.533 16.1877 105.148 15.9286 105.073 15.8219C104.997 15.6847 105.012 15.5094 105.118 15.296C105.239 15.0826 105.375 14.9759 105.526 14.9759C107.79 14.8997 110.998 14.4348 115.149 13.5812C115.028 12.1179 114.87 10.7461 114.674 9.4657C113.602 9.75531 112.296 10.1974 110.756 10.7918C109.443 11.7978 108.001 12.72 106.431 13.5584C104.877 14.3967 103.548 14.9759 102.446 15.296C102.114 15.3875 101.872 15.4332 101.722 15.4332C101.586 15.4332 101.518 15.3951 101.518 15.3189C101.518 15.2274 101.661 15.0369 101.948 14.7473C104.258 12.4609 105.918 10.5251 106.93 8.93983C107.941 7.33935 108.439 5.86081 108.424 4.50421C108.424 4.33654 108.371 4.19174 108.266 4.0698C108.16 3.93261 108.001 3.76494 107.79 3.56679C107.684 3.47533 107.586 3.38387 107.496 3.29242C107.405 3.18572 107.36 3.09426 107.36 3.01805C107.36 2.89611 107.745 2.61412 108.515 2.17208C109.3 1.7148 109.805 1.47854 110.032 1.4633C110.288 1.44805 110.802 1.7148 111.572 2.26354C112.357 2.81227 113.058 3.43722 113.677 4.13839C114.296 4.82431 114.591 5.40353 114.56 5.87605C114.56 5.95227 114.545 6.08183 114.515 6.26474L116.757 5.80746C117.225 5.716 117.957 5.56358 118.953 5.35018C119.285 5.27397 119.633 5.15203 119.995 4.98436C120.357 4.81669 120.697 4.6414 121.014 4.45848C121.346 4.27557 121.573 4.15363 121.693 4.09266C122.131 3.83353 122.486 3.63538 122.758 3.49819C123.029 3.36101 123.241 3.29242 123.392 3.29242C123.86 3.29242 124.644 3.52868 125.746 4.0012C126.864 4.45848 127.86 4.9996 128.735 5.62455C129.626 6.2495 130.071 6.80586 130.071 7.29362C130.071 7.52226 129.92 7.78139 129.619 8.071C129.317 8.36061 128.954 8.60449 128.532 8.80265C128.124 9.0008 127.777 9.09226 127.49 9.07702C127.43 9.06177 126.977 8.93221 126.131 8.68833C125.301 8.4292 124.116 8.29964 122.576 8.29964C121.822 8.29964 121.006 8.33775 120.131 8.41396C120.433 8.76454 120.584 9.06939 120.584 9.32852C120.584 9.37425 120.569 9.44284 120.538 9.5343C120.252 10.1745 120.108 10.5937 120.108 10.7918C120.108 11.1272 120.123 11.6759 120.153 12.438C120.742 12.2551 121.505 11.9579 122.441 11.5463C122.878 11.3482 123.293 11.1729 123.686 11.0205C124.093 10.868 124.38 10.7918 124.546 10.7918C124.939 10.7918 125.52 11.0128 126.29 11.4549C127.075 11.8969 127.777 12.3923 128.396 12.941C129.03 13.4745 129.347 13.8708 129.347 14.13C129.347 14.3129 129.188 14.5949 128.871 14.9759C128.569 15.357 128.222 15.6923 127.83 15.9819C127.437 16.2716 127.113 16.4087 126.856 16.3935C126.781 16.3935 126.313 16.3249 125.452 16.1877C124.607 16.0505 123.543 15.9819 122.259 15.9819C121.897 15.9819 121.618 15.9896 121.422 16.0048L120.289 16.0734C120.365 17.491 120.471 19.2896 120.606 21.4693L123.459 21.0806C124.969 20.8672 126.275 20.631 127.377 20.3718C128.494 20.1127 129.603 19.8307 130.705 19.5259C130.796 19.4954 131.053 19.4268 131.475 19.3201C131.913 19.1982 132.223 19.1372 132.404 19.1372C132.706 19.1372 133.355 19.442 134.351 20.0517C135.347 20.6462 136.276 21.294 137.136 21.9952C137.997 22.6963 138.427 23.1765 138.427 23.4356Z" fill="#C52E19"/>
<path d="M180.146 14.5415C180.463 14.5415 181.036 14.8235 181.867 15.3875C182.697 15.9515 183.474 16.5612 184.199 17.2166C184.924 17.8568 185.286 18.2836 185.286 18.497C185.286 18.6647 185.075 18.9238 184.652 19.2744C184.244 19.6097 183.791 19.9222 183.293 20.2118C182.795 20.4862 182.433 20.6233 182.206 20.6233C182.07 20.6233 181.897 20.5929 181.686 20.5319C181.489 20.4709 181.278 20.3947 181.051 20.3032C180.312 20.0289 179.595 19.8155 178.9 19.6631C178.206 19.5106 177.391 19.4573 176.455 19.503C175.051 19.5487 173.398 19.6478 171.496 19.8002L170.749 19.846C170.749 20.6691 170.839 22.5897 171.02 25.6077C171.201 28.4733 171.292 30.2262 171.292 30.8664C171.292 31.4609 171.005 32.2992 170.432 33.3815C169.858 34.4637 169.201 35.424 168.462 36.2623C167.722 37.1007 167.118 37.5199 166.65 37.5199C166.409 37.5199 166.205 37.375 166.039 37.0854C165.873 36.8111 165.646 36.3233 165.359 35.6221C165.073 34.8753 164.793 34.2274 164.522 33.6787C164.265 33.1452 163.903 32.6574 163.435 32.2154C162.982 31.7581 162.423 31.4533 161.759 31.3008C161.623 31.2704 161.51 31.2094 161.419 31.1179C161.329 31.0265 161.284 30.935 161.284 30.8436C161.284 30.7369 161.336 30.653 161.442 30.5921C161.548 30.5158 161.714 30.4777 161.94 30.4777C162.001 30.4777 162.204 30.5082 162.552 30.5692C162.899 30.6302 163.269 30.6607 163.661 30.6607C164.793 30.6607 165.435 30.3024 165.586 29.586C165.797 28.6715 165.903 26.4918 165.903 23.0469C165.903 21.8123 165.895 20.9053 165.88 20.3261C163.238 20.6615 161.05 21.0273 159.314 21.4236C159.797 22.1095 160.234 22.9174 160.627 23.8472C161.019 24.7617 161.216 25.7144 161.216 26.7052C161.216 27.6197 161.019 28.4276 160.627 29.1288C160.234 29.8147 159.782 30.3482 159.268 30.7292C158.755 31.1103 158.332 31.3008 158 31.3008C157.623 31.3008 157.291 30.996 157.004 30.3863C156.732 29.7613 156.596 29.0373 156.596 28.2142C156.596 27.8484 156.845 27.01 157.344 25.6992C157.691 24.7236 157.955 23.9158 158.136 23.2756C158.332 22.6201 158.415 22.079 158.385 21.6522L157.751 21.7894C157.298 21.9114 156.989 21.9723 156.823 21.9723C156.551 21.9723 156.204 21.8351 155.781 21.5608C155.358 21.2864 154.921 20.9511 154.468 20.5548C154.74 27.1091 154.875 30.8588 154.875 31.8039C154.875 32.3831 154.664 33.1223 154.241 34.0217C153.819 34.9362 153.336 35.7441 152.792 36.4452C152.249 37.1617 151.826 37.5199 151.524 37.5199C151.222 37.5199 150.928 37.2836 150.641 36.8111C150.369 36.3385 150.15 35.6984 149.984 34.8905C149.818 34.0826 149.735 33.1986 149.735 32.2383L149.758 30.775C149.879 26.7052 149.939 21.5913 149.939 15.4332C147.554 17.7653 145.154 19.6935 142.738 21.2178C142.542 21.355 142.353 21.4236 142.172 21.4236C141.916 21.4236 141.787 21.3016 141.787 21.0578C141.787 20.8596 141.893 20.631 142.104 20.3718C144.61 17.3385 146.52 14.7473 147.833 12.5981C149.162 10.4489 150.022 8.79503 150.415 7.63658C150.822 6.47814 151.026 5.61693 151.026 5.05295C151.026 4.77858 150.898 4.49659 150.641 4.20698C150.566 4.11552 150.49 4.02407 150.415 3.93261C150.354 3.82591 150.324 3.71921 150.324 3.61251C150.324 3.49057 150.49 3.3229 150.822 3.10951C151.154 2.88087 151.517 2.67509 151.909 2.49218C152.317 2.30927 152.596 2.21781 152.747 2.21781C152.988 2.21781 153.426 2.50742 154.06 3.08664C154.694 3.65062 155.275 4.27557 155.804 4.96149C156.347 5.63217 156.619 6.10469 156.619 6.37906C156.619 6.77537 156.4 7.36221 155.962 8.13959C155.524 8.90172 154.921 9.77818 154.151 10.769C154.166 11.9731 154.226 13.9699 154.332 16.7593L154.4 18.84C155.019 18.8247 156.551 18.7333 158.997 18.5656C160.944 18.4284 163.201 18.1769 165.767 17.8111L165.631 16.4164C165.51 15.5475 165.314 14.8692 165.042 14.3815C164.937 14.4272 164.824 14.4729 164.703 14.5187C164.582 14.5491 164.454 14.5872 164.318 14.633C164.106 15.1512 163.774 15.6619 163.321 16.1649C162.884 16.6679 162.506 16.9194 162.189 16.9194C161.933 16.9194 161.616 16.6602 161.238 16.142C160.876 15.6237 160.551 15.0293 160.265 14.3586C159.993 13.6879 159.849 13.1697 159.834 12.8039C159.729 11.0052 159.555 9.67148 159.314 8.80265C159.072 7.91857 158.8 7.20217 158.498 6.65343C158.378 6.44003 158.317 6.27998 158.317 6.17329C158.317 5.97513 158.393 5.79984 158.544 5.64741C158.71 5.49499 158.913 5.41877 159.155 5.41877C159.321 5.41877 159.774 5.60169 160.514 5.96751C161.268 6.33333 161.978 6.73726 162.642 7.1793C163.321 7.62134 163.714 7.97954 163.82 8.25391C164.001 8.69595 164.159 9.77056 164.295 11.4777C165.548 11.2643 167.156 10.9138 169.118 10.426C169.616 10.3041 170.069 10.1669 170.477 10.0144C170.552 9.74007 170.749 9.14561 171.066 8.23105C171.398 7.24027 171.571 6.69916 171.586 6.6077C171.617 6.45528 171.632 6.3562 171.632 6.31047C171.632 6.18853 171.594 6.11231 171.518 6.08183C171.458 6.05134 171.337 6.0361 171.156 6.0361C169.737 6.09707 168.62 6.19615 167.805 6.33333C167.005 6.47052 166.31 6.62294 165.722 6.79061C165.329 6.89731 165.065 6.95066 164.929 6.95066C164.552 6.95066 163.986 6.69916 163.231 6.19615C162.476 5.69314 161.895 5.23586 161.487 4.82431C161.367 4.70237 161.306 4.5728 161.306 4.43562C161.306 4.26795 161.397 4.18412 161.578 4.18412C162.997 4.18412 164.356 4.03931 165.654 3.7497C166.952 3.44485 168.205 3.09426 169.413 2.69795C170.107 2.45407 170.658 2.21781 171.066 1.98917C171.473 1.76053 171.866 1.50903 172.243 1.23466C172.439 1.08223 172.598 0.975532 172.719 0.914561C172.839 0.838347 172.968 0.800241 173.104 0.800241C173.255 0.800241 173.473 0.929803 173.76 1.18893C174.047 1.44805 174.44 1.84436 174.938 2.37786C175.798 3.24669 176.228 3.68111 176.228 3.68111C176.545 3.98596 176.968 4.37465 177.496 4.84717C178.327 5.62455 178.908 6.19615 179.24 6.56197C179.587 6.91256 179.761 7.18692 179.761 7.38508C179.761 7.59848 179.663 7.84998 179.466 8.13959C179.27 8.41396 178.923 8.856 178.425 9.4657C177.474 10.5937 176.727 11.5844 176.183 12.438C175.881 12.9105 175.489 13.2992 175.006 13.6041C174.538 13.9089 174.1 14.0614 173.692 14.0614C173.496 14.0614 173.179 13.9623 172.741 13.7641C172.303 13.5507 171.888 13.2916 171.496 12.9868C170.832 13.0325 169.986 13.1468 168.96 13.3297C170.183 14.0156 170.794 14.5568 170.794 14.9531C170.794 15.7609 170.786 16.4392 170.771 16.988C171.994 16.7593 173.262 16.5154 174.575 16.2563C175.994 15.9667 177.406 15.5323 178.81 14.9531C179.097 14.8311 179.353 14.732 179.58 14.6558C179.806 14.5796 179.995 14.5415 180.146 14.5415ZM174.915 21.1264C175.504 21.3855 176.357 21.8275 177.474 22.4525C178.591 23.0774 179.648 23.8319 180.644 24.716C181.655 25.6001 182.161 26.4613 182.161 27.2996C182.161 28.1837 181.942 29.0068 181.504 29.769C181.067 30.5158 180.523 31.1179 179.874 31.5752C179.24 32.0173 178.651 32.2383 178.108 32.2383C177.791 32.2383 177.504 31.8724 177.247 31.1408C177.006 30.3939 176.689 29.2202 176.296 27.6197C175.934 26.0955 175.609 24.8761 175.323 23.9615C175.036 23.0469 174.711 22.3534 174.349 21.8809C174.183 21.6675 174.1 21.4846 174.1 21.3321C174.1 21.1492 174.236 21.0578 174.507 21.0578C174.643 21.0578 174.779 21.0806 174.915 21.1264Z" fill="#C52E19"/>
<path d="M229.043 25.8135C229.45 25.8135 230.22 26.1488 231.352 26.8195C232.484 27.4749 233.511 28.2142 234.432 29.0373C235.368 29.8452 235.836 30.4854 235.836 30.9579C235.836 31.278 235.677 31.659 235.36 32.1011C235.058 32.5279 234.696 32.8937 234.273 33.1986C233.866 33.5187 233.519 33.6787 233.232 33.6787C233.096 33.6787 232.817 33.6101 232.394 33.4729C231.971 33.3357 231.669 33.2367 231.488 33.1757C230.114 32.7184 228.839 32.3373 227.661 32.0325C226.499 31.7276 225.374 31.5676 224.287 31.5523C223.804 31.5371 223.11 31.5295 222.204 31.5295C218.204 31.5295 215.109 31.7429 212.92 32.1697C210.746 32.5812 208.958 33.0614 207.554 33.6101C207.101 33.7778 206.814 33.8616 206.693 33.8616C206.255 33.8464 205.704 33.6101 205.04 33.1528C204.376 32.6955 203.855 32.1773 203.478 31.5981C203.357 31.4152 203.297 31.2246 203.297 31.0265C203.297 30.7826 203.38 30.5616 203.546 30.3634C203.727 30.1653 203.968 29.9442 204.27 29.7004C204.452 29.5632 204.587 29.4489 204.678 29.3574C204.769 29.2507 204.814 29.1592 204.814 29.083C204.814 28.9154 204.844 28.8315 204.904 28.8315C204.965 28.8315 205.093 28.9306 205.289 29.1288C205.531 29.3422 205.674 29.4565 205.72 29.4717C205.946 29.5479 206.384 29.586 207.033 29.586C207.516 29.586 207.901 29.5784 208.188 29.5632C208.384 27.6578 208.497 25.6992 208.527 23.6871C206.505 25.7296 204.882 27.4902 203.659 28.9687C202.451 30.432 201.274 31.9182 200.127 33.4272C199.357 34.4332 198.806 35.0963 198.474 35.4164C198.157 35.7365 197.802 35.8965 197.409 35.8965L197.183 35.8736C196.956 35.8432 196.738 35.706 196.526 35.4621C196.33 35.2182 196.088 34.8676 195.802 34.4104C195.59 34.0445 195.371 33.7168 195.145 33.4272C194.617 32.7718 194.269 32.3145 194.103 32.0554C193.952 31.781 193.9 31.4609 193.945 31.0951C193.96 30.8817 194.005 30.7369 194.081 30.6607C194.171 30.5844 194.383 30.4777 194.715 30.3406C195.303 30.0967 195.688 29.929 195.87 29.8375C195.915 29.8223 196.141 29.6927 196.549 29.4489C196.685 29.3574 197.039 29.144 197.613 28.8087C197.96 27.9551 198.224 26.6518 198.406 24.8989C198.587 23.146 198.677 21.3093 198.677 19.3887C198.677 18.5656 198.67 17.9635 198.655 17.5824C198.066 17.7044 197.606 17.8263 197.273 17.9483C196.941 18.0702 196.632 18.2074 196.345 18.3598C196.149 18.4665 195.983 18.5427 195.847 18.5884C195.711 18.6342 195.537 18.657 195.326 18.657C194.828 18.657 194.42 18.5427 194.103 18.3141C193.801 18.0854 193.462 17.7425 193.084 17.2852C192.858 17.0108 192.752 16.8813 192.767 16.8965C192.45 16.5002 192.141 16.0734 191.839 15.6161C191.552 15.1588 191.409 14.8083 191.409 14.5644C191.409 14.3205 191.665 14.1986 192.179 14.1986L193.13 14.2443C193.613 14.29 194.073 14.3129 194.511 14.3129C196.171 14.3129 197.447 14.29 198.338 14.2443C199.243 14.1833 199.938 14.0842 200.421 13.9471C200.919 13.8099 201.357 13.6041 201.734 13.3297C202.142 13.3297 202.549 13.4745 202.957 13.7641C203.365 14.0385 203.697 14.3815 203.953 14.793C204.225 15.1893 204.361 15.5323 204.361 15.8219C204.361 16.1572 204.135 16.4469 203.682 16.6907C203.199 17.3462 202.874 18.3217 202.708 19.6173C202.557 20.913 202.482 22.5134 202.482 24.4188V25.8135L208.55 22.0866V21.2178C208.55 19.846 208.512 18.7942 208.437 18.0626C208.361 17.3157 208.225 16.7974 208.029 16.5078C207.833 16.2182 207.584 15.9972 207.282 15.8448C207.131 15.7533 207.018 15.6695 206.942 15.5933C206.882 15.517 206.859 15.3799 206.874 15.1817C206.874 14.9683 207.108 14.7397 207.576 14.4958C208.059 14.2519 208.595 14.0538 209.184 13.9013C209.788 13.7337 210.233 13.6574 210.52 13.6727C210.777 13.6727 211.094 13.848 211.471 14.1986C211.848 14.5491 212.181 14.9378 212.467 15.3646C212.754 15.7762 212.89 16.0505 212.875 16.1877C212.875 16.1877 212.86 16.927 212.83 18.4055C212.784 22.5668 212.701 26.1336 212.581 29.1059V29.1745C213.109 29.1288 213.834 29.0449 214.754 28.923C215.056 28.8773 215.456 28.8239 215.955 28.7629L215.932 28.6715V27.5511L215.909 19.5487L215.932 15.5704C215.947 15.0369 215.955 14.3891 215.955 13.627C215.955 12.7886 215.902 12.1256 215.796 11.6378C215.705 11.1348 215.607 10.7461 215.502 10.4717C215.396 10.1821 215.328 9.98396 215.298 9.87726C214.739 9.9992 213.871 10.2278 212.694 10.5632C212.377 10.6546 212.09 10.7385 211.833 10.8147C211.592 10.8757 211.426 10.8985 211.335 10.8833C211.094 10.8833 210.746 10.6394 210.294 10.1516C209.856 9.66386 209.448 9.13037 209.071 8.55114C208.693 7.97192 208.505 7.62134 208.505 7.4994C208.475 6.99639 208.641 6.75251 209.003 6.76775C209.471 6.76775 210.505 6.72202 212.105 6.63057C213.162 6.56959 213.773 6.53911 213.939 6.53911C215.298 6.49338 216.468 6.38668 217.449 6.21901C218.43 6.05134 219.464 5.8227 220.551 5.53309L221.525 5.28159C222.129 5.1444 222.951 4.80907 223.993 4.27557C224.265 4.13839 224.521 4.01645 224.763 3.90975C225.004 3.78781 225.186 3.72684 225.306 3.72684C225.503 3.74208 226.069 4.03931 227.005 4.61853C227.941 5.18251 228.801 5.7846 229.586 6.42479C230.386 7.04974 230.786 7.50702 230.786 7.79663C230.786 8.20818 230.673 8.55876 230.447 8.84838C230.22 9.13799 229.948 9.35138 229.631 9.48857C229.329 9.62575 229.073 9.69434 228.861 9.69434C228.68 9.69434 228.424 9.66386 228.092 9.60289C227.775 9.54192 227.541 9.49619 227.39 9.4657C226.605 9.29803 225.872 9.16847 225.193 9.07702C224.529 8.97032 223.782 8.91697 222.951 8.91697C222.725 8.91697 222.325 8.93221 221.751 8.9627C220.981 9.02367 220.393 9.07702 219.985 9.12274C221.012 9.80866 221.525 10.4107 221.525 10.929C221.525 11.1881 221.487 11.6607 221.412 12.3466C221.397 12.5295 221.351 13.0782 221.276 13.9928C221.2 14.9073 221.147 15.9362 221.117 17.0794C222.28 16.8813 223.223 16.5993 223.948 16.2335C224.159 16.142 224.363 16.0201 224.559 15.8676C224.755 15.7 224.876 15.6009 224.921 15.5704C225.163 15.3722 225.359 15.2274 225.51 15.136C225.661 15.0445 225.812 14.9988 225.963 14.9988C226.22 14.9988 226.695 15.2046 227.39 15.6161C228.084 16.0124 228.71 16.4621 229.269 16.9651C229.843 17.4681 230.129 17.872 230.129 18.1769C230.129 18.8323 230.031 19.3201 229.835 19.6402C229.654 19.9603 229.465 20.1203 229.269 20.1203C227.941 20.1203 226.378 20.0441 224.582 19.8917C223.902 19.8612 223.042 19.945 222 20.1432L221.049 20.2804L221.072 28.0313L223.178 27.7341C223.918 27.5969 224.529 27.5054 225.012 27.4597C225.389 27.414 225.759 27.3073 226.122 27.1396C226.499 26.9719 226.929 26.7509 227.412 26.4765C227.85 26.2479 228.182 26.0802 228.409 25.9735C228.635 25.8668 228.846 25.8135 229.043 25.8135ZM196.821 5.05295C196.715 4.97674 196.564 4.88528 196.368 4.77858C196.187 4.65664 196.036 4.54994 195.915 4.45848C195.794 4.35178 195.734 4.25271 195.734 4.16125C195.734 4.00882 195.877 3.93261 196.164 3.93261C197.583 3.93261 198.889 4.10028 200.081 4.43562C201.274 4.77096 202.217 5.2511 202.912 5.87605C203.621 6.48576 203.976 7.20979 203.976 8.04813C203.976 8.33775 203.863 8.75692 203.636 9.30566C203.41 9.85439 203.078 10.3422 202.64 10.769C202.202 11.1957 201.681 11.4015 201.078 11.3863C200.564 11.3863 200.157 11.2643 199.855 11.0205C199.553 10.7613 199.319 10.4489 199.153 10.083C198.987 9.70197 198.813 9.17609 198.632 8.50541C198.406 7.68231 198.164 6.99639 197.907 6.44765C197.666 5.89892 197.304 5.43402 196.821 5.05295Z" fill="#C52E19"/>
<path d="M274.316 15.7076C274.769 15.7076 275.456 15.9591 276.377 16.4621C277.298 16.9499 278.128 17.5062 278.868 18.1312C279.623 18.7561 280 19.2439 280 19.5945C280 19.7469 279.977 19.8841 279.932 20.006C279.887 20.128 279.804 20.3032 279.683 20.5319C279.653 20.5929 279.547 20.8139 279.366 21.1949C279.185 21.576 278.981 22.1171 278.755 22.8183C278.377 23.9767 278.105 24.8761 277.939 25.5162C277.773 26.1412 277.585 27.01 277.373 28.1227C277.162 29.1745 276.634 30.0586 275.788 30.775C274.943 31.4761 274.052 32.002 273.116 32.3526C272.18 32.6879 271.509 32.8556 271.101 32.8556C270.799 32.8556 270.573 32.7489 270.422 32.5355C270.271 32.3221 270.082 31.941 269.856 31.3923C269.493 30.4777 269.056 29.6623 268.542 28.9458C268.029 28.2142 267.244 27.5359 266.187 26.911C266.051 26.8195 265.984 26.7128 265.984 26.5909C265.984 26.4689 266.029 26.3622 266.119 26.2708C266.21 26.1793 266.323 26.1336 266.459 26.1336C266.535 26.1336 266.618 26.1564 266.708 26.2022C266.844 26.2631 267.297 26.3622 268.067 26.4994C268.852 26.6366 269.486 26.6976 269.969 26.6823C270.754 26.6671 271.388 26.0726 271.871 24.8989C272.369 23.7252 272.716 22.2924 272.913 20.6005C272.928 20.5395 272.935 20.4481 272.935 20.3261C272.935 20.1432 272.875 20.006 272.754 19.9146C272.648 19.8231 272.422 19.7774 272.075 19.7774C271.878 19.7774 271.72 19.785 271.599 19.8002C270.739 19.8612 268.822 20.067 265.848 20.4176C263.281 20.7224 261.719 20.9053 261.16 20.9663L261.432 32.8099C261.432 33.1147 261.266 33.7016 260.934 34.5704C260.602 35.4545 260.202 36.2471 259.734 36.9483C259.281 37.6494 258.843 38 258.421 38C258.104 38 257.726 37.7104 257.288 37.1312C256.866 36.5672 256.496 35.9118 256.179 35.1649C255.862 34.4332 255.703 33.8845 255.703 33.5187L255.726 31.781C255.786 28.6105 255.839 25.1885 255.884 21.515C254.028 21.7437 252.065 22.0409 249.997 22.4067C249.303 22.5287 248.661 22.6354 248.072 22.7268C247.499 22.803 247.008 22.8412 246.601 22.8412C246.284 22.8412 245.808 22.5897 245.174 22.0866C244.555 21.5684 243.944 20.9968 243.34 20.3718C242.751 19.7469 242.434 19.3811 242.389 19.2744C242.359 19.1829 242.389 19.061 242.479 18.9085C242.585 18.7409 242.713 18.6037 242.864 18.497C243.03 18.3751 243.166 18.3217 243.272 18.3369C245.189 18.6266 246.623 18.7714 247.574 18.7714C249.054 18.8018 251.831 18.6875 255.907 18.4284V12.438L254.548 12.6667C253.597 12.8191 253.054 12.8953 252.918 12.8953C252.677 12.8953 252.292 12.72 251.763 12.3694C251.235 12.0036 250.729 11.5997 250.246 11.1576C249.763 10.7004 249.476 10.3803 249.386 10.1974C249.371 10.1669 249.363 10.1211 249.363 10.0602C249.363 9.95347 249.393 9.86201 249.454 9.7858C249.529 9.69434 249.62 9.65624 249.725 9.67148C250.027 9.67148 250.269 9.6791 250.45 9.69434L251.537 9.71721L252.194 9.69434C253.039 9.64862 254.262 9.50381 255.862 9.25993C255.786 5.86081 255.643 4.03169 255.432 3.77256C255.205 3.49819 254.941 3.23145 254.639 2.97232C254.398 2.75892 254.231 2.58363 254.141 2.44645C254.05 2.29402 254.005 2.08825 254.005 1.82912C254.005 1.53951 254.164 1.25752 254.481 0.983153C254.798 0.693542 255.16 0.45728 255.567 0.274368C255.975 0.0914561 256.269 0 256.451 0C256.617 0 257.13 0.259126 257.99 0.777377C258.851 1.28039 259.643 1.81388 260.368 2.37786C261.108 2.92659 261.477 3.3229 261.477 3.56679C261.477 3.76494 261.44 3.98596 261.364 4.22984C261.289 4.47373 261.206 4.71761 261.115 4.96149C261.04 5.17489 260.964 5.38829 260.889 5.60168C260.828 5.81508 260.798 5.99037 260.798 6.12756L260.843 8.45969L263.946 7.88809C264.67 7.73566 265.614 7.41556 266.776 6.9278C266.897 6.88207 267.055 6.8211 267.252 6.74489C267.448 6.66867 267.576 6.63057 267.637 6.63057C267.999 6.63057 268.588 6.88207 269.403 7.38508C270.233 7.87284 270.98 8.4292 271.645 9.05415C272.309 9.66386 272.641 10.144 272.641 10.4946C272.641 10.708 272.596 10.8985 272.505 11.0662C272.429 11.2339 272.286 11.4701 272.075 11.775C271.863 12.0798 271.69 12.3466 271.554 12.5752C271.433 12.7886 271.343 13.0401 271.282 13.3297L270.739 15.3189C270.618 15.7152 270.437 16.3554 270.195 17.2395C270.965 17.087 271.584 16.9118 272.052 16.7136C272.535 16.5154 272.996 16.2944 273.433 16.0505C273.599 15.9591 273.758 15.8829 273.909 15.8219C274.06 15.7457 274.196 15.7076 274.316 15.7076ZM270.444 3.10951C269.584 2.74368 269.154 2.43883 269.154 2.19495C269.154 2.073 269.252 1.97393 269.448 1.89771C269.659 1.8215 269.886 1.76815 270.127 1.73767C270.505 1.67669 270.973 1.64621 271.531 1.64621C273.101 1.64621 274.603 1.9282 276.037 2.49218C277.471 3.04091 278.438 3.86402 278.936 4.96149C279.072 5.28159 279.14 5.60168 279.14 5.92178C279.14 6.501 278.958 7.08022 278.596 7.65945C278.249 8.23867 277.811 8.71119 277.283 9.07702C276.754 9.44284 276.256 9.62575 275.788 9.62575C275.456 9.62575 275.192 9.48095 274.996 9.19134C274.815 8.90172 274.588 8.41396 274.316 7.72804C274.03 7.01163 273.75 6.40193 273.479 5.89892C273.207 5.38067 272.822 4.87004 272.324 4.36703C271.826 3.84878 271.199 3.4296 270.444 3.10951ZM260.957 13.1239L261.093 18.1083L263.719 17.9025L265.033 17.8111C265.591 15.8905 266.014 14.1147 266.301 12.4838C266.331 12.2704 266.346 12.1256 266.346 12.0493C266.346 11.775 266.255 11.5692 266.074 11.432C265.893 11.2948 265.553 11.2262 265.055 11.2262C264.799 11.2262 264.489 11.2491 264.127 11.2948L260.934 11.6835L260.957 13.1239Z" fill="#C52E19"/>
<path d="M12.5503 12.992C12.5503 12.4155 12.3995 11.711 12.0978 10.8783C11.8121 10.0296 11.3278 9.28503 10.6451 8.64452C9.97833 7.98799 9.11306 7.65973 8.04934 7.65973C6.87449 7.65973 5.89015 7.94796 5.09633 8.52442C4.31838 9.08487 3.74683 9.73339 3.38168 10.47C3.01652 11.1906 2.83394 11.783 2.83394 12.2474C2.83394 12.5196 2.68311 12.7758 2.38146 13.016C2.07981 13.2402 1.80991 13.3523 1.57176 13.3523C1.33362 13.3523 1.11929 13.2482 0.92877 13.04C0.75413 12.8319 0.666809 12.5596 0.666809 12.2234C0.666809 11.3747 0.857326 10.2458 1.23836 8.83667C1.63527 7.42754 2.44497 6.10649 3.66745 4.8735C4.88994 3.6245 6.6284 3 8.88285 3C11.2326 3 13.1139 3.42434 14.5269 4.27302C15.9399 5.1217 16.9322 6.15452 17.5037 7.3715C18.0912 8.58847 18.3849 9.80544 18.3849 11.0224C18.3849 12.5436 17.9086 14.0969 16.956 15.6821C16.0034 17.2674 14.9159 18.7086 13.6934 20.0056C12.4709 21.2866 10.9706 22.7438 9.19244 24.3771C8.16048 25.3219 7.41429 26.0264 6.95387 26.4908C6.50933 26.9552 6.28706 27.2994 6.28706 27.5236C6.28706 27.7478 6.43789 27.9079 6.73954 28.004C7.04119 28.0841 7.49367 28.1241 8.09697 28.1241C8.6844 28.1241 9.38296 28.1001 10.1927 28.052C10.4784 28.052 10.9388 28.036 11.5739 28.004C12.9234 27.956 13.9077 27.8279 14.5269 27.6197C15.162 27.4115 15.5986 27.0432 15.8367 26.5148C16.0749 25.9704 16.1939 25.1217 16.1939 23.9688C16.1939 23.7926 16.2257 23.6645 16.2892 23.5845C16.3686 23.4884 16.4638 23.4404 16.575 23.4404C16.6861 23.4404 16.7734 23.4884 16.8369 23.5845C16.9163 23.6645 16.956 23.7846 16.956 23.9448C16.956 24.8094 17.0116 25.49 17.1227 25.9864C17.2338 26.4828 17.3688 26.8511 17.5276 27.0913C17.6863 27.3155 17.9086 27.5556 18.1944 27.8118C18.4008 27.988 18.5754 28.1561 18.7183 28.3163C18.8612 28.4764 18.9882 28.6765 19.0993 28.9167C19.3216 29.3971 19.4327 29.9255 19.4327 30.502C19.4327 31.1585 19.2898 31.727 19.0041 32.2074C18.7183 32.6878 18.3134 32.9279 17.7895 32.9279C17.6943 32.9279 17.3529 32.8879 16.7655 32.8078C14.6063 32.4716 12.7805 32.3034 11.2881 32.3034C9.90688 32.3034 8.55739 32.3515 7.23964 32.4476C5.9219 32.5597 4.52478 32.6878 3.04827 32.8319L2.09569 32.9279C1.88929 32.9279 1.61939 32.8479 1.28599 32.6878C0.952585 32.5436 0.650933 32.3275 0.381034 32.0392C0.127011 31.751 0 31.4067 0 31.0064C0 30.3659 0.388972 29.6613 1.16692 28.8927L2.81013 27.3074C4.81055 25.4019 6.4617 23.7526 7.76357 22.3595C9.06543 20.9504 10.1847 19.4291 11.1214 17.7958C12.074 16.1465 12.5503 14.5452 12.5503 12.992Z" fill="#FF4F49"/>
<path d="M32.8023 33C31.0876 33 29.5555 32.6717 28.206 32.0152C26.8724 31.3587 25.7611 30.0536 24.872 28.1001C23.9829 26.1305 23.5384 23.3363 23.5384 19.7174C23.5384 16.0024 23.975 12.9199 24.8482 10.47C25.7373 8.004 26.9042 6.19456 28.3489 5.04163C29.8096 3.8727 31.421 3.28823 33.1833 3.28823C34.501 3.28823 35.7791 3.48038 37.0174 3.86469C38.2558 4.249 39.4704 5.43395 40.6611 7.41954C41.8518 9.38911 42.4472 12.4796 42.4472 16.691C42.4472 22.984 41.5184 27.2754 39.6609 29.5653C37.8192 31.8551 35.533 33 32.8023 33ZM33.35 30.7182C34.2708 30.7182 35.0091 30.3579 35.5648 29.6373C36.1363 28.9167 36.557 27.6918 36.8269 25.9624C37.0968 24.233 37.2318 21.8471 37.2318 18.8046C37.2318 14.257 36.8111 10.9584 35.9696 8.90873C35.1282 6.85909 34.0247 5.83427 32.6594 5.83427C31.8973 5.83427 31.2384 6.1225 30.6828 6.69896C30.143 7.27542 29.6984 8.41233 29.3491 10.1097C29.0157 11.807 28.849 14.241 28.849 17.4115C28.849 22.1994 29.238 25.6181 30.0159 27.6677C30.8098 29.7014 31.9211 30.7182 33.35 30.7182Z" fill="#FF4F49"/>
<path d="M59.1031 12.992C59.1031 12.4155 58.9523 11.711 58.6507 10.8783C58.3649 10.0296 57.8806 9.28503 57.198 8.64452C56.5311 7.98799 55.6659 7.65973 54.6022 7.65973C53.4273 7.65973 52.443 7.94796 51.6492 8.52442C50.8712 9.08487 50.2997 9.73339 49.9345 10.47C49.5693 11.1906 49.3868 11.783 49.3868 12.2474C49.3868 12.5196 49.2359 12.7758 48.9343 13.016C48.6326 13.2402 48.3627 13.3523 48.1246 13.3523C47.8864 13.3523 47.6721 13.2482 47.4816 13.04C47.307 12.8319 47.2196 12.5596 47.2196 12.2234C47.2196 11.3747 47.4101 10.2458 47.7912 8.83667C48.1881 7.42754 48.9978 6.10649 50.2203 4.8735C51.4428 3.6245 53.1812 3 55.4357 3C57.7854 3 59.6667 3.42434 61.0797 4.27302C62.4927 5.1217 63.485 6.15452 64.0566 7.3715C64.644 8.58847 64.9377 9.80544 64.9377 11.0224C64.9377 12.5436 64.4614 14.0969 63.5088 15.6821C62.5562 17.2674 61.4687 18.7086 60.2462 20.0056C59.0237 21.2866 57.5234 22.7438 55.7453 24.3771C54.7133 25.3219 53.9671 26.0264 53.5067 26.4908C53.0622 26.9552 52.8399 27.2994 52.8399 27.5236C52.8399 27.7478 52.9907 27.9079 53.2924 28.004C53.594 28.0841 54.0465 28.1241 54.6498 28.1241C55.2372 28.1241 55.9358 28.1001 56.7455 28.052C57.0313 28.052 57.4917 28.036 58.1267 28.004C59.4762 27.956 60.4606 27.8279 61.0797 27.6197C61.7148 27.4115 62.1514 27.0432 62.3895 26.5148C62.6277 25.9704 62.7468 25.1217 62.7468 23.9688C62.7468 23.7926 62.7785 23.6645 62.842 23.5845C62.9214 23.4884 63.0167 23.4404 63.1278 23.4404C63.2389 23.4404 63.3263 23.4884 63.3898 23.5845C63.4691 23.6645 63.5088 23.7846 63.5088 23.9448C63.5088 24.8094 63.5644 25.49 63.6755 25.9864C63.7867 26.4828 63.9216 26.8511 64.0804 27.0913C64.2392 27.3155 64.4614 27.5556 64.7472 27.8118C64.9536 27.988 65.1282 28.1561 65.2711 28.3163C65.414 28.4764 65.541 28.6765 65.6521 28.9167C65.8744 29.3971 65.9855 29.9255 65.9855 30.502C65.9855 31.1585 65.8427 31.727 65.5569 32.2074C65.2711 32.6878 64.8663 32.9279 64.3423 32.9279C64.2471 32.9279 63.9057 32.8879 63.3183 32.8078C61.1591 32.4716 59.3333 32.3034 57.841 32.3034C56.4597 32.3034 55.1102 32.3515 53.7925 32.4476C52.4747 32.5597 51.0776 32.6878 49.6011 32.8319L48.6485 32.9279C48.4421 32.9279 48.1722 32.8479 47.8388 32.6878C47.5054 32.5436 47.2038 32.3275 46.9339 32.0392C46.6798 31.751 46.5528 31.4067 46.5528 31.0064C46.5528 30.3659 46.9418 29.6613 47.7197 28.8927L49.3629 27.3074C51.3634 25.4019 53.0145 23.7526 54.3164 22.3595C55.6183 20.9504 56.7375 19.4291 57.6743 17.7958C58.6268 16.1465 59.1031 14.5452 59.1031 12.992Z" fill="#FF4F49"/>
<path d="M79.3551 33C77.6404 33 76.1084 32.6717 74.7589 32.0152C73.4252 31.3587 72.3139 30.0536 71.4248 28.1001C70.5357 26.1305 70.0912 23.3363 70.0912 19.7174C70.0912 16.0024 70.5278 12.9199 71.401 10.47C72.2901 8.004 73.457 6.19456 74.9017 5.04163C76.3624 3.8727 77.9738 3.28823 79.7361 3.28823C81.0538 3.28823 82.3319 3.48038 83.5703 3.86469C84.8086 4.249 86.0232 5.43395 87.2139 7.41954C88.4046 9.38911 89 12.4796 89 16.691C89 22.984 88.0712 27.2754 86.2137 29.5653C84.372 31.8551 82.0858 33 79.3551 33ZM79.9028 30.7182C80.8236 30.7182 81.5619 30.3579 82.1176 29.6373C82.6891 28.9167 83.1099 27.6918 83.3798 25.9624C83.6497 24.233 83.7846 21.8471 83.7846 18.8046C83.7846 14.257 83.3639 10.9584 82.5224 8.90873C81.681 6.85909 80.5776 5.83427 79.2122 5.83427C78.4501 5.83427 77.7912 6.1225 77.2356 6.69896C76.6958 7.27542 76.2512 8.41233 75.902 10.1097C75.5686 11.807 75.4018 14.241 75.4018 17.4115C75.4018 22.1994 75.7908 25.6181 76.5688 27.6677C77.3626 29.7014 78.4739 30.7182 79.9028 30.7182Z" fill="#FF4F49"/>
<path d="M138.427 23.4356C138.442 23.6643 138.253 23.992 137.861 24.4188C137.483 24.8456 137.038 25.2343 136.525 25.5848C136.012 25.9354 135.581 26.1183 135.234 26.1336C135.204 26.1336 135.008 26.0726 134.645 25.9507C131.204 24.7922 127.996 24.213 125.022 24.213C124.72 24.213 124.267 24.2282 123.663 24.2587C122.697 24.3045 121.739 24.373 120.788 24.4645C121.029 28.4886 121.135 30.8664 121.105 31.5981C121.074 32.2992 120.818 33.0842 120.335 33.9531C119.867 34.8371 119.338 35.6069 118.75 36.2623C118.176 36.9178 117.783 37.2455 117.572 37.2455C117.376 37.2455 117.081 36.9025 116.689 36.2166C116.312 35.5459 115.964 34.7914 115.647 33.9531C115.345 33.13 115.195 32.5203 115.195 32.1239L115.24 30.5921C115.315 29.144 115.376 27.2996 115.421 25.059C110.983 25.6382 105.994 26.5451 100.453 27.7798C100.121 27.8408 99.7892 27.9093 99.4571 27.9856C99.125 28.0618 98.9288 28.0999 98.8684 28.0999C98.4457 28.1151 98.1287 28.0618 97.9174 27.9398C97.706 27.8179 97.4192 27.5588 97.0569 27.1625L96.604 26.7052C96.2417 26.3394 95.7285 25.9278 95.0643 25.4705C94.6869 25.1809 94.4151 24.9675 94.2491 24.8303C94.083 24.6779 94 24.5483 94 24.4416C94 24.1673 94.1283 23.9539 94.3849 23.8014C94.6567 23.6338 94.9208 23.5652 95.1775 23.5957C95.6756 23.6566 96.3927 23.6871 97.3286 23.6871C99.2307 23.6871 101.359 23.5728 103.714 23.3442L106.069 23.0927C106.084 22.9402 106.092 22.7268 106.092 22.4525C106.092 21.6903 106.016 21.1187 105.865 20.7377C105.729 20.3414 105.571 20.0365 105.39 19.8231C105.224 19.5945 105.141 19.4497 105.141 19.3887C105.141 19.2667 105.231 19.1296 105.412 18.9771C105.594 18.8095 105.797 18.6723 106.024 18.5656C106.25 18.4589 106.401 18.4132 106.477 18.4284C106.748 18.4589 107.103 18.5351 107.541 18.657C107.994 18.7637 108.401 18.8781 108.764 19L110.213 19.4344L110.711 19.5716C110.847 19.6173 110.968 19.7545 111.073 19.9832C111.194 20.2118 111.255 20.4709 111.255 20.7605C111.255 20.852 111.239 20.9892 111.209 21.1721C111.134 21.4769 110.938 21.9571 110.62 22.6125L115.444 22.0638C115.444 20.006 115.406 18.2226 115.33 16.7136C114.077 16.927 113.081 17.1328 112.341 17.3309C111.602 17.5138 110.749 17.7425 109.783 18.0168C109.541 18.0778 109.066 17.9559 108.356 17.651C107.647 17.3462 106.937 16.9956 106.228 16.5993C105.533 16.1877 105.148 15.9286 105.073 15.8219C104.997 15.6847 105.012 15.5094 105.118 15.296C105.239 15.0826 105.375 14.9759 105.526 14.9759C107.79 14.8997 110.998 14.4348 115.149 13.5812C115.028 12.1179 114.87 10.7461 114.674 9.4657C113.602 9.75531 112.296 10.1974 110.756 10.7918C109.443 11.7978 108.001 12.72 106.431 13.5584C104.877 14.3967 103.548 14.9759 102.446 15.296C102.114 15.3875 101.872 15.4332 101.722 15.4332C101.586 15.4332 101.518 15.3951 101.518 15.3189C101.518 15.2274 101.661 15.0369 101.948 14.7473C104.258 12.4609 105.918 10.5251 106.93 8.93983C107.941 7.33935 108.439 5.86081 108.424 4.50421C108.424 4.33654 108.371 4.19174 108.266 4.0698C108.16 3.93261 108.001 3.76494 107.79 3.56679C107.684 3.47533 107.586 3.38387 107.496 3.29242C107.405 3.18572 107.36 3.09426 107.36 3.01805C107.36 2.89611 107.745 2.61412 108.515 2.17208C109.3 1.7148 109.805 1.47854 110.032 1.4633C110.288 1.44805 110.802 1.7148 111.572 2.26354C112.357 2.81227 113.058 3.43722 113.677 4.13839C114.296 4.82431 114.591 5.40353 114.56 5.87605C114.56 5.95227 114.545 6.08183 114.515 6.26474L116.757 5.80746C117.225 5.716 117.957 5.56358 118.953 5.35018C119.285 5.27397 119.633 5.15203 119.995 4.98436C120.357 4.81669 120.697 4.6414 121.014 4.45848C121.346 4.27557 121.573 4.15363 121.693 4.09266C122.131 3.83353 122.486 3.63538 122.758 3.49819C123.029 3.36101 123.241 3.29242 123.392 3.29242C123.86 3.29242 124.644 3.52868 125.746 4.0012C126.864 4.45848 127.86 4.9996 128.735 5.62455C129.626 6.2495 130.071 6.80586 130.071 7.29362C130.071 7.52226 129.92 7.78139 129.619 8.071C129.317 8.36061 128.954 8.60449 128.532 8.80265C128.124 9.0008 127.777 9.09226 127.49 9.07702C127.43 9.06177 126.977 8.93221 126.131 8.68833C125.301 8.4292 124.116 8.29964 122.576 8.29964C121.822 8.29964 121.006 8.33775 120.131 8.41396C120.433 8.76454 120.584 9.06939 120.584 9.32852C120.584 9.37425 120.569 9.44284 120.538 9.5343C120.252 10.1745 120.108 10.5937 120.108 10.7918C120.108 11.1272 120.123 11.6759 120.153 12.438C120.742 12.2551 121.505 11.9579 122.441 11.5463C122.878 11.3482 123.293 11.1729 123.686 11.0205C124.093 10.868 124.38 10.7918 124.546 10.7918C124.939 10.7918 125.52 11.0128 126.29 11.4549C127.075 11.8969 127.777 12.3923 128.396 12.941C129.03 13.4745 129.347 13.8708 129.347 14.13C129.347 14.3129 129.188 14.5949 128.871 14.9759C128.569 15.357 128.222 15.6923 127.83 15.9819C127.437 16.2716 127.113 16.4087 126.856 16.3935C126.781 16.3935 126.313 16.3249 125.452 16.1877C124.607 16.0505 123.543 15.9819 122.259 15.9819C121.897 15.9819 121.618 15.9896 121.422 16.0048L120.289 16.0734C120.365 17.491 120.471 19.2896 120.606 21.4693L123.459 21.0806C124.969 20.8672 126.275 20.631 127.377 20.3718C128.494 20.1127 129.603 19.8307 130.705 19.5259C130.796 19.4954 131.053 19.4268 131.475 19.3201C131.913 19.1982 132.223 19.1372 132.404 19.1372C132.706 19.1372 133.355 19.442 134.351 20.0517C135.347 20.6462 136.276 21.294 137.136 21.9952C137.997 22.6963 138.427 23.1765 138.427 23.4356Z" fill="#FF4F49"/>
<path d="M180.146 14.5415C180.463 14.5415 181.036 14.8235 181.867 15.3875C182.697 15.9515 183.474 16.5612 184.199 17.2166C184.924 17.8568 185.286 18.2836 185.286 18.497C185.286 18.6647 185.075 18.9238 184.652 19.2744C184.244 19.6097 183.791 19.9222 183.293 20.2118C182.795 20.4862 182.433 20.6233 182.206 20.6233C182.07 20.6233 181.897 20.5929 181.686 20.5319C181.489 20.4709 181.278 20.3947 181.051 20.3032C180.312 20.0289 179.595 19.8155 178.9 19.6631C178.206 19.5106 177.391 19.4573 176.455 19.503C175.051 19.5487 173.398 19.6478 171.496 19.8002L170.749 19.846C170.749 20.6691 170.839 22.5897 171.02 25.6077C171.201 28.4733 171.292 30.2262 171.292 30.8664C171.292 31.4609 171.005 32.2992 170.432 33.3815C169.858 34.4637 169.201 35.424 168.462 36.2623C167.722 37.1007 167.118 37.5199 166.65 37.5199C166.409 37.5199 166.205 37.375 166.039 37.0854C165.873 36.8111 165.646 36.3233 165.359 35.6221C165.073 34.8753 164.793 34.2274 164.522 33.6787C164.265 33.1452 163.903 32.6574 163.435 32.2154C162.982 31.7581 162.423 31.4533 161.759 31.3008C161.623 31.2704 161.51 31.2094 161.419 31.1179C161.329 31.0265 161.284 30.935 161.284 30.8436C161.284 30.7369 161.336 30.653 161.442 30.5921C161.548 30.5158 161.714 30.4777 161.94 30.4777C162.001 30.4777 162.204 30.5082 162.552 30.5692C162.899 30.6302 163.269 30.6607 163.661 30.6607C164.793 30.6607 165.435 30.3024 165.586 29.586C165.797 28.6715 165.903 26.4918 165.903 23.0469C165.903 21.8123 165.895 20.9053 165.88 20.3261C163.238 20.6615 161.05 21.0273 159.314 21.4236C159.797 22.1095 160.234 22.9174 160.627 23.8472C161.019 24.7617 161.216 25.7144 161.216 26.7052C161.216 27.6197 161.019 28.4276 160.627 29.1288C160.234 29.8147 159.782 30.3482 159.268 30.7292C158.755 31.1103 158.332 31.3008 158 31.3008C157.623 31.3008 157.291 30.996 157.004 30.3863C156.732 29.7613 156.596 29.0373 156.596 28.2142C156.596 27.8484 156.845 27.01 157.344 25.6992C157.691 24.7236 157.955 23.9158 158.136 23.2756C158.332 22.6201 158.415 22.079 158.385 21.6522L157.751 21.7894C157.298 21.9114 156.989 21.9723 156.823 21.9723C156.551 21.9723 156.204 21.8351 155.781 21.5608C155.358 21.2864 154.921 20.9511 154.468 20.5548C154.74 27.1091 154.875 30.8588 154.875 31.8039C154.875 32.3831 154.664 33.1223 154.241 34.0217C153.819 34.9362 153.336 35.7441 152.792 36.4452C152.249 37.1617 151.826 37.5199 151.524 37.5199C151.222 37.5199 150.928 37.2836 150.641 36.8111C150.369 36.3385 150.15 35.6984 149.984 34.8905C149.818 34.0826 149.735 33.1986 149.735 32.2383L149.758 30.775C149.879 26.7052 149.939 21.5913 149.939 15.4332C147.554 17.7653 145.154 19.6935 142.738 21.2178C142.542 21.355 142.353 21.4236 142.172 21.4236C141.916 21.4236 141.787 21.3016 141.787 21.0578C141.787 20.8596 141.893 20.631 142.104 20.3718C144.61 17.3385 146.52 14.7473 147.833 12.5981C149.162 10.4489 150.022 8.79503 150.415 7.63658C150.822 6.47814 151.026 5.61693 151.026 5.05295C151.026 4.77858 150.898 4.49659 150.641 4.20698C150.566 4.11552 150.49 4.02407 150.415 3.93261C150.354 3.82591 150.324 3.71921 150.324 3.61251C150.324 3.49057 150.49 3.3229 150.822 3.10951C151.154 2.88087 151.517 2.67509 151.909 2.49218C152.317 2.30927 152.596 2.21781 152.747 2.21781C152.988 2.21781 153.426 2.50742 154.06 3.08664C154.694 3.65062 155.275 4.27557 155.804 4.96149C156.347 5.63217 156.619 6.10469 156.619 6.37906C156.619 6.77537 156.4 7.36221 155.962 8.13959C155.524 8.90172 154.921 9.77818 154.151 10.769C154.166 11.9731 154.226 13.9699 154.332 16.7593L154.4 18.84C155.019 18.8247 156.551 18.7333 158.997 18.5656C160.944 18.4284 163.201 18.1769 165.767 17.8111L165.631 16.4164C165.51 15.5475 165.314 14.8692 165.042 14.3815C164.937 14.4272 164.824 14.4729 164.703 14.5187C164.582 14.5491 164.454 14.5872 164.318 14.633C164.106 15.1512 163.774 15.6619 163.321 16.1649C162.884 16.6679 162.506 16.9194 162.189 16.9194C161.933 16.9194 161.616 16.6602 161.238 16.142C160.876 15.6237 160.551 15.0293 160.265 14.3586C159.993 13.6879 159.849 13.1697 159.834 12.8039C159.729 11.0052 159.555 9.67148 159.314 8.80265C159.072 7.91857 158.8 7.20217 158.498 6.65343C158.378 6.44003 158.317 6.27998 158.317 6.17329C158.317 5.97513 158.393 5.79984 158.544 5.64741C158.71 5.49499 158.913 5.41877 159.155 5.41877C159.321 5.41877 159.774 5.60169 160.514 5.96751C161.268 6.33333 161.978 6.73726 162.642 7.1793C163.321 7.62134 163.714 7.97954 163.82 8.25391C164.001 8.69595 164.159 9.77056 164.295 11.4777C165.548 11.2643 167.156 10.9138 169.118 10.426C169.616 10.3041 170.069 10.1669 170.477 10.0144C170.552 9.74007 170.749 9.14561 171.066 8.23105C171.398 7.24027 171.571 6.69916 171.586 6.6077C171.617 6.45528 171.632 6.3562 171.632 6.31047C171.632 6.18853 171.594 6.11231 171.518 6.08183C171.458 6.05134 171.337 6.0361 171.156 6.0361C169.737 6.09707 168.62 6.19615 167.805 6.33333C167.005 6.47052 166.31 6.62294 165.722 6.79061C165.329 6.89731 165.065 6.95066 164.929 6.95066C164.552 6.95066 163.986 6.69916 163.231 6.19615C162.476 5.69314 161.895 5.23586 161.487 4.82431C161.367 4.70237 161.306 4.5728 161.306 4.43562C161.306 4.26795 161.397 4.18412 161.578 4.18412C162.997 4.18412 164.356 4.03931 165.654 3.7497C166.952 3.44485 168.205 3.09426 169.413 2.69795C170.107 2.45407 170.658 2.21781 171.066 1.98917C171.473 1.76053 171.866 1.50903 172.243 1.23466C172.439 1.08223 172.598 0.975532 172.719 0.914561C172.839 0.838347 172.968 0.800241 173.104 0.800241C173.255 0.800241 173.473 0.929803 173.76 1.18893C174.047 1.44805 174.44 1.84436 174.938 2.37786C175.798 3.24669 176.228 3.68111 176.228 3.68111C176.545 3.98596 176.968 4.37465 177.496 4.84717C178.327 5.62455 178.908 6.19615 179.24 6.56197C179.587 6.91256 179.761 7.18692 179.761 7.38508C179.761 7.59848 179.663 7.84998 179.466 8.13959C179.27 8.41396 178.923 8.856 178.425 9.4657C177.474 10.5937 176.727 11.5844 176.183 12.438C175.881 12.9105 175.489 13.2992 175.006 13.6041C174.538 13.9089 174.1 14.0614 173.692 14.0614C173.496 14.0614 173.179 13.9623 172.741 13.7641C172.303 13.5507 171.888 13.2916 171.496 12.9868C170.832 13.0325 169.986 13.1468 168.96 13.3297C170.183 14.0156 170.794 14.5568 170.794 14.9531C170.794 15.7609 170.786 16.4392 170.771 16.988C171.994 16.7593 173.262 16.5154 174.575 16.2563C175.994 15.9667 177.406 15.5323 178.81 14.9531C179.097 14.8311 179.353 14.732 179.58 14.6558C179.806 14.5796 179.995 14.5415 180.146 14.5415ZM174.915 21.1264C175.504 21.3855 176.357 21.8275 177.474 22.4525C178.591 23.0774 179.648 23.8319 180.644 24.716C181.655 25.6001 182.161 26.4613 182.161 27.2996C182.161 28.1837 181.942 29.0068 181.504 29.769C181.067 30.5158 180.523 31.1179 179.874 31.5752C179.24 32.0173 178.651 32.2383 178.108 32.2383C177.791 32.2383 177.504 31.8724 177.247 31.1408C177.006 30.3939 176.689 29.2202 176.296 27.6197C175.934 26.0955 175.609 24.8761 175.323 23.9615C175.036 23.0469 174.711 22.3534 174.349 21.8809C174.183 21.6675 174.1 21.4846 174.1 21.3321C174.1 21.1492 174.236 21.0578 174.507 21.0578C174.643 21.0578 174.779 21.0806 174.915 21.1264Z" fill="#FF4F49"/>
<path d="M229.043 25.8135C229.45 25.8135 230.22 26.1488 231.352 26.8195C232.484 27.4749 233.511 28.2142 234.432 29.0373C235.368 29.8452 235.836 30.4854 235.836 30.9579C235.836 31.278 235.677 31.659 235.36 32.1011C235.058 32.5279 234.696 32.8937 234.273 33.1986C233.866 33.5187 233.519 33.6787 233.232 33.6787C233.096 33.6787 232.817 33.6101 232.394 33.4729C231.971 33.3357 231.669 33.2367 231.488 33.1757C230.114 32.7184 228.839 32.3373 227.661 32.0325C226.499 31.7276 225.374 31.5676 224.287 31.5523C223.804 31.5371 223.11 31.5295 222.204 31.5295C218.204 31.5295 215.109 31.7429 212.92 32.1697C210.746 32.5812 208.958 33.0614 207.554 33.6101C207.101 33.7778 206.814 33.8616 206.693 33.8616C206.255 33.8464 205.704 33.6101 205.04 33.1528C204.376 32.6955 203.855 32.1773 203.478 31.5981C203.357 31.4152 203.297 31.2246 203.297 31.0265C203.297 30.7826 203.38 30.5616 203.546 30.3634C203.727 30.1653 203.968 29.9442 204.27 29.7004C204.452 29.5632 204.587 29.4489 204.678 29.3574C204.769 29.2507 204.814 29.1592 204.814 29.083C204.814 28.9154 204.844 28.8315 204.904 28.8315C204.965 28.8315 205.093 28.9306 205.289 29.1288C205.531 29.3422 205.674 29.4565 205.72 29.4717C205.946 29.5479 206.384 29.586 207.033 29.586C207.516 29.586 207.901 29.5784 208.188 29.5632C208.384 27.6578 208.497 25.6992 208.527 23.6871C206.505 25.7296 204.882 27.4902 203.659 28.9687C202.451 30.432 201.274 31.9182 200.127 33.4272C199.357 34.4332 198.806 35.0963 198.474 35.4164C198.157 35.7365 197.802 35.8965 197.409 35.8965L197.183 35.8736C196.956 35.8432 196.738 35.706 196.526 35.4621C196.33 35.2182 196.088 34.8676 195.802 34.4104C195.59 34.0445 195.371 33.7168 195.145 33.4272C194.617 32.7718 194.269 32.3145 194.103 32.0554C193.952 31.781 193.9 31.4609 193.945 31.0951C193.96 30.8817 194.005 30.7369 194.081 30.6607C194.171 30.5844 194.383 30.4777 194.715 30.3406C195.303 30.0967 195.688 29.929 195.87 29.8375C195.915 29.8223 196.141 29.6927 196.549 29.4489C196.685 29.3574 197.039 29.144 197.613 28.8087C197.96 27.9551 198.224 26.6518 198.406 24.8989C198.587 23.146 198.677 21.3093 198.677 19.3887C198.677 18.5656 198.67 17.9635 198.655 17.5824C198.066 17.7044 197.606 17.8263 197.273 17.9483C196.941 18.0702 196.632 18.2074 196.345 18.3598C196.149 18.4665 195.983 18.5427 195.847 18.5884C195.711 18.6342 195.537 18.657 195.326 18.657C194.828 18.657 194.42 18.5427 194.103 18.3141C193.801 18.0854 193.462 17.7425 193.084 17.2852C192.858 17.0108 192.752 16.8813 192.767 16.8965C192.45 16.5002 192.141 16.0734 191.839 15.6161C191.552 15.1588 191.409 14.8083 191.409 14.5644C191.409 14.3205 191.665 14.1986 192.179 14.1986L193.13 14.2443C193.613 14.29 194.073 14.3129 194.511 14.3129C196.171 14.3129 197.447 14.29 198.338 14.2443C199.243 14.1833 199.938 14.0842 200.421 13.9471C200.919 13.8099 201.357 13.6041 201.734 13.3297C202.142 13.3297 202.549 13.4745 202.957 13.7641C203.365 14.0385 203.697 14.3815 203.953 14.793C204.225 15.1893 204.361 15.5323 204.361 15.8219C204.361 16.1572 204.135 16.4469 203.682 16.6907C203.199 17.3462 202.874 18.3217 202.708 19.6173C202.557 20.913 202.482 22.5134 202.482 24.4188V25.8135L208.55 22.0866V21.2178C208.55 19.846 208.512 18.7942 208.437 18.0626C208.361 17.3157 208.225 16.7974 208.029 16.5078C207.833 16.2182 207.584 15.9972 207.282 15.8448C207.131 15.7533 207.018 15.6695 206.942 15.5933C206.882 15.517 206.859 15.3799 206.874 15.1817C206.874 14.9683 207.108 14.7397 207.576 14.4958C208.059 14.2519 208.595 14.0538 209.184 13.9013C209.788 13.7337 210.233 13.6574 210.52 13.6727C210.777 13.6727 211.094 13.848 211.471 14.1986C211.848 14.5491 212.181 14.9378 212.467 15.3646C212.754 15.7762 212.89 16.0505 212.875 16.1877C212.875 16.1877 212.86 16.927 212.83 18.4055C212.784 22.5668 212.701 26.1336 212.581 29.1059V29.1745C213.109 29.1288 213.834 29.0449 214.754 28.923C215.056 28.8773 215.456 28.8239 215.955 28.7629L215.932 28.6715V27.5511L215.909 19.5487L215.932 15.5704C215.947 15.0369 215.955 14.3891 215.955 13.627C215.955 12.7886 215.902 12.1256 215.796 11.6378C215.705 11.1348 215.607 10.7461 215.502 10.4717C215.396 10.1821 215.328 9.98396 215.298 9.87726C214.739 9.9992 213.871 10.2278 212.694 10.5632C212.377 10.6546 212.09 10.7385 211.833 10.8147C211.592 10.8757 211.426 10.8985 211.335 10.8833C211.094 10.8833 210.746 10.6394 210.294 10.1516C209.856 9.66386 209.448 9.13037 209.071 8.55114C208.693 7.97192 208.505 7.62134 208.505 7.4994C208.475 6.99639 208.641 6.75251 209.003 6.76775C209.471 6.76775 210.505 6.72202 212.105 6.63057C213.162 6.56959 213.773 6.53911 213.939 6.53911C215.298 6.49338 216.468 6.38668 217.449 6.21901C218.43 6.05134 219.464 5.8227 220.551 5.53309L221.525 5.28159C222.129 5.1444 222.951 4.80907 223.993 4.27557C224.265 4.13839 224.521 4.01645 224.763 3.90975C225.004 3.78781 225.186 3.72684 225.306 3.72684C225.503 3.74208 226.069 4.03931 227.005 4.61853C227.941 5.18251 228.801 5.7846 229.586 6.42479C230.386 7.04974 230.786 7.50702 230.786 7.79663C230.786 8.20818 230.673 8.55876 230.447 8.84838C230.22 9.13799 229.948 9.35138 229.631 9.48857C229.329 9.62575 229.073 9.69434 228.861 9.69434C228.68 9.69434 228.424 9.66386 228.092 9.60289C227.775 9.54192 227.541 9.49619 227.39 9.4657C226.605 9.29803 225.872 9.16847 225.193 9.07702C224.529 8.97032 223.782 8.91697 222.951 8.91697C222.725 8.91697 222.325 8.93221 221.751 8.9627C220.981 9.02367 220.393 9.07702 219.985 9.12274C221.012 9.80866 221.525 10.4107 221.525 10.929C221.525 11.1881 221.487 11.6607 221.412 12.3466C221.397 12.5295 221.351 13.0782 221.276 13.9928C221.2 14.9073 221.147 15.9362 221.117 17.0794C222.28 16.8813 223.223 16.5993 223.948 16.2335C224.159 16.142 224.363 16.0201 224.559 15.8676C224.755 15.7 224.876 15.6009 224.921 15.5704C225.163 15.3722 225.359 15.2274 225.51 15.136C225.661 15.0445 225.812 14.9988 225.963 14.9988C226.22 14.9988 226.695 15.2046 227.39 15.6161C228.084 16.0124 228.71 16.4621 229.269 16.9651C229.843 17.4681 230.129 17.872 230.129 18.1769C230.129 18.8323 230.031 19.3201 229.835 19.6402C229.654 19.9603 229.465 20.1203 229.269 20.1203C227.941 20.1203 226.378 20.0441 224.582 19.8917C223.902 19.8612 223.042 19.945 222 20.1432L221.049 20.2804L221.072 28.0313L223.178 27.7341C223.918 27.5969 224.529 27.5054 225.012 27.4597C225.389 27.414 225.759 27.3073 226.122 27.1396C226.499 26.9719 226.929 26.7509 227.412 26.4765C227.85 26.2479 228.182 26.0802 228.409 25.9735C228.635 25.8668 228.846 25.8135 229.043 25.8135ZM196.821 5.05295C196.715 4.97674 196.564 4.88528 196.368 4.77858C196.187 4.65664 196.036 4.54994 195.915 4.45848C195.794 4.35178 195.734 4.25271 195.734 4.16125C195.734 4.00882 195.877 3.93261 196.164 3.93261C197.583 3.93261 198.889 4.10028 200.081 4.43562C201.274 4.77096 202.217 5.2511 202.912 5.87605C203.621 6.48576 203.976 7.20979 203.976 8.04813C203.976 8.33775 203.863 8.75692 203.636 9.30566C203.41 9.85439 203.078 10.3422 202.64 10.769C202.202 11.1957 201.681 11.4015 201.078 11.3863C200.564 11.3863 200.157 11.2643 199.855 11.0205C199.553 10.7613 199.319 10.4489 199.153 10.083C198.987 9.70197 198.813 9.17609 198.632 8.50541C198.406 7.68231 198.164 6.99639 197.907 6.44765C197.666 5.89892 197.304 5.43402 196.821 5.05295Z" fill="#FF4F49"/>
<path d="M274.316 15.7076C274.769 15.7076 275.456 15.9591 276.377 16.4621C277.298 16.9499 278.128 17.5062 278.868 18.1312C279.623 18.7561 280 19.2439 280 19.5945C280 19.7469 279.977 19.8841 279.932 20.006C279.887 20.128 279.804 20.3032 279.683 20.5319C279.653 20.5929 279.547 20.8139 279.366 21.1949C279.185 21.576 278.981 22.1171 278.755 22.8183C278.377 23.9767 278.105 24.8761 277.939 25.5162C277.773 26.1412 277.585 27.01 277.373 28.1227C277.162 29.1745 276.634 30.0586 275.788 30.775C274.943 31.4761 274.052 32.002 273.116 32.3526C272.18 32.6879 271.509 32.8556 271.101 32.8556C270.799 32.8556 270.573 32.7489 270.422 32.5355C270.271 32.3221 270.082 31.941 269.856 31.3923C269.493 30.4777 269.056 29.6623 268.542 28.9458C268.029 28.2142 267.244 27.5359 266.187 26.911C266.051 26.8195 265.984 26.7128 265.984 26.5909C265.984 26.4689 266.029 26.3622 266.119 26.2708C266.21 26.1793 266.323 26.1336 266.459 26.1336C266.535 26.1336 266.618 26.1564 266.708 26.2022C266.844 26.2631 267.297 26.3622 268.067 26.4994C268.852 26.6366 269.486 26.6976 269.969 26.6823C270.754 26.6671 271.388 26.0726 271.871 24.8989C272.369 23.7252 272.716 22.2924 272.913 20.6005C272.928 20.5395 272.935 20.4481 272.935 20.3261C272.935 20.1432 272.875 20.006 272.754 19.9146C272.648 19.8231 272.422 19.7774 272.075 19.7774C271.878 19.7774 271.72 19.785 271.599 19.8002C270.739 19.8612 268.822 20.067 265.848 20.4176C263.281 20.7224 261.719 20.9053 261.16 20.9663L261.432 32.8099C261.432 33.1147 261.266 33.7016 260.934 34.5704C260.602 35.4545 260.202 36.2471 259.734 36.9483C259.281 37.6494 258.843 38 258.421 38C258.104 38 257.726 37.7104 257.288 37.1312C256.866 36.5672 256.496 35.9118 256.179 35.1649C255.862 34.4332 255.703 33.8845 255.703 33.5187L255.726 31.781C255.786 28.6105 255.839 25.1885 255.884 21.515C254.028 21.7437 252.065 22.0409 249.997 22.4067C249.303 22.5287 248.661 22.6354 248.072 22.7268C247.499 22.803 247.008 22.8412 246.601 22.8412C246.284 22.8412 245.808 22.5897 245.174 22.0866C244.555 21.5684 243.944 20.9968 243.34 20.3718C242.751 19.7469 242.434 19.3811 242.389 19.2744C242.359 19.1829 242.389 19.061 242.479 18.9085C242.585 18.7409 242.713 18.6037 242.864 18.497C243.03 18.3751 243.166 18.3217 243.272 18.3369C245.189 18.6266 246.623 18.7714 247.574 18.7714C249.054 18.8018 251.831 18.6875 255.907 18.4284V12.438L254.548 12.6667C253.597 12.8191 253.054 12.8953 252.918 12.8953C252.677 12.8953 252.292 12.72 251.763 12.3694C251.235 12.0036 250.729 11.5997 250.246 11.1576C249.763 10.7004 249.476 10.3803 249.386 10.1974C249.371 10.1669 249.363 10.1211 249.363 10.0602C249.363 9.95347 249.393 9.86201 249.454 9.7858C249.529 9.69434 249.62 9.65624 249.725 9.67148C250.027 9.67148 250.269 9.6791 250.45 9.69434L251.537 9.71721L252.194 9.69434C253.039 9.64862 254.262 9.50381 255.862 9.25993C255.786 5.86081 255.643 4.03169 255.432 3.77256C255.205 3.49819 254.941 3.23145 254.639 2.97232C254.398 2.75892 254.231 2.58363 254.141 2.44645C254.05 2.29402 254.005 2.08825 254.005 1.82912C254.005 1.53951 254.164 1.25752 254.481 0.983153C254.798 0.693542 255.16 0.45728 255.567 0.274368C255.975 0.0914561 256.269 0 256.451 0C256.617 0 257.13 0.259126 257.99 0.777377C258.851 1.28039 259.643 1.81388 260.368 2.37786C261.108 2.92659 261.477 3.3229 261.477 3.56679C261.477 3.76494 261.44 3.98596 261.364 4.22984C261.289 4.47373 261.206 4.71761 261.115 4.96149C261.04 5.17489 260.964 5.38829 260.889 5.60168C260.828 5.81508 260.798 5.99037 260.798 6.12756L260.843 8.45969L263.946 7.88809C264.67 7.73566 265.614 7.41556 266.776 6.9278C266.897 6.88207 267.055 6.8211 267.252 6.74489C267.448 6.66867 267.576 6.63057 267.637 6.63057C267.999 6.63057 268.588 6.88207 269.403 7.38508C270.233 7.87284 270.98 8.4292 271.645 9.05415C272.309 9.66386 272.641 10.144 272.641 10.4946C272.641 10.708 272.596 10.8985 272.505 11.0662C272.429 11.2339 272.286 11.4701 272.075 11.775C271.863 12.0798 271.69 12.3466 271.554 12.5752C271.433 12.7886 271.343 13.0401 271.282 13.3297L270.739 15.3189C270.618 15.7152 270.437 16.3554 270.195 17.2395C270.965 17.087 271.584 16.9118 272.052 16.7136C272.535 16.5154 272.996 16.2944 273.433 16.0505C273.599 15.9591 273.758 15.8829 273.909 15.8219C274.06 15.7457 274.196 15.7076 274.316 15.7076ZM270.444 3.10951C269.584 2.74368 269.154 2.43883 269.154 2.19495C269.154 2.073 269.252 1.97393 269.448 1.89771C269.659 1.8215 269.886 1.76815 270.127 1.73767C270.505 1.67669 270.973 1.64621 271.531 1.64621C273.101 1.64621 274.603 1.9282 276.037 2.49218C277.471 3.04091 278.438 3.86402 278.936 4.96149C279.072 5.28159 279.14 5.60168 279.14 5.92178C279.14 6.501 278.958 7.08022 278.596 7.65945C278.249 8.23867 277.811 8.71119 277.283 9.07702C276.754 9.44284 276.256 9.62575 275.788 9.62575C275.456 9.62575 275.192 9.48095 274.996 9.19134C274.815 8.90172 274.588 8.41396 274.316 7.72804C274.03 7.01163 273.75 6.40193 273.479 5.89892C273.207 5.38067 272.822 4.87004 272.324 4.36703C271.826 3.84878 271.199 3.4296 270.444 3.10951ZM260.957 13.1239L261.093 18.1083L263.719 17.9025L265.033 17.8111C265.591 15.8905 266.014 14.1147 266.301 12.4838C266.331 12.2704 266.346 12.1256 266.346 12.0493C266.346 11.775 266.255 11.5692 266.074 11.432C265.893 11.2948 265.553 11.2262 265.055 11.2262C264.799 11.2262 264.489 11.2491 264.127 11.2948L260.934 11.6835L260.957 13.1239Z" fill="#FF4F49"/>
</svg>
